<svg width="525" height="441" viewBox="0 0 525 441" fill="none" xmlns="http://www.w3.org/2000/svg">
<g clip-path="url(#clip0)">
<path opacity="0.1" d="M240.57 389.409C361.063 389.409 458.742 381.117 458.742 370.889C458.742 360.661 361.063 352.369 240.57 352.369C120.077 352.369 22.3975 360.661 22.3975 370.889C22.3975 381.117 120.077 389.409 240.57 389.409Z" fill="#FBC02D"/>
<g opacity="0.1">
<path opacity="0.1" d="M433.804 265.36C432.5 261.033 427.213 259.041 421.997 260.915C421.246 261.183 420.519 261.527 419.826 261.942C419.492 261.841 419.148 261.751 418.799 261.684C419.084 260.439 419.193 259.154 419.122 257.873C420.922 256.558 422.381 254.758 423.361 252.648C424.341 250.538 424.808 248.189 424.718 245.824C426.512 244.505 427.967 242.704 428.943 240.595C429.919 238.485 430.384 236.137 430.293 233.775C432.101 232.473 433.559 230.667 434.518 228.545C437.033 223.101 435.991 216.984 432.187 214.88C428.383 212.775 423.255 215.486 420.74 220.929C419.742 223.03 419.276 225.384 419.389 227.748C417.595 229.068 416.141 230.868 415.165 232.978C414.189 235.087 413.724 237.435 413.815 239.797C412.02 241.117 410.566 242.917 409.59 245.027C408.614 247.136 408.149 249.484 408.24 251.846C406.441 253.164 404.982 254.964 404.003 257.075C403.023 259.186 402.555 261.536 402.644 263.901C400.836 265.203 399.378 267.009 398.419 269.131C397.946 270.154 397.588 271.236 397.351 272.352C396.721 271.345 395.952 270.45 395.072 269.698C394.972 268.841 394.8 267.996 394.559 267.173C392.844 261.465 388.245 257.986 384.292 259.411C380.339 260.837 378.512 266.611 380.226 272.319C380.928 274.766 382.279 276.93 384.107 278.537C384.208 279.394 384.38 280.239 384.62 281.062C385.616 284.373 387.582 286.933 389.831 288.218C389.632 288.933 389.489 289.665 389.405 290.406C387.285 292.636 385.92 295.586 385.534 298.774C383.412 301.004 382.048 303.957 381.664 307.147C380.613 308.25 379.745 309.543 379.097 310.969C376.576 316.413 377.618 322.535 381.422 324.634C385.226 326.733 390.355 324.034 392.875 318.584C393.54 317.163 393.974 315.627 394.158 314.044C396.279 311.815 397.643 308.865 398.029 305.677C400.151 303.447 401.516 300.494 401.9 297.304C404.005 295.069 405.354 292.119 405.724 288.936C407.854 286.706 409.223 283.748 409.605 280.552C410.258 279.875 410.842 279.122 411.345 278.307C413.443 278.777 415.617 278.628 417.644 277.875C418.396 277.607 419.122 277.263 419.816 276.848C422.086 277.502 424.483 277.409 426.705 276.578C431.905 274.721 435.103 269.692 433.804 265.36Z" fill="#3F3D56"/>
<g opacity="0.1">
<path opacity="0.1" d="M424.6 248.299C424.061 248.878 423.469 249.395 422.834 249.842C422.915 251.444 422.721 253.049 422.264 254.573C422.668 253.963 423.029 253.319 423.342 252.648C423.979 251.285 424.404 249.815 424.6 248.299Z" fill="black"/>
<path opacity="0.1" d="M430.175 236.25C429.636 236.829 429.044 237.346 428.409 237.793C428.489 239.395 428.296 241 427.839 242.524C428.244 241.913 428.604 241.267 428.917 240.594C429.551 239.231 429.976 237.763 430.175 236.25Z" fill="black"/>
<path opacity="0.1" d="M417.531 231.766C417.484 230.94 417.513 230.111 417.619 229.291C416.622 230.365 415.793 231.611 415.165 232.978C414.855 233.653 414.594 234.352 414.385 235.072C415.234 233.763 416.302 232.642 417.531 231.766V231.766Z" fill="black"/>
<path opacity="0.1" d="M382.146 304.683C382.595 304 383.102 303.365 383.66 302.786C383.748 302.025 383.897 301.274 384.107 300.542C383.661 301.197 383.267 301.894 382.931 302.624C382.621 303.287 382.359 303.976 382.146 304.683V304.683Z" fill="black"/>
<path opacity="0.1" d="M386.017 296.321C386.465 295.638 386.972 295.003 387.531 294.425C387.615 293.683 387.757 292.951 387.957 292.236V292.236C387.531 292.873 387.153 293.546 386.828 294.251C386.51 294.918 386.239 295.61 386.017 296.321V296.321Z" fill="black"/>
<path opacity="0.1" d="M419.02 260.348C418.484 260.927 417.894 261.443 417.259 261.886C417.329 263.167 417.22 264.452 416.936 265.696C417.282 265.762 417.625 265.848 417.962 265.955C418.655 265.539 419.382 265.195 420.134 264.928C425.36 263.053 430.642 265.045 431.941 269.372C432.263 270.46 432.32 271.621 432.105 272.74C433.825 270.528 434.538 267.835 433.799 265.365C432.495 261.038 427.208 259.046 421.992 260.921C421.241 261.188 420.514 261.532 419.821 261.948C419.487 261.847 419.143 261.757 418.794 261.689C418.891 261.241 418.963 260.797 419.02 260.348Z" fill="black"/>
<path opacity="0.1" d="M380.236 308.887C379.79 309.542 379.397 310.239 379.061 310.969C378.749 311.645 378.485 312.347 378.27 313.068C378.729 312.381 379.244 311.742 379.81 311.16C379.889 310.389 380.032 309.629 380.236 308.887V308.887Z" fill="black"/>
<path opacity="0.1" d="M411.931 243.815C411.884 242.989 411.913 242.16 412.018 241.34C411.021 242.414 410.192 243.66 409.564 245.027C409.254 245.702 408.993 246.402 408.784 247.121C409.634 245.813 410.701 244.691 411.931 243.815V243.815Z" fill="black"/>
<path opacity="0.1" d="M403.876 292.954C403.775 293.789 403.603 294.612 403.363 295.412C403.764 294.799 404.123 294.154 404.435 293.482C404.772 292.761 405.052 292.01 405.272 291.237C404.852 291.851 404.385 292.426 403.876 292.954V292.954Z" fill="black"/>
<path opacity="0.1" d="M396.135 309.689C396.034 310.524 395.862 311.347 395.621 312.147C396.026 311.536 396.387 310.89 396.699 310.217C397.034 309.495 397.314 308.744 397.536 307.972C397.116 308.588 396.647 309.162 396.135 309.689V309.689Z" fill="black"/>
<path opacity="0.1" d="M400.005 301.316C399.904 302.151 399.732 302.974 399.492 303.774C399.901 303.173 400.268 302.539 400.59 301.877C400.927 301.156 401.207 300.405 401.427 299.632C400.997 300.236 400.522 300.8 400.005 301.316V301.316Z" fill="black"/>
<path opacity="0.1" d="M407.747 284.587C407.646 285.42 407.474 286.241 407.234 287.039C407.636 286.429 407.995 285.785 408.307 285.114C408.647 284.381 408.928 283.616 409.148 282.83C408.73 283.46 408.261 284.048 407.747 284.587V284.587Z" fill="black"/>
<path opacity="0.1" d="M382.402 263.424C386.365 262.004 390.965 265.478 392.669 271.185C392.91 272.01 393.081 272.857 393.183 273.716C394.063 274.468 394.831 275.363 395.462 276.371C395.698 275.252 396.057 274.169 396.53 273.144C396.709 272.762 396.904 272.397 397.105 272.021C396.522 271.14 395.831 270.35 395.051 269.675C394.951 268.818 394.779 267.973 394.538 267.15C392.823 261.443 388.224 257.963 384.271 259.389C382.012 260.197 380.452 262.425 379.846 265.242C380.541 264.405 381.421 263.779 382.402 263.424V263.424Z" fill="black"/>
<path opacity="0.1" d="M400.781 267.913C400.735 267.089 400.766 266.262 400.873 265.444C399.873 266.516 399.042 267.762 398.414 269.131C398.103 269.803 397.842 270.501 397.634 271.219C398.486 269.913 399.553 268.792 400.781 267.913V267.913Z" fill="black"/>
<path opacity="0.1" d="M406.356 255.859C406.31 255.034 406.341 254.207 406.448 253.389C405.447 254.458 404.616 255.703 403.989 257.071C403.679 257.745 403.418 258.445 403.209 259.164C404.059 257.856 405.126 256.734 406.356 255.859V255.859Z" fill="black"/>
<path opacity="0.1" d="M392.264 318.057C392.163 318.894 391.991 319.718 391.751 320.52C392.595 319.243 393.241 317.823 393.665 316.317C393.246 316.941 392.777 317.523 392.264 318.057V318.057Z" fill="black"/>
</g>
<path opacity="0.1" d="M441.411 209.677C443.221 208.376 444.679 206.57 445.636 204.447C448.157 199.003 447.115 192.88 443.311 190.776C439.507 188.671 434.379 191.382 431.858 196.831C430.86 198.938 430.395 201.298 430.513 203.667C428.719 204.986 427.264 206.787 426.288 208.896C425.312 211.006 424.847 213.354 424.938 215.716C423.128 217.015 421.669 218.821 420.713 220.946C420.404 221.612 420.145 222.305 419.938 223.017C421.278 220.895 423.222 219.317 425.467 218.527C425.723 219.392 426.132 220.192 426.673 220.882C427.213 221.572 427.874 222.138 428.616 222.548C429.358 222.957 430.166 223.201 430.995 223.266C431.824 223.331 432.657 223.216 433.444 222.927C434.202 225.367 434.202 228.013 433.444 230.453C433.845 229.848 434.202 229.21 434.512 228.545C435.508 226.443 435.972 224.089 435.857 221.726C437.653 220.409 439.11 218.609 440.086 216.499C441.062 214.389 441.526 212.04 441.432 209.677H441.411Z" fill="#3F3D56"/>
<path opacity="0.1" d="M502.685 132.433C504.233 131.643 505.728 130.738 507.161 129.722L490.565 116.467L510.072 127.449C514.018 124.022 517.283 119.75 519.666 114.895C522.05 110.041 523.501 104.705 523.932 99.2152L490.78 99.5856L524.004 93.5134C523.661 88.0183 522.293 82.658 519.986 77.7617C517.678 72.8655 514.479 68.5367 510.586 65.0412C506.692 61.5458 502.186 58.9574 497.344 57.4353C492.502 55.9131 487.426 55.4892 482.429 56.1896C477.432 56.8901 472.618 58.7 468.284 61.5083C463.95 64.3166 460.187 68.064 457.226 72.5202C454.264 76.9765 452.168 82.0475 451.065 87.4217C449.962 92.796 449.876 98.3601 450.811 103.772C448.401 104.997 446.119 106.502 444.004 108.262L461.33 134.599L440.529 111.545C436.139 116.257 432.893 122.092 431.085 128.521C429.277 134.95 428.964 141.771 430.175 148.365C423.891 151.572 418.559 156.646 414.788 163.008C411.018 169.37 408.96 176.764 408.851 184.344C408.742 191.924 410.585 199.385 414.171 205.873C417.757 212.362 422.94 217.617 429.128 221.038C435.316 224.46 442.26 225.908 449.166 225.22C456.071 224.531 462.661 221.732 468.18 217.143C473.7 212.554 477.928 206.361 480.38 199.27C482.832 192.178 483.41 184.476 482.048 177.043C489.568 173.217 495.691 166.737 499.434 158.646C503.177 150.554 504.322 141.322 502.685 132.433Z" fill="#FBC02D"/>
<path opacity="0.1" d="M433.445 122.152C429.689 130.239 428.541 139.476 430.185 148.366C423.901 151.572 418.57 156.646 414.799 163.008C411.028 169.371 408.971 176.764 408.862 184.344C408.752 191.924 410.596 199.385 414.182 205.874C417.767 212.362 422.95 217.618 429.138 221.039C435.327 224.46 442.27 225.909 449.176 225.22C456.082 224.531 462.671 221.732 468.191 217.143C473.711 212.555 477.938 206.361 480.391 199.27C482.843 192.179 483.421 184.476 482.059 177.043C489.312 173.362 435.303 118.105 433.445 122.152Z" fill="black"/>
<path opacity="0.1" d="M475.098 63.6461C478.129 63.6461 480.585 60.9602 480.585 57.6469C480.585 54.3335 478.129 51.6476 475.098 51.6476C472.067 51.6476 469.61 54.3335 469.61 57.6469C469.61 60.9602 472.067 63.6461 475.098 63.6461Z" fill="#FBC02D"/>
<path opacity="0.1" d="M507.151 67.496C510.182 67.496 512.638 64.81 512.638 61.4967C512.638 58.1834 510.182 55.4974 507.151 55.4974C504.12 55.4974 501.663 58.1834 501.663 61.4967C501.663 64.81 504.12 67.496 507.151 67.496Z" fill="#FBC02D"/>
<path opacity="0.1" d="M519.513 121.405C522.544 121.405 525 118.719 525 115.406C525 112.093 522.544 109.407 519.513 109.407C516.482 109.407 514.025 112.093 514.025 115.406C514.025 118.719 516.482 121.405 519.513 121.405Z" fill="#FBC02D"/>
<path opacity="0.1" d="M502.829 148.326C505.859 148.326 508.316 145.64 508.316 142.327C508.316 139.014 505.859 136.328 502.829 136.328C499.798 136.328 497.341 139.014 497.341 142.327C497.341 145.64 499.798 148.326 502.829 148.326Z" fill="#FBC02D"/>
<path opacity="0.1" d="M480.036 204.239C483.067 204.239 485.524 201.553 485.524 198.24C485.524 194.926 483.067 192.24 480.036 192.24C477.005 192.24 474.548 194.926 474.548 198.24C474.548 201.553 477.005 204.239 480.036 204.239Z" fill="#FBC02D"/>
<path opacity="0.1" d="M480.036 204.239C483.067 204.239 485.524 201.553 485.524 198.24C485.524 194.926 483.067 192.24 480.036 192.24C477.005 192.24 474.548 194.926 474.548 198.24C474.548 201.553 477.005 204.239 480.036 204.239Z" fill="black"/>
<path opacity="0.1" d="M429.359 140.913C432.389 140.913 434.846 138.227 434.846 134.913C434.846 131.6 432.389 128.914 429.359 128.914C426.328 128.914 423.871 131.6 423.871 134.913C423.871 138.227 426.328 140.913 429.359 140.913Z" fill="#FBC02D"/>
<path opacity="0.1" d="M429.359 140.913C432.389 140.913 434.846 138.227 434.846 134.913C434.846 131.6 432.389 128.914 429.359 128.914C426.328 128.914 423.871 131.6 423.871 134.913C423.871 138.227 426.328 140.913 429.359 140.913Z" fill="black"/>
<path opacity="0.1" d="M423.506 233.59C419.856 231.575 418.753 225.868 420.883 220.604C420.77 220.817 420.662 221.036 420.56 221.266C418.039 226.71 419.081 232.827 422.885 234.931C426.689 237.036 431.817 234.325 434.333 228.881C434.441 228.657 434.533 228.427 434.625 228.202C432.012 233.203 427.151 235.61 423.506 233.59Z" fill="black"/>
<path opacity="0.1" d="M418.085 245.308C414.44 243.293 413.332 237.586 415.467 232.316C415.354 232.535 415.241 232.754 415.139 232.978C412.618 238.422 413.66 244.545 417.464 246.644C421.268 248.743 426.396 246.043 428.917 240.594C429.02 240.369 429.117 240.145 429.209 239.915C426.591 244.915 421.735 247.323 418.085 245.308Z" fill="black"/>
<path opacity="0.1" d="M412.664 257.02C409.02 255.005 407.911 249.298 410.046 244.034C409.933 244.247 409.821 244.466 409.718 244.696C407.197 250.14 408.245 256.257 412.048 258.361C415.852 260.466 420.976 257.755 423.496 252.312C423.599 252.087 423.696 251.857 423.789 251.633C421.176 256.633 416.314 259.041 412.664 257.02Z" fill="black"/>
<path opacity="0.1" d="M407.264 268.766C403.614 266.752 402.51 261.044 404.641 255.78C404.528 255.993 404.42 256.212 404.312 256.437C401.797 261.88 402.839 268.003 406.643 270.108C410.447 272.212 415.575 269.501 418.091 264.052C418.198 263.828 418.291 263.603 418.383 263.373C415.755 268.345 410.893 270.753 407.264 268.766Z" fill="black"/>
<path opacity="0.1" d="M401.827 280.45C398.178 278.436 397.074 272.728 399.204 267.464C399.091 267.677 398.983 267.896 398.881 268.126C396.36 273.57 397.402 279.687 401.206 281.792C405.01 283.896 410.138 281.186 412.659 275.742C412.762 275.518 412.859 275.287 412.952 275.063C410.344 280.063 405.472 282.471 401.827 280.45Z" fill="black"/>
<path opacity="0.1" d="M396.407 292.169C392.762 290.154 391.653 284.446 393.789 279.182C393.676 279.396 393.563 279.614 393.46 279.839C390.94 285.283 391.982 291.405 395.791 293.51C399.6 295.614 404.697 292.898 407.264 287.455C407.367 287.23 407.464 287.006 407.557 286.775C404.913 291.776 400.077 294.183 396.407 292.169Z" fill="black"/>
<path opacity="0.1" d="M390.986 303.881C387.341 301.866 386.232 296.159 388.368 290.895C388.255 291.114 388.147 291.327 388.039 291.557C385.524 297.001 386.566 303.118 390.37 305.222C394.174 307.327 399.302 304.616 401.817 299.172C401.925 298.948 402.018 298.718 402.11 298.493C399.497 303.494 394.636 305.901 390.986 303.881Z" fill="black"/>
<path opacity="0.1" d="M385.57 315.599C381.92 313.584 380.817 307.877 382.947 302.613C382.834 302.826 382.726 303.045 382.623 303.269C380.103 308.713 381.145 314.836 384.949 316.94C388.753 319.045 393.881 316.334 396.402 310.885C396.504 310.66 396.597 310.436 396.689 310.206C394.076 315.206 389.215 317.591 385.57 315.599Z" fill="black"/>
<path opacity="0.1" d="M382.007 323.298C378.363 321.278 377.254 315.576 379.389 310.307C379.276 310.525 379.163 310.744 379.061 310.969C376.54 316.412 377.582 322.535 381.386 324.634C385.19 326.733 390.318 324.034 392.839 318.584C392.942 318.36 393.039 318.135 393.132 317.905C390.513 322.906 385.652 325.313 382.007 323.298Z" fill="black"/>
<path opacity="0.1" d="M479.949 271.157C480.514 269.384 480.859 267.536 480.975 265.663C481.352 265.662 481.725 265.576 482.07 265.41C482.416 265.245 482.726 265.003 482.982 264.7C483.238 264.398 483.434 264.041 483.558 263.651C483.682 263.262 483.731 262.849 483.702 262.438C483.674 262.027 483.568 261.627 483.391 261.263C483.215 260.899 482.971 260.578 482.676 260.321C482.381 260.065 482.041 259.877 481.677 259.771C481.313 259.664 480.932 259.641 480.559 259.703C479.949 256.665 478.728 253.815 476.984 251.358C475.24 248.901 473.017 246.899 470.477 245.499C470.805 244.789 470.862 243.965 470.635 243.21C470.408 242.454 469.915 241.828 469.266 241.469C468.616 241.111 467.863 241.049 467.172 241.297C466.481 241.545 465.908 242.084 465.58 242.794C465.461 243.046 465.378 243.317 465.334 243.596C462.322 242.983 459.219 243.164 456.284 244.126C453.349 245.087 450.667 246.801 448.46 249.124C446.793 248.829 445.098 248.775 443.419 248.961L441.196 260.023L441.062 249.36C438.511 249.971 436.101 251.145 433.979 252.809C431.856 254.474 430.067 256.594 428.719 259.04C427.372 261.486 426.495 264.206 426.142 267.035C425.789 269.864 425.968 272.743 426.667 275.494C427.366 278.245 428.571 280.811 430.208 283.036C431.845 285.261 433.88 287.097 436.188 288.433C438.496 289.769 441.03 290.576 443.633 290.806C446.236 291.035 448.855 290.681 451.329 289.767C451.594 290.289 451.997 290.711 452.484 290.979C452.987 291.258 453.556 291.361 454.114 291.273C454.673 291.186 455.193 290.913 455.603 290.491C456.014 290.068 456.296 289.518 456.41 288.914C456.525 288.311 456.466 287.683 456.242 287.118C457.118 286.46 457.942 285.724 458.706 284.918C462.714 285.63 466.825 284.937 470.45 282.938C474.075 280.939 477.028 277.736 478.886 273.789L468.542 271.887L479.949 271.157Z" fill="#FBC02D"/>
<g opacity="0.1">
<path opacity="0.1" d="M463.968 276.528C460.149 271.017 457.808 264.49 455.113 258.227C454.031 255.656 452.819 253.153 451.484 250.729L449.461 248.153C449.122 248.467 448.783 248.793 448.434 249.135C446.768 248.841 445.073 248.786 443.393 248.973L441.17 260.034L441.037 249.371C438.486 249.982 436.075 251.156 433.953 252.82C431.831 254.485 430.041 256.605 428.694 259.051C427.346 261.497 426.47 264.217 426.117 267.046C425.764 269.876 425.942 272.754 426.641 275.505C427.34 278.256 428.545 280.822 430.182 283.047C431.819 285.272 433.854 287.108 436.163 288.444C438.471 289.78 441.004 290.587 443.607 290.817C446.211 291.046 448.83 290.692 451.304 289.778C451.568 290.3 451.971 290.722 452.459 290.99C452.962 291.269 453.531 291.372 454.089 291.285C454.647 291.197 455.167 290.924 455.578 290.502C455.989 290.08 456.27 289.529 456.385 288.926C456.499 288.322 456.44 287.695 456.217 287.129C457.092 286.471 457.916 285.736 458.681 284.929C462.604 285.623 466.628 284.972 470.2 283.066C467.816 281.265 465.712 279.058 463.968 276.528V276.528Z" fill="black"/>
</g>
<path opacity="0.1" d="M396.335 252.845C396.546 252.388 396.647 251.878 396.627 251.366C396.608 250.854 396.468 250.356 396.222 249.919C395.976 249.483 395.631 249.123 395.221 248.874C394.811 248.625 394.35 248.494 393.881 248.496C393.103 243.986 390.993 239.879 387.875 236.806C388.377 234.663 388.568 232.447 388.44 230.24L378.352 228.36L388.147 227.686C387.971 226.681 387.729 225.691 387.423 224.723C387.804 224.436 388.115 224.051 388.327 223.601C388.574 223.064 388.668 222.459 388.597 221.864C388.526 221.268 388.294 220.709 387.929 220.26C387.565 219.81 387.086 219.49 386.554 219.342C386.021 219.193 385.461 219.222 384.944 219.425C382.35 215.418 378.553 212.531 374.215 211.266C369.876 210 365.268 210.437 361.193 212.499C357.118 214.562 353.833 218.12 351.908 222.555C349.983 226.99 349.541 232.023 350.657 236.778C350.063 237.052 349.579 237.55 349.292 238.181C349.04 238.724 348.946 239.339 349.021 239.942C349.097 240.546 349.339 241.11 349.716 241.559C350.092 242.009 350.585 242.322 351.128 242.457C351.671 242.592 352.24 242.544 352.757 242.317C353.741 244.125 354.968 245.761 356.396 247.171C355.357 251.604 355.67 256.286 357.29 260.506L370.816 256.667L358.753 263.603C360.886 267.309 364.025 270.193 367.731 271.852C371.437 273.511 375.524 273.863 379.422 272.857C383.32 271.852 386.833 269.54 389.469 266.244C392.106 262.949 393.735 258.835 394.127 254.478C394.592 254.434 395.039 254.261 395.425 253.975C395.812 253.69 396.125 253.3 396.335 252.845V252.845Z" fill="#FBC02D"/>
<path opacity="0.1" d="M396.335 252.845C396.547 252.387 396.647 251.878 396.627 251.366C396.608 250.854 396.468 250.356 396.222 249.919C395.976 249.483 395.631 249.123 395.221 248.874C394.811 248.624 394.35 248.494 393.881 248.496C393.103 243.985 390.993 239.879 387.875 236.806C387.957 236.452 388.029 236.104 388.091 235.751C387.732 236.034 387.401 236.356 387.1 236.71C385.277 238.893 384.343 241.828 382.541 244.034C380.416 246.638 377.233 247.996 374.056 248.361C370.878 248.726 367.68 248.192 364.543 247.525C361.946 246.963 359.312 246.312 356.679 246.587C356.422 246.587 356.166 246.649 355.929 246.694C356.083 246.857 356.237 247.02 356.396 247.177C355.357 251.609 355.67 256.291 357.29 260.511L370.816 256.667L358.753 263.603C360.886 267.309 364.025 270.192 367.731 271.852C371.437 273.511 375.524 273.862 379.422 272.857C383.32 271.851 386.833 269.539 389.469 266.244C392.106 262.949 393.735 258.835 394.127 254.478C394.592 254.434 395.039 254.261 395.425 253.975C395.812 253.689 396.125 253.3 396.335 252.845V252.845Z" fill="black"/>
</g>
<g opacity="0.1">
<path opacity="0.1" d="M45.9395 286.91C46.5965 284.727 49.2608 283.722 51.8892 284.665C52.2672 284.801 52.6332 284.974 52.9826 285.182C53.152 285.131 53.3265 285.086 53.4959 285.052C53.3517 284.426 53.2963 283.778 53.3317 283.133C52.4294 282.466 51.6979 281.558 51.2065 280.496C50.7151 279.433 50.4801 278.251 50.5237 277.061C49.6135 276.406 48.8798 275.497 48.3984 274.429C47.8967 273.37 47.6611 272.185 47.7156 270.994C46.8061 270.336 46.0727 269.426 45.5904 268.357C44.3276 265.618 44.8409 262.537 46.766 261.471C48.691 260.404 51.268 261.779 52.536 264.518C53.0368 265.579 53.2706 266.766 53.2136 267.958C54.1182 268.621 54.8517 269.528 55.3435 270.59C55.8352 271.652 56.0687 272.835 56.0216 274.025C56.926 274.69 57.6591 275.597 58.1507 276.66C58.6424 277.723 58.8761 278.907 58.8296 280.097C59.7343 280.76 60.4677 281.666 60.9595 282.729C61.4512 283.791 61.6848 284.974 61.6376 286.164C62.549 286.821 63.2842 287.731 63.768 288.801C63.9988 289.319 64.1712 289.866 64.2813 290.429C64.5976 289.92 64.9837 289.468 65.4261 289.088C65.4789 288.655 65.5682 288.228 65.693 287.814C66.5606 284.94 68.8758 283.189 70.8727 283.885C72.8696 284.581 73.7834 287.516 72.9261 290.39C72.5718 291.623 71.8912 292.715 70.9703 293.527C70.9169 293.957 70.8276 294.382 70.7033 294.795C70.282 296.318 69.3434 297.607 68.0801 298.398C68.1791 298.765 68.2512 299.14 68.2957 299.52C68.8257 300.076 69.265 300.727 69.5945 301.445C69.9304 302.161 70.1493 302.936 70.2413 303.735C70.7733 304.29 71.2143 304.942 71.5452 305.66C71.8804 306.376 72.0993 307.151 72.192 307.95C72.7252 308.506 73.1664 309.159 73.4959 309.88C74.7639 312.619 74.2403 315.705 72.3255 316.76C70.4107 317.816 67.8234 316.457 66.5555 313.713C66.2211 312.996 66.0023 312.222 65.9087 311.423C64.8391 310.302 64.1511 308.815 63.9579 307.209C62.8884 306.087 62.2004 304.601 62.0072 302.994C61.4756 302.438 61.0347 301.787 60.7033 301.069C60.3713 300.351 60.1526 299.577 60.0565 298.779C59.5265 298.223 59.0873 297.572 58.7577 296.855C58.4219 296.138 58.203 295.363 58.1109 294.565C57.7804 294.228 57.4859 293.852 57.2331 293.442C56.1769 293.679 55.0824 293.605 54.0606 293.229C53.6811 293.091 53.3135 292.916 52.9621 292.707C51.8203 293.039 50.6143 292.992 49.497 292.573C46.8943 291.624 45.2875 289.093 45.9395 286.91Z" fill="#3F3D56"/>
<g opacity="0.1">
<path opacity="0.1" d="M50.5747 278.307C50.8469 278.6 51.1462 278.862 51.4679 279.087C51.4245 279.893 51.522 280.701 51.7554 281.467C51.5491 281.16 51.3671 280.836 51.2113 280.496C50.8902 279.809 50.6751 279.07 50.5747 278.307V278.307Z" fill="black"/>
<path opacity="0.1" d="M47.7668 272.246C48.0404 272.536 48.3396 272.795 48.6601 273.02C48.6169 273.828 48.7145 274.637 48.9475 275.405C48.3257 274.472 47.9205 273.388 47.7668 272.246V272.246Z" fill="black"/>
<path opacity="0.1" d="M54.1478 269.984C54.1722 269.568 54.1584 269.151 54.1067 268.738C54.6085 269.28 55.0264 269.907 55.3439 270.596C55.4988 270.936 55.6293 271.289 55.734 271.651C55.3062 270.991 54.768 270.425 54.1478 269.984V269.984Z" fill="black"/>
<path opacity="0.1" d="M71.961 306.721C71.7365 306.376 71.4821 306.057 71.2012 305.767C71.1544 305.386 71.0788 305.011 70.9753 304.644C71.1981 304.974 71.3956 305.323 71.5657 305.688C71.7214 306.021 71.8536 306.366 71.961 306.721V306.721Z" fill="black"/>
<path opacity="0.1" d="M69.9944 302.506C69.77 302.162 69.5155 301.842 69.2346 301.552C69.1927 301.172 69.1206 300.796 69.019 300.429C69.442 301.055 69.768 301.753 69.9841 302.495L69.9944 302.506Z" fill="black"/>
<path opacity="0.1" d="M53.3879 284.39C53.6574 284.681 53.9552 284.939 54.276 285.159C54.2376 285.805 54.2931 286.452 54.4403 287.079C54.2673 287.112 54.0959 287.155 53.9269 287.208C53.5753 287.001 53.2077 286.828 52.8284 286.691C50.2 285.749 47.5358 286.753 46.8838 288.936C46.7204 289.479 46.6903 290.06 46.7965 290.62C46.3742 290.134 46.0738 289.537 45.9245 288.888C45.7752 288.238 45.7821 287.556 45.9444 286.91C46.6015 284.727 49.2658 283.723 51.8941 284.665C52.2721 284.801 52.6381 284.974 52.9875 285.182C53.1569 285.131 53.3315 285.086 53.5009 285.053C53.4515 284.834 53.4138 284.613 53.3879 284.39V284.39Z" fill="black"/>
<path opacity="0.1" d="M72.926 308.836C73.15 309.167 73.3475 309.518 73.5164 309.886C73.6731 310.226 73.8053 310.579 73.9117 310.941C73.6872 310.595 73.4328 310.274 73.1519 309.981C73.1062 309.593 73.0306 309.21 72.926 308.836V308.836Z" fill="black"/>
<path opacity="0.1" d="M56.9556 276.062C56.9801 275.646 56.9664 275.229 56.9146 274.816C57.4176 275.357 57.8356 275.984 58.1517 276.674C58.3067 277.012 58.4371 277.363 58.5419 277.723C58.114 277.065 57.5757 276.501 56.9556 276.062V276.062Z" fill="black"/>
<path opacity="0.1" d="M61.016 300.811C61.0641 301.231 61.1483 301.644 61.2676 302.046C60.8398 301.405 60.5136 300.69 60.3025 299.93C60.5158 300.247 60.7546 300.541 61.016 300.811V300.811Z" fill="black"/>
<path opacity="0.1" d="M64.9128 309.24C64.9646 309.66 65.0505 310.073 65.1694 310.475C64.9632 310.169 64.7811 309.844 64.6253 309.504C64.4565 309.144 64.3156 308.768 64.2043 308.382C64.4193 308.688 64.6562 308.975 64.9128 309.24V309.24Z" fill="black"/>
<path opacity="0.1" d="M62.967 305.026C63.015 305.445 63.0992 305.858 63.2185 306.26C63.0141 305.953 62.8321 305.628 62.6744 305.29C62.5049 304.929 62.3641 304.554 62.2534 304.167C62.4677 304.476 62.7064 304.763 62.967 305.026V305.026Z" fill="black"/>
<path opacity="0.1" d="M59.0653 296.591C59.1128 297.012 59.197 297.427 59.3169 297.831C59.1222 297.523 58.9505 297.198 58.8035 296.86C58.6314 296.501 58.4888 296.125 58.3774 295.738C58.5825 296.045 58.8128 296.33 59.0653 296.591V296.591Z" fill="black"/>
<path opacity="0.1" d="M71.8327 285.934C69.8357 285.216 67.5205 286.966 66.6581 289.862C66.5333 290.277 66.4439 290.703 66.3912 291.136C65.9472 291.514 65.5593 291.965 65.2413 292.472C65.1221 291.908 64.9411 291.361 64.7023 290.844C64.615 290.654 64.5175 290.468 64.4148 290.283C64.7062 289.841 65.0516 289.444 65.4415 289.105C65.4942 288.672 65.5836 288.245 65.7084 287.831C66.576 284.957 68.8912 283.206 70.8881 283.902C71.4607 284.143 71.9668 284.541 72.3572 285.058C72.7475 285.575 73.009 286.194 73.116 286.854C72.7672 286.433 72.3253 286.116 71.8327 285.934V285.934Z" fill="black"/>
<path opacity="0.1" d="M62.5718 288.195C62.5962 287.779 62.5825 287.362 62.5308 286.949C63.0338 287.49 63.4518 288.118 63.7679 288.807C63.9229 289.147 64.0534 289.5 64.1581 289.862C63.7316 289.201 63.1931 288.635 62.5718 288.195V288.195Z" fill="black"/>
<path opacity="0.1" d="M59.7637 282.123C59.7881 281.707 59.7743 281.29 59.7227 280.877C60.2233 281.42 60.641 282.047 60.9598 282.735C61.1148 283.075 61.2452 283.428 61.35 283.79C60.9222 283.13 60.384 282.564 59.7637 282.123V282.123Z" fill="black"/>
<path opacity="0.1" d="M66.8634 313.455C66.9127 313.877 66.9987 314.292 67.1201 314.695C66.9149 314.386 66.733 314.06 66.576 313.719C66.4071 313.358 66.2663 312.983 66.155 312.596C66.37 312.903 66.6069 313.19 66.8634 313.455Z" fill="black"/>
</g>
<path opacity="0.1" d="M42.1045 258.855C41.1944 258.201 40.4607 257.292 39.9793 256.223C38.7113 253.479 39.2349 250.398 41.1497 249.337C43.0645 248.277 45.6518 249.64 46.9197 252.385C47.4213 253.443 47.6552 254.629 47.5974 255.819C48.5017 256.484 49.2348 257.391 49.7265 258.455C50.2182 259.518 50.4519 260.701 50.4054 261.891C51.3161 262.547 52.0513 263.455 52.5358 264.524C52.6898 264.86 52.8203 265.209 52.9259 265.567C52.2459 264.506 51.2669 263.718 50.1384 263.323C50.0127 263.761 49.8084 264.168 49.5373 264.519C49.2662 264.87 48.9338 265.158 48.5596 265.367C48.1853 265.576 47.7767 265.701 47.3577 265.736C46.9386 265.77 46.5175 265.713 46.1189 265.567C45.7383 266.796 45.7383 268.127 46.1189 269.355C45.926 269.05 45.7544 268.729 45.6056 268.396C45.1039 267.337 44.8683 266.152 44.9228 264.961C44.0195 264.295 43.2872 263.388 42.7957 262.325C42.3041 261.262 42.0697 260.079 42.1148 258.889L42.1045 258.855Z" fill="#3F3D56"/>
<path opacity="0.1" d="M11.2424 219.942C10.4637 219.544 9.71075 219.088 8.9888 218.578L17.3461 211.9L7.52062 217.427C5.53403 215.701 3.89067 213.549 2.69111 211.103C1.49155 208.658 0.761022 205.971 0.544235 203.207L17.2485 203.397L0.508301 200.333C0.652441 197.541 1.32094 194.812 2.47214 192.315C3.62335 189.818 5.23259 187.606 7.19962 185.819C9.16664 184.032 11.4493 182.706 13.9054 181.925C16.3615 181.144 18.9383 180.925 21.4754 181.28C24.0125 181.635 26.4555 182.558 28.6522 183.991C30.8489 185.423 32.7522 187.335 34.2435 189.607C35.7348 191.879 36.7822 194.462 37.3204 197.196C37.8586 199.929 37.8761 202.755 37.3718 205.496C38.5843 206.11 39.7338 206.862 40.8009 207.741L32.074 221.008L42.5514 209.402C44.7623 211.776 46.397 214.716 47.3077 217.954C48.2183 221.193 48.3762 224.628 47.767 227.95C50.9365 229.564 53.6265 232.12 55.5295 235.327C57.4325 238.534 58.4717 242.261 58.5281 246.083C58.5846 249.905 57.6561 253.667 55.8488 256.939C54.0415 260.211 51.4283 262.861 48.3082 264.586C45.188 266.311 41.6868 267.041 38.2049 266.693C34.7231 266.345 31.401 264.933 28.6188 262.618C25.8365 260.303 23.7063 257.179 22.4717 253.603C21.2372 250.027 20.9482 246.143 21.6377 242.395C17.8548 240.468 14.7737 237.208 12.8886 233.137C11.0036 229.066 10.4238 224.421 11.2424 219.947V219.942Z" fill="#FBC02D"/>
<path opacity="0.1" d="M46.1245 214.767C48.0177 218.841 48.5966 223.494 47.7672 227.972C50.9366 229.586 53.6267 232.143 55.5297 235.349C57.4327 238.556 58.4718 242.283 58.5283 246.105C58.5847 249.927 57.6562 253.689 55.8489 256.961C54.0416 260.234 51.4285 262.884 48.3083 264.609C45.1882 266.333 41.687 267.064 38.2051 266.716C34.7232 266.368 31.4012 264.955 28.6189 262.64C25.8366 260.325 23.7064 257.201 22.4719 253.625C21.2373 250.049 20.9483 246.165 21.6378 242.418C17.9776 240.56 45.185 212.73 46.1245 214.767Z" fill="black"/>
<path opacity="0.1" d="M25.1383 185.293C26.6664 185.293 27.9052 183.939 27.9052 182.268C27.9052 180.597 26.6664 179.243 25.1383 179.243C23.6101 179.243 22.3713 180.597 22.3713 182.268C22.3713 183.939 23.6101 185.293 25.1383 185.293Z" fill="#FBC02D"/>
<path opacity="0.1" d="M8.98838 187.235C10.5165 187.235 11.7553 185.88 11.7553 184.21C11.7553 182.539 10.5165 181.185 8.98838 181.185C7.46024 181.185 6.22144 182.539 6.22144 184.21C6.22144 185.88 7.46024 187.235 8.98838 187.235Z" fill="#FBC02D"/>
<path opacity="0.1" d="M2.76694 214.391C4.29508 214.391 5.53388 213.037 5.53388 211.366C5.53388 209.696 4.29508 208.342 2.76694 208.342C1.2388 208.342 0 209.696 0 211.366C0 213.037 1.2388 214.391 2.76694 214.391Z" fill="#FBC02D"/>
<path opacity="0.1" d="M11.1703 227.956C12.6984 227.956 13.9372 226.601 13.9372 224.931C13.9372 223.26 12.6984 221.906 11.1703 221.906C9.64212 221.906 8.40332 223.26 8.40332 224.931C8.40332 226.601 9.64212 227.956 11.1703 227.956Z" fill="#FBC02D"/>
<path opacity="0.1" d="M22.6488 256.122C24.1769 256.122 25.4157 254.768 25.4157 253.098C25.4157 251.427 24.1769 250.073 22.6488 250.073C21.1206 250.073 19.8818 251.427 19.8818 253.098C19.8818 254.768 21.1206 256.122 22.6488 256.122Z" fill="#FBC02D"/>
<path opacity="0.1" d="M22.6488 256.122C24.1769 256.122 25.4157 254.768 25.4157 253.098C25.4157 251.427 24.1769 250.073 22.6488 250.073C21.1206 250.073 19.8818 251.427 19.8818 253.098C19.8818 254.768 21.1206 256.122 22.6488 256.122Z" fill="black"/>
<path opacity="0.1" d="M48.1776 224.218C49.7057 224.218 50.9445 222.864 50.9445 221.193C50.9445 219.523 49.7057 218.168 48.1776 218.168C46.6494 218.168 45.4106 219.523 45.4106 221.193C45.4106 222.864 46.6494 224.218 48.1776 224.218Z" fill="#FBC02D"/>
<path opacity="0.1" d="M48.1776 224.218C49.7057 224.218 50.9445 222.864 50.9445 221.193C50.9445 219.523 49.7057 218.168 48.1776 218.168C46.6494 218.168 45.4106 219.523 45.4106 221.193C45.4106 222.864 46.6494 224.218 48.1776 224.218Z" fill="black"/>
<path opacity="0.1" d="M51.1294 270.904C52.9672 269.889 53.5216 267.015 52.4487 264.361C52.5052 264.473 52.5617 264.58 52.613 264.692C53.881 267.436 53.3574 270.517 51.4374 271.578C49.5175 272.639 46.9405 271.275 45.6725 268.531C45.6212 268.418 45.5699 268.306 45.5237 268.188C46.843 270.708 49.2916 271.92 51.1294 270.904Z" fill="black"/>
<path opacity="0.1" d="M53.8553 276.808C55.693 275.793 56.2526 272.914 55.1797 270.265C55.2362 270.371 55.2926 270.484 55.344 270.596C56.6119 273.34 56.0883 276.421 54.1684 277.482C52.2485 278.543 49.6715 277.179 48.4035 274.435C48.347 274.322 48.3008 274.204 48.2546 274.092C49.5739 276.623 52.0277 277.824 53.8553 276.808Z" fill="black"/>
<path opacity="0.1" d="M56.5862 282.707C58.424 281.691 58.9836 278.818 57.9055 276.163C57.9671 276.275 58.0185 276.382 58.0749 276.5C59.3429 279.239 58.8142 282.325 56.8994 283.38C54.9846 284.435 52.4024 283.077 51.1345 280.333C51.078 280.221 51.0318 280.108 50.9856 279.99C52.2998 282.51 54.7484 283.723 56.5862 282.707Z" fill="black"/>
<path opacity="0.1" d="M59.3174 288.611C61.1552 287.595 61.7148 284.721 60.6367 282.067C60.6932 282.174 60.7497 282.286 60.801 282.398C62.0741 285.142 61.5453 288.223 59.6306 289.284C57.7158 290.345 55.1285 288.981 53.8605 286.237C53.8092 286.124 53.763 286.007 53.7168 285.894C55.031 288.408 57.4796 289.626 59.3174 288.611Z" fill="black"/>
<path opacity="0.1" d="M62.0481 294.509C63.8859 293.493 64.4403 290.62 63.3674 287.971C63.4239 288.077 63.4804 288.19 63.5317 288.302C64.7997 291.046 64.276 294.127 62.3613 295.188C60.4465 296.249 57.8592 294.879 56.5912 292.141C56.5399 292.023 56.4937 291.91 56.4424 291.798C57.7617 294.312 60.2103 295.525 62.0481 294.509Z" fill="black"/>
<path opacity="0.1" d="M64.7791 300.413C66.6169 299.397 67.1713 296.524 66.0984 293.869C66.1549 293.981 66.2113 294.088 66.2626 294.2C67.5306 296.945 67.007 300.026 65.0922 301.086C63.1774 302.147 60.5902 300.783 59.3222 298.039C59.2709 297.927 59.2195 297.814 59.1733 297.697C60.4926 300.194 62.9413 301.429 64.7791 300.413Z" fill="black"/>
<path opacity="0.1" d="M67.5103 306.317C69.3429 305.301 69.9025 302.422 68.8296 299.773C68.886 299.88 68.9425 299.992 68.9938 300.104C70.2618 302.848 69.7382 305.929 67.8183 306.99C65.8984 308.051 63.3214 306.681 62.0534 303.943C62.0021 303.825 61.9507 303.713 61.9045 303.6C63.2238 306.115 65.6725 307.332 67.5103 306.317Z" fill="black"/>
<path opacity="0.1" d="M70.2361 312.215C72.0739 311.199 72.6334 308.326 71.5554 305.671C71.617 305.783 71.6684 305.89 71.7248 306.008C72.9928 308.747 72.464 311.833 70.5493 312.888C68.6345 313.943 66.0523 312.585 64.7844 309.841C64.7279 309.729 64.6817 309.616 64.6355 309.499C65.9548 312.018 68.3983 313.231 70.2361 312.215Z" fill="black"/>
<path opacity="0.1" d="M72.0484 316.093C73.8862 315.077 74.4406 312.204 73.3677 309.549C73.4242 309.661 73.4806 309.768 73.532 309.886C74.7999 312.625 74.2763 315.711 72.3615 316.766C70.4467 317.821 67.8595 316.463 66.5915 313.719C66.5402 313.607 66.4888 313.494 66.4426 313.377C67.7465 315.908 70.1952 317.109 72.0484 316.093Z" fill="black"/>
<path opacity="0.1" d="M22.695 289.828C22.4099 288.936 22.2372 288.005 22.1817 287.062C21.9919 287.061 21.8042 287.017 21.6305 286.934C21.4567 286.85 21.3006 286.728 21.1719 286.576C21.0431 286.423 20.9445 286.244 20.8822 286.048C20.8199 285.852 20.7952 285.644 20.8097 285.437C20.8242 285.23 20.8776 285.028 20.9665 284.845C21.0554 284.662 21.1779 284.5 21.3264 284.371C21.4749 284.242 21.6462 284.147 21.8296 284.094C22.0129 284.04 22.2045 284.028 22.3922 284.059C22.7002 282.53 23.3155 281.094 24.1936 279.857C25.0717 278.619 26.1906 277.61 27.4692 276.904C27.3038 276.546 27.2752 276.131 27.3898 275.75C27.5043 275.369 27.7526 275.053 28.0801 274.872C28.4075 274.691 28.7872 274.66 29.1357 274.785C29.4842 274.911 29.773 275.182 29.9384 275.54C29.9985 275.667 30.04 275.803 30.0616 275.944C31.5806 275.639 33.1442 275.735 34.6226 276.223C36.1011 276.711 37.4518 277.577 38.5626 278.75C39.4111 278.598 40.2744 278.572 41.1293 278.672L42.2484 284.239L42.2741 278.868C43.5469 279.19 44.747 279.79 45.802 280.632C46.8569 281.475 47.7449 282.542 48.4125 283.769C49.0801 284.997 49.5133 286.36 49.6862 287.775C49.859 289.191 49.7679 290.63 49.4183 292.006C49.0687 293.382 48.4678 294.667 47.6519 295.782C46.8359 296.897 45.8219 297.821 44.6708 298.496C43.5197 299.171 42.2555 299.585 40.9543 299.712C39.653 299.839 38.3418 299.676 37.0996 299.234C36.9645 299.495 36.7629 299.708 36.5195 299.846C36.2658 299.986 35.9788 300.037 35.6975 299.993C35.4162 299.949 35.1541 299.811 34.9468 299.598C34.7395 299.386 34.5969 299.109 34.5385 298.805C34.4801 298.501 34.5086 298.184 34.6201 297.899C34.1799 297.563 33.7661 297.187 33.3829 296.776C31.3637 297.134 29.2928 296.783 27.4669 295.775C25.641 294.767 24.1539 293.153 23.2187 291.164L28.4291 290.204L22.695 289.828Z" fill="#FBC02D"/>
<g opacity="0.1">
<path opacity="0.1" d="M30.7445 292.533C32.6696 289.727 33.8503 286.472 35.2055 283.318C35.7482 282.021 36.3584 280.758 37.033 279.536L38.0597 278.24C38.2342 278.402 38.4036 278.565 38.573 278.733C39.4215 278.581 40.2848 278.555 41.1398 278.655L42.2589 284.222L42.2743 278.868C43.5471 279.19 44.7472 279.79 45.8021 280.632C46.8571 281.475 47.7451 282.542 48.4127 283.769C49.0802 284.997 49.5135 286.36 49.6864 287.775C49.8592 289.191 49.7681 290.63 49.4185 292.006C49.0688 293.382 48.4679 294.667 47.652 295.782C46.8361 296.897 45.822 297.821 44.671 298.496C43.5199 299.171 42.2557 299.585 40.9544 299.712C39.6532 299.839 38.342 299.676 37.0997 299.234C36.9646 299.495 36.7631 299.708 36.5197 299.846C36.2659 299.986 35.979 300.037 35.6977 299.993C35.4163 299.949 35.1543 299.811 34.947 299.598C34.7396 299.386 34.5971 299.109 34.5387 298.805C34.4802 298.501 34.5087 298.184 34.6203 297.899C34.1801 297.563 33.7663 297.187 33.3831 296.776C31.4057 297.123 29.3786 296.796 27.5771 295.839C28.7888 294.931 29.8583 293.814 30.7445 292.533Z" fill="black"/>
</g>
<path opacity="0.1" d="M64.8154 280.602C64.7333 280.425 64.6839 280.233 64.6702 280.035C64.6565 279.837 64.6786 279.639 64.7354 279.45C64.7922 279.262 64.8825 279.088 65.001 278.938C65.1196 278.788 65.2641 278.665 65.4262 278.576C65.62 278.468 65.8348 278.412 66.0525 278.413C66.4441 276.141 67.5062 274.071 69.0761 272.521C68.8223 271.442 68.727 270.327 68.7938 269.215L73.8708 268.284L68.9375 267.941C69.0269 267.435 69.1504 266.936 69.3072 266.449C69.1133 266.308 68.9559 266.114 68.8503 265.887C68.7268 265.617 68.6801 265.313 68.7162 265.013C68.7522 264.713 68.8694 264.432 69.0526 264.206C69.2358 263.98 69.4767 263.819 69.7444 263.743C70.012 263.668 70.2942 263.682 70.5546 263.783C71.4612 262.373 72.6728 261.229 74.0813 260.455C75.7403 259.535 77.6069 259.157 79.4573 259.367C81.3078 259.577 83.0635 260.366 84.514 261.64C85.9644 262.914 87.0482 264.617 87.6352 266.547C88.2222 268.477 88.2876 270.551 87.8236 272.521C88.0649 272.634 88.2717 272.82 88.4198 273.057C88.5679 273.294 88.6511 273.572 88.6597 273.859C88.6683 274.146 88.602 274.429 88.4684 274.676C88.3349 274.923 88.1397 275.124 87.9057 275.254C87.7303 275.351 87.5379 275.406 87.3414 275.416C87.1449 275.426 86.9488 275.39 86.7661 275.31C86.2707 276.218 85.6528 277.039 84.9334 277.746C85.4596 279.984 85.3028 282.348 84.4868 284.48L77.6952 282.527L83.7681 286.023C82.8564 287.614 81.5741 288.911 80.0527 289.781C78.5314 290.651 76.8257 291.064 75.1105 290.976C73.3954 290.888 71.7325 290.303 70.2923 289.281C68.8521 288.259 67.6865 286.836 66.915 285.159C66.3778 283.992 66.0403 282.727 65.9191 281.427C65.686 281.404 65.4622 281.316 65.269 281.172C65.0758 281.027 64.9196 280.831 64.8154 280.602V280.602Z" fill="#FBC02D"/>
<path opacity="0.1" d="M64.8154 280.602C64.7333 280.425 64.6839 280.233 64.6702 280.035C64.6565 279.837 64.6786 279.639 64.7354 279.45C64.7922 279.262 64.8825 279.088 65.001 278.938C65.1196 278.788 65.2641 278.665 65.4262 278.576C65.62 278.468 65.8348 278.412 66.0525 278.413C66.4441 276.141 67.5062 274.071 69.0761 272.521C69.0351 272.347 68.9991 272.167 68.9683 271.993C69.1525 272.137 69.3243 272.298 69.4817 272.476C70.4006 273.598 70.8729 275.052 71.7764 276.163C72.9084 277.44 74.4304 278.217 76.0525 278.346C77.6593 278.467 79.2736 278.325 80.8421 277.925C82.1356 277.561 83.4701 277.4 84.8051 277.448L85.185 277.504L84.9488 277.746C85.475 279.984 85.3182 282.348 84.5022 284.48L77.6952 282.527L83.7681 286.023C82.8564 287.614 81.5741 288.911 80.0527 289.781C78.5314 290.651 76.8257 291.064 75.1105 290.976C73.3954 290.888 71.7325 290.303 70.2923 289.281C68.8521 288.258 67.6865 286.836 66.915 285.159C66.3778 283.992 66.0403 282.727 65.9191 281.427C65.686 281.404 65.4622 281.316 65.269 281.172C65.0758 281.027 64.9196 280.831 64.8154 280.602V280.602Z" fill="black"/>
</g>
<path opacity="0.1" d="M177.798 29.1321C175.769 28.7109 173.67 28.961 171.771 29.8504C170.632 30.4053 169.399 30.6921 168.152 30.6921C166.905 30.6921 165.672 30.4053 164.533 29.8504C163.187 29.2053 161.729 28.8877 160.259 28.9197C158.789 28.9517 157.344 29.3324 156.022 30.0356C155.267 30.4715 154.427 30.7006 153.573 30.7035C150.124 30.7035 147.254 26.9041 146.658 21.8925C147.346 21.3414 147.932 20.6519 148.383 19.861C150.406 16.2973 153.517 14.0076 157.054 14.0076C160.591 14.0076 163.671 16.2524 165.693 19.7936C166.298 20.8571 167.142 21.7327 168.145 22.3362C169.149 22.9396 170.277 23.2507 171.422 23.2394H171.515C174.235 23.2226 176.612 25.6302 177.798 29.1321Z" fill="#FBC02D"/>
<path opacity="0.1" d="M188.28 13.4184L182.705 17.2851L186.088 10.5506C185.129 9.71493 183.942 9.25282 182.716 9.23743H182.628C182.242 9.2426 181.855 9.21067 181.473 9.14202L179.579 10.4552L180.39 8.84458C179.055 8.33674 177.899 7.38498 177.084 6.12274L173.691 8.44051L175.827 4.1922C173.85 1.59382 171.181 0 168.25 0C164.733 0 161.576 2.28971 159.574 5.85336C158.975 6.9178 158.129 7.79 157.122 8.38139C156.115 8.97279 154.982 9.26232 153.84 9.22059H153.671C149.79 9.22059 146.638 14.0301 146.638 19.9733C146.638 25.9164 149.79 30.7203 153.671 30.7203C154.524 30.7175 155.364 30.4883 156.119 30.0525C157.441 29.3487 158.887 28.9681 160.357 28.9371C161.827 28.9061 163.285 29.2254 164.631 29.8729C165.77 30.4261 167.003 30.7119 168.25 30.7119C169.496 30.7119 170.729 30.4261 171.869 29.8729C173.204 29.2392 174.648 28.9272 176.104 28.9582C177.559 28.9892 178.991 29.3624 180.303 30.0525C181.052 30.4767 181.883 30.6998 182.726 30.7035C186.612 30.7035 189.759 25.894 189.759 19.9564C189.772 17.6764 189.264 15.4289 188.28 13.4184V13.4184Z" fill="#FBC02D"/>
<path opacity="0.1" d="M61.7813 106.881C58.8825 106.282 55.8862 106.637 53.1725 107.903C51.544 108.692 49.7817 109.097 48.0004 109.093C46.219 109.088 44.4586 108.673 42.8337 107.875C40.911 106.953 38.8281 106.499 36.7291 106.545C34.6302 106.59 32.5654 107.134 30.6776 108.138C29.598 108.76 28.3969 109.088 27.1766 109.093C22.2485 109.093 18.1468 103.666 17.2947 96.5047C18.2794 95.7203 19.1162 94.735 19.7587 93.6033C22.6489 88.5132 27.1253 85.2413 32.1509 85.2413C37.1766 85.2413 41.5965 88.4739 44.4713 93.5079C45.3352 95.0336 46.5458 96.2888 47.9852 97.1513C49.4245 98.0138 51.0436 98.4542 52.6848 98.4296H52.8132C56.7043 98.424 60.1027 101.864 61.7813 106.881Z" fill="#FBC02D"/>
<path opacity="0.1" d="M76.7709 84.4051L68.8037 89.9274L73.6395 80.3139C72.269 79.118 70.5726 78.4564 68.8191 78.4339H68.6908C68.1372 78.4428 67.5841 78.3977 67.0378 78.2992L64.3479 80.2017L65.508 77.9008C63.5938 77.1695 61.9405 75.7943 60.7853 73.9723L55.9495 77.3396L58.9937 71.2224C56.1651 67.5129 52.3561 65.24 48.1672 65.24C43.1415 65.24 38.6651 68.5062 35.775 73.5963C34.919 75.1237 33.7078 76.3757 32.2649 77.2245C30.822 78.0734 29.199 78.4887 27.5614 78.4283H27.2894C21.7401 78.4283 17.2432 85.3031 17.2432 93.7885C17.2432 102.274 21.7401 109.149 27.2894 109.149C28.5104 109.145 29.7122 108.816 30.7904 108.189C32.6785 107.186 34.7435 106.643 36.8424 106.598C38.9414 106.554 41.0241 107.008 42.9464 107.931C44.5713 108.729 46.3318 109.144 48.1131 109.149C49.8945 109.153 51.6567 108.748 53.2853 107.959C55.1934 107.053 57.2574 106.607 59.3371 106.651C61.4168 106.695 63.4636 107.227 65.3386 108.211C66.4066 108.822 67.5932 109.144 68.7986 109.149C74.3479 109.149 78.8448 102.268 78.8448 93.7885C78.8835 90.5201 78.1704 87.2936 76.7709 84.4051V84.4051Z" fill="#FBC02D"/>
<path opacity="0.1" d="M383.968 51.019C385.998 50.5981 388.096 50.8482 389.995 51.7373C391.133 52.2924 392.365 52.5793 393.611 52.5793C394.857 52.5793 396.09 52.2924 397.228 51.7373C398.574 51.0922 400.032 50.7746 401.502 50.8066C402.972 50.8386 404.417 51.2193 405.739 51.9225C406.494 52.3577 407.334 52.5868 408.188 52.5903C411.637 52.5903 414.512 48.791 415.108 43.7794C414.419 43.2297 413.833 42.5399 413.383 41.7479C411.37 38.173 408.224 35.8665 404.697 35.8665C401.17 35.8665 398.085 38.1113 396.062 41.6525C395.459 42.7207 394.614 43.6007 393.609 44.2072C392.603 44.8138 391.472 45.1265 390.323 45.1151H390.236C387.505 45.1095 385.123 47.5171 383.968 51.019Z" fill="#FBC02D"/>
<path opacity="0.1" d="M373.455 35.3054L379.03 39.1609L375.641 32.4264C376.601 31.5914 377.788 31.1294 379.014 31.1132H379.107C379.493 31.118 379.88 31.0861 380.262 31.0178L382.151 32.331L381.34 30.7203C382.684 30.221 383.851 29.2729 384.676 28.0097L388.059 30.3556L385.919 26.1072C387.9 23.5089 390.539 21.915 393.501 21.915C397.017 21.915 400.174 24.2048 402.176 27.7684C402.775 28.8332 403.621 29.7058 404.628 30.2972C405.635 30.8887 406.768 31.1779 407.91 31.1356H408.095C411.981 31.1356 415.128 35.9451 415.128 41.8883C415.128 47.8315 411.981 52.6354 408.095 52.6354C407.242 52.6312 406.402 52.4021 405.647 51.9675C404.325 51.2638 402.879 50.8831 401.409 50.8521C399.939 50.8211 398.481 51.1405 397.135 51.7879C395.997 52.341 394.765 52.6268 393.519 52.6268C392.273 52.6268 391.041 52.341 389.902 51.7879C388.566 51.1541 387.121 50.8421 385.665 50.873C384.208 50.904 382.775 51.2773 381.463 51.9675C380.714 52.3923 379.883 52.6155 379.04 52.6185C375.159 52.6185 372.007 47.809 372.007 41.8715C371.98 39.5849 372.477 37.3273 373.455 35.3054V35.3054Z" fill="#FBC02D"/>
<path opacity="0.1" d="M316.032 435.988C348.636 435.988 375.067 430.963 375.067 424.764C375.067 418.565 348.636 413.54 316.032 413.54C283.428 413.54 256.997 418.565 256.997 424.764C256.997 430.963 283.428 435.988 316.032 435.988Z" fill="#FBC02D"/>
<path d="M285.133 371.45L193.66 370.165L193.932 367.6L198.352 325.291H278.686L284.594 367.6L285.046 370.81L285.133 371.45Z" fill="#D0D2D5"/>
<path opacity="0.1" d="M285.046 370.81H239.399L193.66 370.165L193.932 367.6H284.594L285.046 370.81Z" fill="black"/>
<path d="M299.795 368.246H178.414V371.45H299.795V368.246Z" fill="#D0D2D5"/>
<path d="M415.601 71.1775C415.607 68.9662 414.811 66.8423 413.387 65.2723C411.962 63.7024 410.026 62.8147 408.003 62.8043H69.0297C68.0273 62.8095 67.0356 63.0304 66.1113 63.4546C65.1869 63.8787 64.3481 64.4977 63.6426 65.2763C62.9371 66.0549 62.3788 66.9777 61.9995 67.9922C61.6202 69.0066 61.4275 70.0928 61.4322 71.1887V295.811H415.601V71.1775Z" fill="#3F3D56"/>
<path d="M61.4324 293.566V319.875C61.4324 322.078 62.2328 324.191 63.6576 325.748C65.0824 327.306 67.0149 328.181 69.0299 328.181H408.003C410.018 328.181 411.951 327.306 413.375 325.748C414.8 324.191 415.601 322.078 415.601 319.875V293.566H61.4324Z" fill="#D0D2D5"/>
<path d="M402.7 76.8906H76.0933V278.818H402.7V76.8906Z" fill="white"/>
<path d="M240.277 318.197C241.476 318.199 242.66 317.902 243.739 317.329C244.818 316.756 245.763 315.923 246.504 314.892C246.729 314.578 246.935 314.248 247.12 313.904L242.772 313.101L247.469 313.135C247.919 312.064 248.165 310.904 248.191 309.726C248.216 308.547 248.021 307.376 247.618 306.283L241.319 309.852L247.13 305.183C246.585 304.157 245.852 303.265 244.977 302.563C244.103 301.86 243.106 301.361 242.048 301.097C240.99 300.834 239.893 300.81 238.827 301.03C237.76 301.249 236.746 301.705 235.847 302.371C234.949 303.036 234.185 303.897 233.604 304.899C233.023 305.9 232.636 307.022 232.468 308.194C232.3 309.366 232.354 310.564 232.627 311.712C232.9 312.86 233.386 313.935 234.055 314.869V314.869C234.793 315.904 235.737 316.741 236.815 317.318C237.893 317.894 239.077 318.195 240.277 318.197V318.197Z" fill="#FBC02D"/>
<path opacity="0.1" d="M248.193 328.175L284.687 368.245L279.086 328.175H248.193Z" fill="black"/>
<path opacity="0.1" d="M402.798 76.913H75.8369V88.7095H402.798V76.913Z" fill="#444053"/>
<path opacity="0.3" d="M287.572 78.9672H189.656C189.491 78.9672 189.358 79.1129 189.358 79.2927V85.8195C189.358 85.9992 189.491 86.145 189.656 86.145H287.572C287.736 86.145 287.869 85.9992 287.869 85.8195V79.2927C287.869 79.1129 287.736 78.9672 287.572 78.9672Z" fill="#FBC02D"/>
<path d="M284.944 83.2995H284.702L284.615 83.2153C284.914 82.8229 285.077 82.3284 285.077 81.8179C285.074 81.3988 284.958 80.9901 284.742 80.6434C284.527 80.2966 284.223 80.0274 283.867 79.8695C283.512 79.7117 283.122 79.6724 282.747 79.7566C282.371 79.8408 282.027 80.0448 281.757 80.3427C281.488 80.6405 281.305 81.0191 281.232 81.4305C281.159 81.8419 281.199 82.2677 281.347 82.6543C281.495 83.0408 281.745 83.3708 282.064 83.6024C282.383 83.8341 282.758 83.9572 283.142 83.9561C283.609 83.9543 284.062 83.7736 284.42 83.4454L284.507 83.5296V83.7933L286.011 85.4377L286.458 84.9438L284.944 83.2995ZM283.142 83.2995C282.874 83.3006 282.611 83.2147 282.387 83.0525C282.164 82.8904 281.989 82.6594 281.886 82.3888C281.783 82.1182 281.755 81.8201 281.807 81.5323C281.859 81.2445 281.987 80.98 282.177 80.7723C282.366 80.5645 282.607 80.4228 282.87 80.3652C283.133 80.3076 283.406 80.3366 283.654 80.4486C283.902 80.5605 284.114 80.7504 284.263 80.9942C284.412 81.238 284.492 81.5246 284.492 81.8179C284.493 82.0124 284.459 82.2053 284.392 82.3853C284.325 82.5654 284.225 82.7291 284.1 82.8669C283.974 83.0047 283.825 83.1139 283.66 83.1881C283.496 83.2624 283.32 83.3002 283.142 83.2995V83.2995Z" fill="#3F3D56"/>
<path opacity="0.8" d="M81.7144 84.972C82.8059 84.972 83.6908 84.0047 83.6908 82.8114C83.6908 81.6181 82.8059 80.6508 81.7144 80.6508C80.6229 80.6508 79.738 81.6181 79.738 82.8114C79.738 84.0047 80.6229 84.972 81.7144 84.972Z" fill="#FA5959"/>
<path opacity="0.8" d="M87.1512 84.972C88.2427 84.972 89.1276 84.0047 89.1276 82.8114C89.1276 81.6181 88.2427 80.6508 87.1512 80.6508C86.0597 80.6508 85.1748 81.6181 85.1748 82.8114C85.1748 84.0047 86.0597 84.972 87.1512 84.972Z" fill="#FED253"/>
<path opacity="0.8" d="M92.5924 84.972C93.6839 84.972 94.5687 84.0047 94.5687 82.8114C94.5687 81.6181 93.6839 80.6508 92.5924 80.6508C91.5008 80.6508 90.616 81.6181 90.616 82.8114C90.616 84.0047 91.5008 84.972 92.5924 84.972Z" fill="#8CCF4D"/>
<path d="M256.699 163.535C252.218 157.025 245.724 152.917 238.496 152.917C231.268 152.917 224.774 157.025 220.292 163.535C221.283 166.192 222.749 168.605 224.605 170.634C226.897 173.14 229.722 174.986 232.825 176.009C235.929 177.031 239.216 177.199 242.394 176.496C245.571 175.793 248.54 174.242 251.036 171.981C253.532 169.719 255.477 166.818 256.699 163.535V163.535Z" fill="#FBC02D"/>
<path d="M217.022 166.784C217.304 167.007 217.607 167.195 217.926 167.345C221.365 174.95 228.491 180.769 236.668 181.258V217.315C230.482 216.911 225.528 213.504 221.365 208.19C221.006 208.487 220.739 208.757 220.493 209.009C220.147 209.367 219.905 209.828 219.799 210.336C219.692 210.843 219.724 211.373 219.892 211.86C220.118 212.531 220.176 213.255 220.062 213.959C219.947 214.663 219.663 215.32 219.239 215.864C218.816 216.409 218.267 216.82 217.65 217.056C217.033 217.292 216.369 217.344 215.728 217.207C215.086 217.07 214.489 216.749 213.998 216.277C213.507 215.805 213.14 215.199 212.934 214.52C212.729 213.842 212.692 213.116 212.827 212.417C212.963 211.717 213.266 211.07 213.706 210.541C213.838 210.382 213.983 210.236 214.137 210.104C214.226 210.015 214.324 209.937 214.43 209.873C214.995 207.64 216.334 205.625 218.511 203.779C216.061 199.202 214.563 194.092 214.122 188.811C213.804 188.815 213.487 188.837 213.172 188.879C212.744 188.942 212.34 189.132 212.004 189.429C211.668 189.726 211.414 190.118 211.268 190.562C211.031 191.252 210.626 191.857 210.096 192.313C209.567 192.768 208.934 193.057 208.266 193.147C207.597 193.238 206.919 193.126 206.304 192.825C205.689 192.524 205.162 192.045 204.778 191.44C204.395 190.834 204.17 190.126 204.129 189.391C204.087 188.656 204.231 187.922 204.543 187.27C204.856 186.618 205.326 186.071 205.902 185.69C206.479 185.309 207.139 185.108 207.813 185.108C207.962 185.11 208.111 185.122 208.259 185.141C208.811 184.707 209.423 184.374 210.072 184.154C211.339 183.72 212.656 183.488 213.983 183.463C214.114 179.719 214.761 176.019 215.903 172.486C215.074 171.971 214.292 171.369 213.567 170.69C212.862 170.001 212.283 169.17 211.863 168.243C211.641 167.775 211.301 167.385 210.883 167.121C210.561 166.909 210.267 166.651 210.01 166.352C209.554 165.814 209.24 165.15 209.104 164.432C208.967 163.714 209.012 162.969 209.235 162.277C209.457 161.584 209.848 160.972 210.366 160.505C210.883 160.038 211.507 159.734 212.171 159.626C212.835 159.518 213.513 159.611 214.132 159.893C214.751 160.176 215.288 160.638 215.685 161.23C216.082 161.821 216.323 162.52 216.383 163.251C216.444 163.981 216.32 164.716 216.026 165.376C216.256 165.922 216.597 166.403 217.022 166.784Z" fill="#FBC02D"/>
<path d="M349.589 418.221C349.291 417.704 348.914 417.246 348.475 416.868C346.232 414.55 345.19 411.15 344.636 407.816C344.081 404.482 343.922 401.082 343.034 397.821C342.551 396.149 341.947 394.522 341.227 392.955C340.714 391.754 340.067 389.403 339.127 388.561C338.943 388.387 338.72 388.269 338.48 388.219C338.037 387.188 337.404 386.267 336.622 385.514C335.154 384.06 333.362 382.904 332.382 381.024C332.112 380.372 331.78 379.753 331.391 379.178C330.729 378.381 329.682 378.055 329.071 377.214C328.275 376.125 328.455 374.565 328.557 373.178C328.66 371.792 328.557 370.131 327.459 369.402C326.802 368.958 325.955 369.003 325.272 368.61C324.245 368.049 323.84 366.635 323.86 365.372C323.881 364.109 324.24 362.88 324.333 361.618C324.62 357.599 322.197 353.604 323.131 349.709C323.486 348.233 324.297 346.953 324.897 345.578C325.107 345.121 325.279 344.644 325.411 344.153C327.012 344.847 328.696 345.291 330.411 345.472C327.582 338.535 328.301 330.476 326.982 323.024L327.151 322.771C328.483 320.85 329.24 318.525 329.317 316.115C329.317 313.343 328.131 310.75 327.598 308.034C327.141 305.727 327.161 303.314 326.571 301.047C326.161 299.638 325.618 298.28 324.949 296.995C324.309 295.697 323.636 294.419 322.931 293.162C322.274 290.782 321.615 288.403 320.955 286.023C320.031 282.684 319.081 279.289 317.284 276.404C316.627 275.349 316.427 273.206 315.416 272.566C314.595 272.101 313.663 271.923 312.746 272.055C311.319 271.18 310.067 269.917 309.887 268.188C309.869 267.811 309.904 267.432 309.99 267.066H310.164C312.423 266.841 313.568 264.664 314.743 262.756C316.643 259.669 315.919 255.494 314.743 251.981C314.452 250.872 313.924 249.855 313.203 249.012C311.555 247.328 308.948 247.699 306.822 246.885C306.109 246.616 305.441 246.206 304.713 246.015C303.301 245.656 301.822 246.161 300.529 246.874C299.235 247.587 298.029 248.507 296.674 249.068C295.318 249.629 293.645 250.073 293.311 251.594C293.218 252.106 293.257 252.636 293.424 253.126C293.736 254.101 294.284 254.967 295.01 255.629C294.433 256.929 294.121 258.351 294.095 259.797C294.07 261.242 294.331 262.676 294.862 264C295.392 265.324 296.179 266.507 297.168 267.466C298.157 268.426 299.325 269.139 300.59 269.558C300.981 270.242 301.345 270.938 301.679 271.651C302.274 272.908 302.777 274.39 302.572 275.737C302.201 276.168 301.857 276.627 301.545 277.111C300.072 279.356 299.235 281.988 298.465 284.615C297.431 287.968 296.602 291.394 295.986 294.868C294.733 297.781 293.203 300.564 292.295 303.623C290.668 303.625 289.048 303.387 287.479 302.916L283.147 301.844C281.638 301.468 280.067 301.064 278.886 299.975C278.26 299.414 277.772 298.667 277.136 298.112C276.499 297.556 275.221 296.905 274.523 297.365C274.395 297.45 274.276 297.55 274.168 297.663C273.532 296.254 272.926 294.857 272.187 293.493C271.124 291.585 269.543 289.84 267.541 289.475C266.318 289.26 265.066 289.578 264.056 290.362C262.885 291.271 262.151 293.168 263.029 294.447C263.248 294.732 263.487 294.998 263.742 295.244C264.337 295.992 264.868 296.798 265.329 297.652C266.983 300.191 269.459 301.948 272.254 302.568L272.074 303.129C271.71 304.296 270.934 305.705 271.129 306.917L290.4 314.129C291.637 314.677 292.949 314.994 294.281 315.066C294.801 315.061 295.319 314.986 295.821 314.841V315.919V315.964C295.873 323.366 294.795 330.718 294.594 338.114C294.559 339.467 294.594 340.92 295.375 341.976C296.247 343.132 297.798 343.362 299.148 343.098C299.473 343.038 299.791 342.96 300.103 342.862C300.559 344.724 300.889 346.621 301.088 348.536L302.361 358.559C302.525 359.585 302.592 360.627 302.562 361.668C302.413 364.02 301.278 366.124 300.457 368.296C299.636 370.468 299.148 373.066 300.226 375.098C300.565 375.726 301.032 376.259 301.335 376.91C301.72 377.918 301.895 379.007 301.848 380.098C301.927 383.121 302.002 386.148 302.074 389.178C301.85 389.138 301.62 389.188 301.427 389.319C300.359 390.228 300.477 394.555 300.4 395.896C300.318 398.141 300.4 400.431 300.287 402.698C300.154 405.753 299.705 408.783 298.948 411.728C298.763 412.685 298.358 413.575 297.772 414.315C297.172 414.886 296.455 415.292 295.683 415.499C293.125 416.375 290.451 416.773 287.772 416.677C286.689 416.638 285.56 416.526 284.553 416.975C283.547 417.424 282.736 418.658 283.101 419.781C283.414 420.724 284.363 421.173 285.221 421.526C287.179 422.28 289.07 423.231 290.868 424.366C291.56 424.881 292.289 425.334 293.049 425.718C293.778 426.004 294.531 426.208 295.298 426.325L304.399 428.042C306.263 428.39 308.506 428.603 309.692 426.919C310.334 426.01 310.426 424.776 310.395 423.62C310.344 421.375 309.933 419.091 310.2 416.846C310.403 415.519 310.723 414.216 311.155 412.957C312.062 410.012 312.972 407.07 313.886 404.129C314.8 401.177 315.724 398.197 316.078 395.099C316.206 393.977 316.196 392.697 315.411 391.996C315.212 391.818 314.981 391.687 314.733 391.614C314.702 388.909 314.379 386.198 314.517 383.493C314.553 382.82 314.615 382.147 314.666 381.467C315.142 381.962 315.567 382.511 315.934 383.106C316.812 384.61 317.136 386.597 318.475 387.596C319.615 388.449 321.304 388.404 322.105 389.639C322.362 390.113 322.556 390.625 322.68 391.159C323.144 392.483 323.842 393.693 324.733 394.723C325.039 395.955 325.464 397.148 326.001 398.281C326.757 400.028 327.51 401.77 328.26 403.506C329.03 405.38 329.887 407.21 330.826 408.989C331.544 410.109 332.122 411.328 332.546 412.614C333.27 415.387 332.089 418.428 330.221 420.471C328.352 422.514 325.888 423.687 323.46 424.781C323.204 424.876 322.97 425.029 322.772 425.23C322.562 425.503 322.45 425.85 322.459 426.207C322.459 427.503 323.434 428.614 324.553 429.013C325.697 429.349 326.896 429.397 328.06 429.153C334.62 428.283 341.16 426.532 346.961 423.047C347.829 422.598 348.597 421.949 349.215 421.145C349.513 420.74 349.705 420.254 349.771 419.739C349.837 419.224 349.774 418.7 349.589 418.221V418.221Z" fill="url(#paint0_linear)"/>
<path d="M321.863 292.371C322.959 294.208 323.985 296.09 324.944 298.016C325.615 299.291 326.16 300.64 326.571 302.04C327.166 304.285 327.151 306.681 327.598 308.971C328.111 311.665 329.312 314.235 329.312 316.996C329.234 319.389 328.477 321.695 327.146 323.596C325.819 325.481 324.3 327.194 322.618 328.703C318.742 317.724 316.576 306.113 316.212 294.352C316.16 292.724 316.15 291.046 316.694 289.525C317.028 288.571 318.629 285.956 319.661 286.983C320.036 287.359 320.133 289.054 320.364 289.621C320.797 290.579 321.298 291.499 321.863 292.371V292.371Z" fill="#2F2E41"/>
<path opacity="0.1" d="M321.863 292.371C322.959 294.208 323.985 296.09 324.944 298.016C325.615 299.291 326.16 300.64 326.571 302.04C327.166 304.285 327.151 306.681 327.598 308.971C328.111 311.665 329.312 314.235 329.312 316.996C329.234 319.389 328.477 321.695 327.146 323.596C325.819 325.481 324.3 327.194 322.618 328.703C318.742 317.724 316.576 306.113 316.212 294.352C316.16 292.724 316.15 291.046 316.694 289.525C317.028 288.571 318.629 285.956 319.661 286.983C320.036 287.359 320.133 289.054 320.364 289.621C320.797 290.579 321.298 291.499 321.863 292.371V292.371Z" fill="black"/>
<path d="M186.525 215.806C182.464 220.239 181.976 222.192 179.538 223.073C177.1 223.954 168.327 228.921 171.083 234.426L178.496 239.78L178.712 239.937L179.846 243.664L168.635 265.483C168.635 265.483 150.154 256.246 148.342 269.911C146.53 283.577 147.68 287.309 147.192 294.604C146.704 301.9 147.351 304.01 145.724 304.01C144.097 304.01 143.455 299.217 143.455 299.217C143.455 299.217 143.352 298.998 143.173 298.589C140.755 293.095 124.343 252.761 150.632 225.037C150.632 225.037 162.808 224.162 165.739 208.897C167.762 198.346 174.836 199.256 179.538 201.405C181.066 202.06 182.49 202.975 183.758 204.116C184.898 205.296 185.913 206.614 186.781 208.044C188.121 210.356 188.85 213.258 186.525 215.806Z" fill="#D0D2D5"/>
<path opacity="0.1" d="M178.711 239.937L179.846 243.664L168.634 265.483C168.634 265.483 150.154 256.246 148.342 269.911C146.53 283.576 147.68 287.308 147.192 294.604C146.704 301.9 147.351 304.01 145.724 304.01C144.096 304.01 143.455 299.217 143.455 299.217C143.455 299.217 143.352 298.998 143.172 298.589C142.356 291.764 138.219 251.846 153.219 253.967C153.219 253.967 165.39 260.185 167.336 257.705C168.876 255.741 175.714 244.444 178.496 239.808L178.711 239.937Z" fill="black"/>
<path opacity="0.1" d="M186.781 208.01L179.368 217.22C179.368 217.22 170.76 229.813 168.973 229.28C168.438 229.152 167.893 229.083 167.346 229.072C166.75 229.022 166.179 228.789 165.7 228.399C165.22 228.009 164.851 227.478 164.637 226.868C164.422 226.259 164.369 225.595 164.485 224.954C164.601 224.313 164.881 223.721 165.292 223.247C168.229 219.88 173.639 213.488 173.994 212.068C174.348 210.648 177.792 204.424 179.517 201.377C181.045 202.032 182.47 202.947 183.737 204.087C184.884 205.265 185.905 206.581 186.781 208.01V208.01Z" fill="black"/>
<path d="M396.514 340.505C395.257 343.255 388.814 353.57 385.996 358.077L384.676 360.198C384.676 360.198 384.163 363.924 375.749 359.306C367.336 354.687 169.651 263.497 169.651 263.497L168.311 259.097L178.065 243.131L394.733 334.646C394.733 334.646 398.142 336.953 396.514 340.505Z" fill="#454B69"/>
<path opacity="0.1" d="M385.996 358.076L384.677 360.198C384.677 360.198 384.163 363.924 375.749 359.305C367.336 354.687 169.651 263.497 169.651 263.497L168.311 259.097L385.996 358.076Z" fill="black"/>
<path d="M266.755 298.51C264.748 298.151 262.52 298.325 260.96 299.75C260.017 300.624 259.42 301.863 259.297 303.207C259.163 304.762 259.99 306.608 261.417 306.726C261.76 306.73 262.103 306.706 262.443 306.653C263.345 306.649 264.245 306.732 265.133 306.9C266.882 307.08 268.644 306.799 270.272 306.08C271.901 305.361 273.348 304.226 274.492 302.77C275.719 301.086 274.101 300.357 272.654 300.02C270.672 299.56 268.737 298.858 266.755 298.51Z" fill="#FBBEBE"/>
<path d="M301.088 349.192L302.361 359.081C302.523 360.102 302.589 361.138 302.556 362.173C302.407 364.502 301.273 366.59 300.457 368.745C299.64 370.9 299.142 373.481 300.226 375.479C300.559 376.102 301.026 376.635 301.329 377.281C301.714 378.279 301.89 379.358 301.843 380.44L302.192 394.47C306.154 394.766 310.132 394.742 314.091 394.397C314.246 394.406 314.399 394.354 314.522 394.252C314.627 394.107 314.68 393.925 314.671 393.741C314.846 390.458 314.322 387.169 314.492 383.886C314.553 382.685 314.707 381.49 314.728 380.283C314.789 375.395 312.582 370.608 313.249 365.776C313.459 364.557 313.733 363.352 314.071 362.168C316.18 353.749 315.734 344.905 315.267 336.212C315.275 336.072 315.238 335.933 315.164 335.819C315.088 335.736 314.992 335.679 314.887 335.656C312.641 334.92 310.266 334.785 307.962 335.263C305.659 335.742 303.495 336.82 301.653 338.406C301.093 338.9 299.681 339.377 299.312 339.966C298.799 340.786 299.471 341.605 299.769 342.475C300.428 344.656 300.871 346.908 301.088 349.192V349.192Z" fill="#3F3D56"/>
<path opacity="0.1" d="M301.088 349.192L302.361 359.081C302.523 360.102 302.589 361.138 302.556 362.173C302.407 364.502 301.273 366.59 300.457 368.745C299.64 370.9 299.142 373.481 300.226 375.479C300.559 376.102 301.026 376.635 301.329 377.281C301.714 378.279 301.89 379.358 301.843 380.44L302.192 394.47C306.154 394.766 310.132 394.742 314.091 394.397C314.246 394.406 314.399 394.354 314.522 394.252C314.627 394.107 314.68 393.925 314.671 393.741C314.846 390.458 314.322 387.169 314.492 383.886C314.553 382.685 314.707 381.49 314.728 380.283C314.789 375.395 312.582 370.608 313.249 365.776C313.459 364.557 313.733 363.352 314.071 362.168C316.18 353.749 315.734 344.905 315.267 336.212C315.275 336.072 315.238 335.933 315.164 335.819C315.088 335.736 314.992 335.679 314.887 335.656C312.641 334.92 310.266 334.785 307.962 335.263C305.659 335.742 303.495 336.82 301.653 338.406C301.093 338.9 299.681 339.377 299.312 339.966C298.799 340.786 299.471 341.605 299.769 342.475C300.428 344.656 300.871 346.908 301.088 349.192V349.192Z" fill="black"/>
<path d="M324.892 346.213C324.292 347.576 323.486 348.845 323.126 350.309C322.192 354.176 324.61 358.166 324.323 362.128C324.23 363.38 323.876 364.598 323.85 365.849C323.825 367.101 324.246 368.492 325.262 369.07C325.945 369.452 326.802 369.413 327.444 369.851C328.527 370.574 328.65 372.219 328.542 373.599C328.435 374.98 328.255 376.523 329.056 377.601C329.667 378.437 330.714 378.762 331.371 379.554C331.762 380.122 332.094 380.735 332.362 381.383C333.342 383.258 335.134 384.403 336.602 385.873C338.07 387.343 339.312 389.498 338.655 391.535C338.173 393.028 336.817 393.949 335.514 394.65C333.135 395.936 330.624 396.906 328.034 397.54C327.756 397.632 327.462 397.65 327.177 397.591C326.888 397.475 326.63 397.282 326.427 397.03C324.913 395.408 323.347 393.707 322.649 391.524C322.525 390.995 322.331 390.489 322.074 390.02C321.273 388.791 319.584 388.836 318.445 387.989C317.11 386.995 316.787 385.025 315.914 383.538C315.041 382.051 313.763 381.164 312.834 379.857C311.263 377.679 310.878 374.772 309.754 372.286C309.276 371.231 308.666 370.243 308.286 369.143C307.902 367.825 307.666 366.461 307.582 365.08C306.859 358.525 305.016 351.926 306.176 345.438C306.433 344.013 306.828 342.632 306.992 341.162C307.274 338.62 306.828 336.016 307.172 333.479C307.18 333.16 307.254 332.848 307.388 332.565C307.523 332.283 307.714 332.037 307.947 331.846C308.224 331.71 308.526 331.643 308.83 331.649C311.873 331.472 314.924 331.547 317.957 331.874C319.497 332.037 321.222 332.379 322.146 333.754C322.931 334.932 322.89 336.509 323.142 337.94C323.455 339.703 324.271 340.662 325.129 342.043C325.986 343.423 325.524 344.787 324.892 346.213Z" fill="#3F3D56"/>
<path d="M313.049 391.816C313.86 391.816 314.759 391.76 315.385 392.321C316.165 393.023 316.176 394.308 316.052 395.402C315.693 398.478 314.774 401.435 313.855 404.381L311.124 413.142C310.692 414.392 310.372 415.685 310.169 417.003C309.902 419.248 310.313 421.493 310.364 423.737C310.364 424.86 310.298 426.106 309.656 427.009C308.496 428.642 306.232 428.451 304.369 428.132L295.277 426.448C294.51 426.336 293.756 426.135 293.029 425.847C292.27 425.465 291.54 425.016 290.847 424.506C289.048 423.382 287.158 422.443 285.2 421.7C284.348 421.352 283.393 420.909 283.085 419.972C282.721 418.849 283.532 417.615 284.538 417.166C285.544 416.717 286.668 416.829 287.757 416.863C290.433 416.956 293.104 416.561 295.662 415.695C296.433 415.489 297.147 415.085 297.746 414.517C298.355 413.769 298.77 412.856 298.948 411.873C299.722 408.949 300.184 405.935 300.323 402.894C300.431 400.649 300.359 398.405 300.441 396.16C300.493 394.83 300.375 390.548 301.442 389.633C302.259 388.948 305.616 390.84 306.72 391.115C308.795 391.634 310.921 391.87 313.049 391.816V391.816Z" fill="#2F2E41"/>
<path d="M342.998 398.057C343.886 401.272 344.025 404.673 344.6 407.979C345.175 411.284 346.191 414.657 348.434 416.958C348.871 417.337 349.247 417.792 349.548 418.305C349.738 418.785 349.802 419.314 349.734 419.832C349.666 420.35 349.469 420.837 349.163 421.24C348.544 422.038 347.775 422.683 346.91 423.131C341.114 426.588 334.589 428.334 328.013 429.198C326.851 429.436 325.655 429.388 324.512 429.058C323.393 428.642 322.403 427.542 322.423 426.252C322.412 425.897 322.522 425.551 322.731 425.281C322.931 425.081 323.167 424.93 323.424 424.837C325.847 423.749 328.306 422.564 330.18 420.555C332.054 418.546 333.229 415.504 332.505 412.777C332.077 411.5 331.495 410.29 330.775 409.18C329.837 407.415 328.98 405.6 328.209 403.742L325.95 398.562C325.288 397.046 324.62 395.486 324.507 393.814C327.345 393.953 330.178 393.456 332.834 392.355C334.073 391.802 335.228 391.045 336.258 390.11C337.131 389.313 337.926 387.826 339.102 388.864C340.046 389.695 340.642 392.035 341.196 393.219C341.916 394.775 342.519 396.393 342.998 398.057Z" fill="#2F2E41"/>
<path d="M309.897 269.434C310.123 271.589 312.033 273.009 313.855 273.862L302.32 277.886C303.065 276.326 302.464 274.418 301.725 272.835C301.123 271.582 300.437 270.38 299.672 269.238C299.559 269.064 299.43 268.845 299.512 268.643C299.586 268.511 299.701 268.413 299.836 268.368C302.207 267.212 304.651 266.016 307.243 265.596C307.993 265.478 309.41 265.152 309.969 265.983C310.529 266.813 309.79 268.441 309.897 269.434Z" fill="#FBBEBE"/>
<path opacity="0.1" d="M309.897 269.434C310.123 271.589 312.033 273.009 313.855 273.862L302.32 277.886C303.065 276.326 302.464 274.418 301.725 272.835C301.123 271.582 300.437 270.38 299.672 269.238C299.559 269.064 299.43 268.845 299.512 268.643C299.586 268.511 299.701 268.413 299.836 268.368C302.207 267.212 304.651 266.016 307.243 265.596C307.993 265.478 309.41 265.152 309.969 265.983C310.529 266.813 309.79 268.441 309.897 269.434Z" fill="black"/>
<path d="M303.193 271.18C308.189 271.18 312.238 266.752 312.238 261.291C312.238 255.83 308.189 251.403 303.193 251.403C298.198 251.403 294.148 255.83 294.148 261.291C294.148 266.752 298.198 271.18 303.193 271.18Z" fill="#FBBEBE"/>
<path d="M295.354 342.666C296.232 343.816 297.777 344.041 299.127 343.788C302.284 343.227 304.866 340.685 307.957 339.77C311.745 338.648 315.754 340.09 319.332 341.858C322.91 343.625 326.468 345.786 330.38 346.089C326.843 337.469 328.865 327.098 325.482 318.405C324.656 316.278 323.501 314.23 323.316 311.929C323.085 309.072 324.389 306.317 324.589 303.477C324.774 300.946 324.076 298.426 323.408 296.013C322.584 293.05 321.759 290.087 320.934 287.123C320.01 283.807 319.06 280.434 317.269 277.583C316.607 276.533 316.406 274.407 315.4 273.772C313.203 272.386 309.872 274.132 307.49 274.227C305.108 274.322 302.936 276.174 301.545 278.268C300.072 280.479 299.235 283.111 298.465 285.715C297.239 289.592 296.323 293.579 295.729 297.629C295.652 298.235 295.585 298.841 295.534 299.453C295.02 305.217 295.77 311.014 295.811 316.805V316.845C295.862 324.191 294.784 331.492 294.584 338.833C294.564 340.174 294.594 341.639 295.354 342.666Z" fill="#2F2E41"/>
<path opacity="0.1" d="M295.826 316.811C297.597 316.323 299.199 315.071 300.575 313.702C301.766 312.536 302.825 311.217 303.727 309.774C304.863 307.833 305.775 305.746 306.442 303.561C308.343 297.717 309.551 291.631 310.036 285.451C310.169 283.767 310.21 281.96 309.292 280.625C308.776 279.901 308.051 279.39 307.235 279.174C306.42 278.958 305.561 279.05 304.8 279.435C303.588 280.08 302.803 281.388 302.074 282.639C300.631 285.12 299.179 287.634 298.249 290.395C297.839 291.619 297.536 292.876 297.135 294.105C296.728 295.317 296.259 296.503 295.729 297.657C295.652 298.263 295.585 298.869 295.534 299.481C295.056 305.245 295.785 311.019 295.826 316.811Z" fill="black"/>
<path d="M309.266 279.542C310.185 280.877 310.144 282.701 310.015 284.362C309.531 290.542 308.323 296.629 306.422 302.472C305.76 304.676 304.847 306.78 303.706 308.736C302.803 310.178 301.744 311.497 300.554 312.664C298.809 314.404 296.684 315.958 294.317 315.981C292.985 315.912 291.673 315.599 290.436 315.055L271.16 307.883C270.965 306.682 271.74 305.279 272.105 304.122L273.131 300.794C273.424 299.874 273.763 298.881 274.528 298.381C275.293 297.882 276.504 298.567 277.141 299.122C277.777 299.678 278.26 300.407 278.886 300.974C280.072 302.052 281.638 302.456 283.147 302.826L287.474 303.887C289.043 304.356 290.663 304.592 292.289 304.588C293.496 300.559 295.791 297.012 297.089 293.016C297.49 291.793 297.793 290.53 298.208 289.307C299.132 286.545 300.59 284.037 302.033 281.551C302.757 280.305 303.542 278.997 304.759 278.346C305.522 277.956 306.385 277.862 307.204 278.08C308.023 278.297 308.75 278.812 309.266 279.542V279.542Z" fill="#2F2E41"/>
<path d="M306.078 263.525C306.009 262.874 305.824 262.245 305.534 261.673C305.382 261.386 305.152 261.16 304.875 261.027C304.598 260.893 304.289 260.86 303.994 260.932C303.09 261.241 302.787 262.767 301.843 262.818C301.206 262.851 300.749 262.144 300.549 261.482C300.349 260.82 300.241 260.062 299.764 259.596C299.431 259.324 299.05 259.133 298.644 259.035C296.452 258.277 294.189 256.88 293.46 254.495C293.288 254.011 293.247 253.483 293.342 252.974C293.675 251.464 295.395 251.01 296.704 250.465C298.013 249.921 299.271 248.989 300.554 248.282C301.837 247.575 303.326 247.076 304.738 247.435C305.454 247.681 306.158 247.968 306.848 248.294C308.973 249.102 311.576 248.726 313.224 250.404C313.944 251.236 314.472 252.244 314.764 253.344C315.913 256.835 316.642 260.977 314.738 264.041C313.562 265.932 312.423 268.093 310.164 268.323C307.536 268.564 306.494 265.96 306.078 263.525Z" fill="#2F2E41"/>
<g opacity="0.1">
<path opacity="0.1" d="M302.064 260.292C301.864 259.63 301.756 258.872 301.284 258.407C300.951 258.135 300.57 257.944 300.164 257.845C297.967 257.088 295.709 255.69 294.975 253.305C294.807 252.82 294.768 252.293 294.862 251.784C294.912 251.545 295.004 251.318 295.134 251.117C294.297 251.515 293.568 252.043 293.363 252.974C293.268 253.483 293.309 254.011 293.481 254.495C294.21 256.88 296.473 258.277 298.665 259.035C299.071 259.133 299.452 259.325 299.785 259.596C300.262 260.062 300.365 260.814 300.57 261.482C300.775 262.15 301.227 262.851 301.864 262.818C302.5 262.784 302.808 262.15 303.214 261.617C302.654 261.538 302.249 260.91 302.064 260.292Z" fill="black"/>
<path opacity="0.1" d="M311.674 267.116C309.035 267.38 307.993 264.754 307.567 262.335C307.51 261.686 307.336 261.057 307.053 260.483C306.902 260.197 306.671 259.971 306.394 259.838C306.117 259.705 305.809 259.671 305.513 259.742C305.045 259.991 304.652 260.38 304.379 260.865C304.615 260.889 304.842 260.973 305.043 261.109C305.244 261.246 305.414 261.431 305.539 261.65C305.83 262.223 306.015 262.852 306.083 263.502C306.499 265.921 307.541 268.553 310.19 268.284C311.237 268.157 312.203 267.609 312.9 266.746C312.513 266.943 312.099 267.069 311.674 267.116V267.116Z" fill="black"/>
</g>
<path d="M417.408 371.512C426.562 371.512 433.983 369.951 433.983 368.026C433.983 366.102 426.562 364.541 417.408 364.541C408.253 364.541 400.832 366.102 400.832 368.026C400.832 369.951 408.253 371.512 417.408 371.512Z" fill="#FBC02D"/>
<path d="M417.13 369.306C418.196 369.306 419.061 368.07 419.061 366.545C419.061 365.02 418.196 363.784 417.13 363.784C416.064 363.784 415.2 365.02 415.2 366.545C415.2 368.07 416.064 369.306 417.13 369.306Z" fill="#3F3D56"/>
<path d="M417.13 365.928C418.196 365.928 419.061 364.692 419.061 363.167C419.061 361.642 418.196 360.406 417.13 360.406C416.064 360.406 415.2 361.642 415.2 363.167C415.2 364.692 416.064 365.928 417.13 365.928Z" fill="#3F3D56"/>
<path d="M417.13 362.555C418.196 362.555 419.061 361.319 419.061 359.794C419.061 358.269 418.196 357.033 417.13 357.033C416.064 357.033 415.2 358.269 415.2 359.794C415.2 361.319 416.064 362.555 417.13 362.555Z" fill="#3F3D56"/>
<path d="M417.13 359.176C418.196 359.176 419.061 357.94 419.061 356.415C419.061 354.89 418.196 353.654 417.13 353.654C416.064 353.654 415.2 354.89 415.2 356.415C415.2 357.94 416.064 359.176 417.13 359.176Z" fill="#3F3D56"/>
<path d="M417.13 355.798C418.196 355.798 419.061 354.562 419.061 353.037C419.061 351.512 418.196 350.276 417.13 350.276C416.064 350.276 415.2 351.512 415.2 353.037C415.2 354.562 416.064 355.798 417.13 355.798Z" fill="#3F3D56"/>
<path d="M417.13 352.425C418.196 352.425 419.061 351.189 419.061 349.664C419.061 348.139 418.196 346.903 417.13 346.903C416.064 346.903 415.2 348.139 415.2 349.664C415.2 351.189 416.064 352.425 417.13 352.425Z" fill="#3F3D56"/>
<path d="M417.13 349.047C418.196 349.047 419.061 347.81 419.061 346.286C419.061 344.761 418.196 343.524 417.13 343.524C416.064 343.524 415.2 344.761 415.2 346.286C415.2 347.81 416.064 349.047 417.13 349.047Z" fill="#3F3D56"/>
<path d="M424.353 323.203C424.617 322.836 424.857 322.45 425.072 322.047L420 321.138L425.488 321.177C426.012 319.925 426.297 318.569 426.327 317.192C426.357 315.816 426.131 314.447 425.662 313.169L418.301 317.344L425.087 311.889C424.45 310.691 423.595 309.648 422.574 308.827C421.553 308.006 420.388 307.423 419.152 307.115C417.916 306.806 416.635 306.78 415.39 307.036C414.144 307.292 412.959 307.826 411.91 308.604C410.861 309.382 409.97 310.387 409.291 311.558C408.613 312.729 408.162 314.04 407.967 315.409C407.772 316.778 407.837 318.177 408.157 319.518C408.478 320.859 409.048 322.113 409.831 323.203C409.418 323.773 409.064 324.39 408.773 325.044L415.359 328.787L408.337 326.211C407.846 327.801 407.726 329.5 407.987 331.154C408.248 332.808 408.881 334.365 409.831 335.684C408.76 337.175 408.094 338.964 407.909 340.849C407.725 342.733 408.029 344.636 408.787 346.341C409.545 348.045 410.726 349.482 412.195 350.487C413.665 351.493 415.363 352.026 417.097 352.026C418.831 352.026 420.529 351.493 421.999 350.487C423.468 349.482 424.649 348.045 425.407 346.341C426.165 344.636 426.469 342.733 426.285 340.849C426.1 338.964 425.434 337.175 424.363 335.684C425.646 333.903 426.344 331.702 426.344 329.435C426.344 327.168 425.646 324.967 424.363 323.186L424.353 323.203Z" fill="#FBC02D"/>
<path opacity="0.1" d="M407.839 329.432C407.838 331.702 408.54 333.906 409.83 335.684C408.76 337.175 408.094 338.964 407.909 340.849C407.725 342.733 408.029 344.636 408.786 346.341C409.544 348.045 410.726 349.482 412.195 350.488C413.665 351.493 415.363 352.026 417.097 352.026C418.83 352.026 420.529 351.493 421.999 350.488C423.468 349.482 424.649 348.045 425.407 346.341C426.165 344.636 426.469 342.733 426.285 340.849C426.1 338.964 425.434 337.175 424.363 335.684C425.59 333.961 407.839 328.299 407.839 329.432Z" fill="black"/>
<path d="M76.1912 441C89.3717 441 100.057 438.754 100.057 435.983C100.057 433.212 89.3717 430.966 76.1912 430.966C63.0106 430.966 52.3257 433.212 52.3257 435.983C52.3257 438.754 63.0106 441 76.1912 441Z" fill="#FBC02D"/>
<path d="M75.7904 437.829C77.3242 437.829 78.5676 436.048 78.5676 433.85C78.5676 431.653 77.3242 429.871 75.7904 429.871C74.2566 429.871 73.0132 431.653 73.0132 433.85C73.0132 436.048 74.2566 437.829 75.7904 437.829Z" fill="#3F3D56"/>
<path d="M75.7904 432.969C77.3242 432.969 78.5676 431.188 78.5676 428.99C78.5676 426.793 77.3242 425.011 75.7904 425.011C74.2566 425.011 73.0132 426.793 73.0132 428.99C73.0132 431.188 74.2566 432.969 75.7904 432.969Z" fill="#3F3D56"/>
<path d="M75.7904 428.109C77.3242 428.109 78.5676 426.328 78.5676 424.13C78.5676 421.933 77.3242 420.151 75.7904 420.151C74.2566 420.151 73.0132 421.933 73.0132 424.13C73.0132 426.328 74.2566 428.109 75.7904 428.109Z" fill="#3F3D56"/>
<path d="M75.7904 423.249C77.3242 423.249 78.5676 421.468 78.5676 419.27C78.5676 417.073 77.3242 415.291 75.7904 415.291C74.2566 415.291 73.0132 417.073 73.0132 419.27C73.0132 421.468 74.2566 423.249 75.7904 423.249Z" fill="#3F3D56"/>
<path d="M75.7904 418.389C77.3242 418.389 78.5676 416.608 78.5676 414.41C78.5676 412.213 77.3242 410.431 75.7904 410.431C74.2566 410.431 73.0132 412.213 73.0132 414.41C73.0132 416.608 74.2566 418.389 75.7904 418.389Z" fill="#3F3D56"/>
<path d="M75.7904 413.524C77.3242 413.524 78.5676 411.742 78.5676 409.545C78.5676 407.347 77.3242 405.566 75.7904 405.566C74.2566 405.566 73.0132 407.347 73.0132 409.545C73.0132 411.742 74.2566 413.524 75.7904 413.524Z" fill="#3F3D56"/>
<path d="M75.7904 408.663C77.3242 408.663 78.5676 406.882 78.5676 404.684C78.5676 402.487 77.3242 400.706 75.7904 400.706C74.2566 400.706 73.0132 402.487 73.0132 404.684C73.0132 406.882 74.2566 408.663 75.7904 408.663Z" fill="#3F3D56"/>
<path d="M86.1909 371.427C86.5668 370.892 86.9098 370.329 87.2176 369.744L79.9178 368.431L87.8131 368.498C88.5698 366.695 88.9824 364.743 89.0256 362.76C89.0689 360.777 88.7419 358.805 88.0646 356.965L77.4794 362.992L87.233 355.136C86.3196 353.403 85.0895 351.895 83.6193 350.705C82.1491 349.516 80.4704 348.67 78.688 348.221C76.9055 347.773 75.0576 347.73 73.2595 348.097C71.4614 348.463 69.7518 349.231 68.2372 350.352C66.7226 351.474 65.4357 352.924 64.4566 354.613C63.4775 356.302 62.8274 358.193 62.5468 360.169C62.2661 362.145 62.361 364.163 62.8255 366.097C63.29 368.031 64.1141 369.84 65.2464 371.411C64.6468 372.23 64.1304 373.118 63.7063 374.059L73.1878 379.447L63.08 375.737C62.3716 378.037 62.2006 380.494 62.5825 382.885C62.9645 385.276 63.8873 387.524 65.2669 389.425C63.7224 391.572 62.7615 394.15 62.4942 396.865C62.2269 399.58 62.6639 402.323 63.7553 404.78C64.8467 407.236 66.5483 409.308 68.6657 410.757C70.7831 412.206 73.2308 412.974 75.7289 412.974C78.227 412.974 80.6747 412.206 82.7921 410.757C84.9095 409.308 86.6111 407.236 87.7025 404.78C88.7938 402.323 89.2308 399.58 88.9635 396.865C88.6962 394.15 87.7354 391.572 86.1909 389.425C88.0369 386.861 89.0406 383.692 89.0406 380.429C89.0406 377.166 88.0369 373.997 86.1909 371.433V371.427Z" fill="#FBC02D"/>
<path opacity="0.1" d="M62.4177 380.446C62.4182 383.704 63.4218 386.867 65.2668 389.425C63.7223 391.572 62.7615 394.15 62.4942 396.865C62.2268 399.581 62.6639 402.323 63.7552 404.78C64.8466 407.236 66.5483 409.308 68.6657 410.757C70.7831 412.206 73.2307 412.974 75.7288 412.974C78.2269 412.974 80.6746 412.206 82.792 410.757C84.9094 409.308 86.611 407.236 87.7024 404.78C88.7938 402.323 89.2308 399.581 88.9635 396.865C88.6961 394.15 87.7353 391.572 86.1908 389.425C87.9619 386.945 62.4177 378.79 62.4177 380.446Z" fill="black"/>
</g>
<defs>
<linearGradient id="paint0_linear" x1="308.974" y1="430.077" x2="300.856" y2="245.991" gradientUnits="userSpaceOnUse">
<stop stop-color="#808080" stop-opacity="0.25"/>
<stop offset="0.54" stop-color="#808080" stop-opacity="0.12"/>
<stop offset="1" stop-color="#808080" stop-opacity="0.1"/>
</linearGradient>
<clipPath id="clip0">
<rect width="525" height="441" fill="white"/>
</clipPath>
</defs>
</svg>
