<svg width="346" height="283" viewBox="0 0 346 283" fill="none" xmlns="http://www.w3.org/2000/svg">
<g clip-path="url(#clip0)">
<path d="M138.69 158.143L133.058 258.507L138.69 258.581L143.266 156.733L138.69 158.143Z" fill="#3F3D56"/>
<path d="M117.921 208.993H48.2202V224.147H117.921V208.993Z" fill="#FBC02D"/>
<path d="M122.497 222.381V231.896H50.4977C47.9491 230.059 45.4309 228.168 42.9433 226.222V222.381H122.497Z" fill="#3F3D56"/>
<path d="M136.874 200.725C136.676 201.638 136.419 202.54 136.148 203.439C135.349 206.036 134.388 208.598 134.202 211.298C133.952 214.864 134.906 219.012 132.442 221.602C131.808 222.272 130.981 222.772 130.414 223.488C130.327 223.6 130.247 223.718 130.175 223.84C129.668 224.679 129.608 225.701 129.601 226.659C129.607 228.704 129.74 230.746 129.999 232.774C130.833 239.752 132.48 246.744 130.315 253.33C129.923 254.473 129.466 255.592 128.946 256.682C127.89 259.008 126.739 261.302 126.394 263.822C126.14 265.689 126.218 267.614 126.204 269.513C125.091 269.158 123.98 268.796 122.87 268.428C116.165 266.207 109.535 263.741 102.981 261.027C102.998 260.932 103.016 260.833 103.03 260.738C103.534 257.601 102.844 254.394 102.006 251.335C100.246 244.855 97.7533 238.437 96.2783 231.91C95.6843 229.361 95.2947 226.769 95.1131 224.157C95.0709 223.572 95.0462 222.984 95.0427 222.395C95.0251 221.627 95.0427 220.859 95.0744 220.083C95.1483 218.536 95.2152 216.7 93.9796 215.759C93.3002 215.248 92.4025 215.16 91.6105 214.85C90.0827 214.254 89.0372 212.873 87.8262 211.766C87.2486 211.205 86.5433 210.793 85.7711 210.566C84.999 210.339 84.1832 210.303 83.3943 210.462C75.4808 212.277 69.6654 218.998 62.301 222.395C62.0159 222.529 61.7308 222.656 61.4421 222.776C60.4895 223.125 59.5828 223.589 58.7421 224.157C58.1513 224.568 57.7228 225.173 57.5311 225.866C57.3446 226.614 57.5065 227.396 57.598 228.164C57.7462 229.413 57.6927 230.678 57.4396 231.91C57.3441 232.388 57.2183 232.859 57.0629 233.32C56.7813 234.155 56.4046 234.973 56.0456 235.787C54.1681 234.523 52.3177 233.231 50.4942 231.91C47.9455 230.073 45.4274 228.182 42.9398 226.236L41.4296 225.021C34.9194 219.917 28.82 214.31 23.1877 208.249C23.9376 206.135 25.0218 204.168 25.5428 202.001C25.8385 200.757 25.9476 199.463 26.356 198.255C26.8269 197.002 27.4818 195.826 28.2991 194.766C31.2925 190.587 34.9477 186.925 39.1203 183.926C43.4819 180.796 48.5193 178.287 52.4444 174.735C54.0372 173.338 55.4104 171.71 56.5173 169.903C56.5842 169.794 56.6475 169.677 56.7039 169.55C57.0102 168.913 57.2225 168.234 57.334 167.535C57.6156 165.956 57.5734 164.222 57.7142 162.707C62.4957 163.535 67.3702 163.682 72.1929 163.144C77.8077 162.513 83.2992 160.952 88.914 160.345C89.3364 160.296 89.7624 160.257 90.1883 160.222C91.9871 160.078 93.7895 160.046 95.5954 160.067C97.1056 160.067 98.6157 160.134 100.126 160.183L116.752 160.747C118.593 160.811 120.473 160.881 122.187 161.554C124.222 162.354 125.852 163.947 127.158 165.699C127.323 165.924 127.489 166.15 127.644 166.382C128.718 167.952 129.58 169.657 130.206 171.454C130.273 171.637 130.337 171.806 130.396 172.007C130.555 172.497 130.692 172.99 130.815 173.491C130.91 173.882 130.995 174.273 131.072 174.668C131.459 176.62 131.688 178.615 132.301 180.5C132.343 180.637 132.389 180.775 132.438 180.909C133.174 182.974 134.395 184.824 135.318 186.808C135.983 188.245 136.49 189.749 136.831 191.295C137.521 194.399 137.535 197.615 136.874 200.725Z" fill="#35323E"/>
<path d="M86.3372 74.6063C84.8516 73.4222 82.6973 74.2891 80.9583 75.0539C79.5002 75.6986 77.9994 76.2414 76.4664 76.6785C76.1527 76.7994 75.8126 76.8346 75.4808 76.7807C74.7767 76.6115 74.481 75.7763 73.9565 75.2689C73.0448 74.3913 71.5522 74.5993 70.3764 75.075C69.2007 75.5508 68.039 76.238 66.7788 76.1323C65.434 76.0265 64.2653 75.0327 62.9065 75.001C60.5128 74.9446 58.5027 77.8979 56.2392 77.1155C54.8593 76.6397 53.775 74.8424 52.4162 75.3534C51.3602 75.7552 51.2651 77.2177 50.6279 78.1727C49.8781 79.2864 48.4172 79.6 47.1676 80.0934C43.2284 81.6511 40.6199 86.0457 41.1339 90.2535C41.419 92.576 42.542 94.7045 43.2847 96.9212C45.4884 103.367 44.7316 110.637 47.509 116.854C47.861 116.523 48.0582 116.399 48.3996 116.071C47.5214 117.895 47.3521 119.98 47.9244 121.922C48.2166 122.898 48.6918 123.807 49.0509 124.762C49.4239 125.833 49.7249 126.928 49.9521 128.039L53.0147 141.565C54.2115 146.851 55.4119 152.138 55.6196 157.551C55.7489 161.071 55.4797 164.594 54.817 168.053C60.3649 167.133 65.4411 164.67 71.0629 164.701C73.1258 164.701 75.171 165.054 77.2163 165.336C83.1792 166.171 89.1941 166.58 95.2152 166.558C96.1516 166.612 97.0894 166.48 97.9751 166.171C98.7495 165.84 99.3832 165.251 100.115 164.825C101.548 163.979 103.284 163.767 104.935 163.767C112.464 163.63 119.72 166.389 127.2 167.362C130.153 161.156 130.329 153.72 128.062 147.232C127.39 145.304 126.485 143.426 126.218 141.4C126.11 140.154 126.082 138.903 126.133 137.653C126.122 134.455 125.546 131.284 124.433 128.286C123.997 127.113 123.472 125.918 123.518 124.667C123.564 123.416 124.18 122.249 124.785 121.143C126.014 118.887 127.249 116.611 128.985 114.708C130.762 112.741 132.987 111.243 135.187 109.774L140.619 106.123C139.876 101.425 138.919 96.4772 136.93 92.1566C134.941 87.836 131.966 83.8643 127.943 81.3374C126.586 80.5205 125.167 79.8134 123.697 79.223C121.642 78.356 119.501 77.5913 117.273 77.4609C114.738 77.3164 112.243 77.9965 109.74 78.4194C101.861 79.7481 92.5891 79.5859 86.3372 74.6063Z" fill="#FBC02D"/>
<path d="M145.73 156.127L143.147 159.394L138.275 165.551L132.642 172.666L131.069 174.653H128.017L52.4408 174.742L5.11132 174.794H2.99918C2.71757 173.913 2.45707 173.032 2.21769 172.116C1.86567 170.805 1.55706 169.478 1.29187 168.134C1.23555 167.877 1.18627 167.619 1.1405 167.358L18.3122 156.12L24.7683 156.085L44.5168 155.972L55.5457 155.908H57.5592H58.823L66.1732 155.87L122.194 155.549L125.06 155.531H126.302L129.594 155.514L141.841 155.443L144.192 154.548L144.365 154.731L145.73 156.127Z" fill="#3F3D56"/>
<path d="M144.674 154.365L144.382 154.717L142.46 156.983L138.503 161.66L130.206 171.454L56.7039 169.575L1.27783 168.165C1.2215 167.908 1.17222 167.651 1.12646 167.39C0.285081 162.868 -0.0865228 158.27 0.0175833 153.671L6.16391 150.52L7.572 149.794L18.5305 144.155L28.1477 139.222L53.2329 142.485L58.7878 143.207L61.3013 143.532L64.9799 144.011L65.2897 144.053L122.976 151.542L129.351 152.37L133.093 152.857L144.625 154.358L144.674 154.365Z" fill="#504F60"/>
<path d="M132.706 171.281L132.646 172.666L132.294 180.486L130.4 223.481L129.999 232.774L128.943 256.682L128.348 270.186L126.2 269.513C125.088 269.158 123.977 268.796 122.867 268.428L128.017 174.685L128.126 172.719L130.393 172.014L132.706 171.281Z" fill="#3F3D56"/>
<path d="M5.27325 171.179L5.11485 174.798L4.88251 180.084C4.21132 178.414 3.59645 176.712 3.03791 174.978L2.9851 174.805C2.70349 173.924 2.44299 173.043 2.20361 172.127L5.27325 171.179Z" fill="#3F3D56"/>
<path d="M97.3273 117.893C106.271 117.893 113.52 108.111 113.52 96.0437C113.52 83.9764 106.271 74.194 97.3273 74.194C88.3842 74.194 81.1343 83.9764 81.1343 96.0437C81.1343 108.111 88.3842 117.893 97.3273 117.893Z" fill="#A1616A"/>
<path opacity="0.1" d="M97.3273 117.893C106.271 117.893 113.52 108.111 113.52 96.0437C113.52 83.9764 106.271 74.194 97.3273 74.194C88.3842 74.194 81.1343 83.9764 81.1343 96.0437C81.1343 108.111 88.3842 117.893 97.3273 117.893Z" fill="black"/>
<path d="M99.6155 105.383C112.058 105.383 122.145 95.2847 122.145 82.8281C122.145 70.3716 112.058 60.2736 99.6155 60.2736C87.1729 60.2736 77.0861 70.3716 77.0861 82.8281C77.0861 95.2847 87.1729 105.383 99.6155 105.383Z" fill="#A1616A"/>
<path d="M100.063 48.0659C98.6871 48.1757 97.3212 48.3842 95.9756 48.6897C92.4131 49.5566 89.3329 51.4808 86.3336 53.3698C84.9889 54.2191 83.6055 55.1036 82.7712 56.3512C81.2716 58.589 81.8524 61.4365 81.0111 63.9211C80.5746 65.1968 79.7719 66.3422 79.0925 67.5298C77.2233 70.7861 76.2447 74.3631 75.2836 77.9049C75.0865 78.6379 75.0302 79.6317 75.8293 79.9137C76.2894 80.0094 76.7681 79.955 77.1951 79.7586C79.7191 78.9234 82.9261 78.6838 84.7988 80.3789C86.6716 82.074 86.5132 85.0801 88.7415 86.3699C91.2937 87.8606 95.2786 86.0598 97.5949 87.8184C98.5876 88.5725 98.9466 89.7813 99.7598 90.6905C101.654 92.805 105.297 92.7028 108.328 92.2764C110.067 92.0297 112.2 91.8641 113.256 93.087C113.763 93.6649 113.908 94.4579 114.495 94.9794C115.552 95.9239 117.484 95.4446 118.516 94.4755C119.547 93.5063 120.04 92.1954 120.899 91.1064C122.571 88.9919 125.51 87.8395 127.235 85.7497C128.679 83.9876 129.115 81.7815 129.509 79.6529L130.977 71.7623C131.572 68.5624 132.114 65.0664 130.315 62.2471C129.675 61.2321 128.756 60.3582 128.203 59.308C127.834 58.6031 127.626 57.8595 127.196 57.1935C126.687 56.4996 126.079 55.8845 125.391 55.368L121.916 52.4887C120.728 51.4478 119.458 50.5049 118.118 49.6694C113.158 46.7761 105.73 47.5373 100.063 48.0659Z" fill="#464353"/>
<path d="M25.8561 106.165C25.0218 107.053 24.2509 108.012 23.3567 108.843C22.5702 109.544 21.7477 110.202 20.8926 110.817C19.5126 111.851 18.1632 112.921 16.8443 114.027C15.4683 115.117 14.2232 116.362 13.134 117.738C11.2542 120.265 10.3636 123.409 8.60345 126.02C7.04751 128.336 4.8544 130.165 3.27382 132.462C2.58041 133.428 2.06537 134.511 1.75308 135.659C1.51997 136.77 1.41485 137.904 1.43978 139.038C1.40809 140.899 1.37993 142.781 1.76012 144.603C2.1403 146.425 2.9746 148.215 4.40381 149.41C5.73094 150.52 7.44529 151.031 9.12444 151.454C9.99042 151.669 10.9268 151.87 11.7505 151.528C12.3533 151.223 12.8765 150.781 13.2783 150.238L17.5624 145.304C20.4279 141.992 23.406 138.608 27.3381 136.67C28.5702 136.068 29.8692 135.613 31.1048 135.028C36.3429 132.501 40.0462 127.328 41.4824 121.689C41.8344 120.311 42.0597 118.905 42.2885 117.499L42.9081 113.643C42.9557 113.45 42.9557 113.248 42.9081 113.055C42.8111 112.837 42.6549 112.652 42.4575 112.519C39.4734 110.107 36.6795 107.467 34.1005 104.625C33.488 103.948 32.9142 103.022 32.2066 102.454C31.3195 101.749 31.3864 101.802 30.3197 102.454C28.6789 103.494 27.1787 104.741 25.8561 106.165Z" fill="#A1616A"/>
<path d="M55.162 131.821C55.1264 131.739 55.0746 131.665 55.0098 131.604C54.945 131.543 54.8684 131.495 54.7848 131.464C54.7011 131.433 54.6121 131.419 54.523 131.424C54.4339 131.428 54.3467 131.45 54.2664 131.489C54.1862 131.528 54.1146 131.583 54.0561 131.651C53.9975 131.718 53.9532 131.796 53.9257 131.881C53.8982 131.966 53.8882 132.056 53.8962 132.145C53.9042 132.234 53.93 132.32 53.9722 132.399L53.6202 132.572L64.1175 154.111L66.0149 153.184L55.5176 131.631L55.162 131.821Z" fill="#3F3D56"/>
<path opacity="0.04" d="M25.8561 106.165C25.0218 107.053 24.2509 108.012 23.3567 108.843C22.5702 109.544 21.7477 110.202 20.8926 110.817C19.5126 111.851 18.1632 112.921 16.8443 114.027C15.4683 115.117 14.2232 116.362 13.134 117.738C11.2542 120.265 10.3636 123.409 8.60345 126.02C7.04751 128.336 4.8544 130.165 3.27382 132.462C2.58041 133.428 2.06537 134.511 1.75308 135.659C1.51997 136.77 1.41485 137.904 1.43978 139.038C1.40809 140.899 1.37993 142.781 1.76012 144.603C2.1403 146.425 2.9746 148.215 4.40381 149.41C5.73094 150.52 7.44529 151.031 9.12444 151.454C9.99042 151.669 10.9268 151.87 11.7505 151.528C12.3533 151.223 12.8765 150.781 13.2783 150.238L17.5624 145.304C20.4279 141.992 23.406 138.608 27.3381 136.67C28.5702 136.068 29.8692 135.613 31.1048 135.028C36.3429 132.501 40.0462 127.328 41.4824 121.689C41.8344 120.311 42.0597 118.905 42.2885 117.499L42.9081 113.643C42.9557 113.45 42.9557 113.248 42.9081 113.055C42.8111 112.837 42.6549 112.652 42.4575 112.519C39.4734 110.107 36.6795 107.467 34.1005 104.625C33.488 103.948 32.9142 103.022 32.2066 102.454C31.3195 101.749 31.3864 101.802 30.3197 102.454C28.6789 103.494 27.1787 104.741 25.8561 106.165Z" fill="black"/>
<path d="M147.213 145.861C147.177 148.11 147.089 150.425 146.156 152.476C145.755 153.364 145.132 154.238 144.199 154.531C143.635 154.661 143.05 154.683 142.478 154.594C135.571 153.986 128.612 154.539 121.888 156.229C123.683 152.635 122.652 148.325 123.148 144.335C123.286 143.246 123.535 142.175 123.631 141.082C123.983 137.206 122.325 133.442 121.564 129.615C120.904 126.302 120.904 122.891 121.564 119.578C121.694 118.725 121.986 117.906 122.427 117.164C122.942 116.442 123.62 115.852 124.405 115.441C127.256 113.816 130.618 113.629 133.822 113.844C135.979 113.989 140.306 113.784 142.105 115.113C144.072 116.568 144.696 121.456 145.227 123.715C146.023 127.18 146.564 130.698 146.846 134.242C147.191 138.104 147.265 141.985 147.213 145.861Z" fill="#A1616A"/>
<path d="M21.1144 153.664L33.7872 162.122L90.8149 160.007L53.1485 153.664H21.1144Z" fill="white"/>
<path d="M37.8249 86.4615C35.7445 88.2976 33.9808 90.4615 32.0095 92.4174C29.3059 95.1028 26.2328 97.3864 23.1737 99.6595C24.2705 99.9664 25.2689 100.553 26.0711 101.363C26.8733 102.172 27.4519 103.176 27.75 104.276C27.8838 104.794 27.9507 105.333 28.102 105.841C28.4541 107.043 29.2285 108.079 30.0593 109.013C33.6288 113.041 38.624 116.022 40.7291 120.995C40.7978 121.237 40.9468 121.448 41.1515 121.594C41.3228 121.67 41.5131 121.692 41.6972 121.657C43.6016 121.456 45.059 119.92 46.2735 118.426C48.808 115.254 51.0082 111.751 52.2579 107.881C53.5075 104.012 53.7082 99.7335 52.3459 95.8992C51.6665 93.9891 50.6174 92.2341 49.5754 90.4967C48.6625 88.9766 47.752 87.4589 46.8437 85.9435C46.3685 85.1435 45.763 83.5189 44.8302 83.1242C42.8166 82.2572 39.1168 85.1682 37.8249 86.4615Z" fill="#FBC02D"/>
<path d="M141.51 109.238L144.505 116.286C141.244 115.146 137.759 114.798 134.337 115.273C130.915 115.748 127.656 117.032 124.827 119.018C123.12 120.241 121.554 121.777 120.783 123.729C120.402 123.802 120.009 123.765 119.648 123.624C119.288 123.482 118.974 123.241 118.744 122.929C118.294 122.297 118.033 121.549 117.991 120.773C117.713 118.066 118.737 115.412 119.751 112.882C120.223 111.698 120.709 110.489 121.547 109.527C122.384 108.565 123.497 107.931 124.609 107.332C128.158 105.367 131.875 103.723 135.715 102.419C137.335 101.894 139.032 101.904 139.94 103.42C140.992 105.228 140.686 107.314 141.51 109.238Z" fill="#FBC02D"/>
<path d="M21.1883 130.387C21.9381 130.986 22.5964 131.694 23.3673 132.265C24.1826 132.832 25.0502 133.319 25.9582 133.72L29.4291 135.391C30.5047 135.951 31.6302 136.408 32.791 136.758C34.2765 137.156 35.836 137.195 37.3285 137.565C39.2119 138.03 40.9333 139 42.7884 139.56C44.6436 140.12 46.8156 140.212 48.3645 139.045C49.3325 138.316 50.0647 137.111 51.2651 136.931C52.0396 136.829 52.7859 137.202 53.4758 137.565L62.5087 142.319C63.7267 142.961 65.0151 143.673 65.6523 144.896C66.2895 146.118 65.86 147.976 64.5188 148.293C64.0513 148.347 63.5812 148.374 63.1107 148.374C62.646 148.43 62.1391 148.705 62.0758 149.174C62.0734 149.465 62.15 149.751 62.2975 150.002C62.7024 150.932 62.8221 152.046 62.3503 152.948C61.8786 153.85 60.7205 154.411 59.7947 154.005C59.9531 155.369 58.471 156.324 57.151 156.687C53.8208 157.6 50.29 157.04 46.886 156.462C45.5483 156.236 44.1895 156.004 42.9715 155.405C42.3871 155.119 41.845 154.753 41.2536 154.488C39.6308 153.766 37.7862 153.861 36.012 153.893C27.8063 154.037 19.6711 152.515 11.6027 150.999C10.1066 150.717 8.56825 150.418 7.29041 149.59C4.82624 147.983 3.91099 144.684 4.31581 141.766C4.72064 138.848 6.19913 136.205 7.65299 133.639L9.53631 130.316C9.78251 129.807 10.1271 129.352 10.5501 128.977C13.3206 126.859 18.8156 128.477 21.1883 130.387Z" fill="#A1616A"/>
<path opacity="0.04" d="M21.1883 130.387C21.9381 130.986 22.5964 131.694 23.3673 132.265C24.1826 132.832 25.0502 133.319 25.9582 133.72L29.4291 135.391C30.5047 135.951 31.6302 136.408 32.791 136.758C34.2765 137.156 35.836 137.195 37.3285 137.565C39.2119 138.03 40.9333 139 42.7884 139.56C44.6436 140.12 46.8156 140.212 48.3645 139.045C49.3325 138.316 50.0647 137.111 51.2651 136.931C52.0396 136.829 52.7859 137.202 53.4758 137.565L62.5087 142.319C63.7267 142.961 65.0151 143.673 65.6523 144.896C66.2895 146.118 65.86 147.976 64.5188 148.293C64.0513 148.347 63.5812 148.374 63.1107 148.374C62.646 148.43 62.1391 148.705 62.0758 149.174C62.0734 149.465 62.15 149.751 62.2975 150.002C62.7024 150.932 62.8221 152.046 62.3503 152.948C61.8786 153.85 60.7205 154.411 59.7947 154.005C59.9531 155.369 58.471 156.324 57.151 156.687C53.8208 157.6 50.29 157.04 46.886 156.462C45.5483 156.236 44.1895 156.004 42.9715 155.405C42.3871 155.119 41.845 154.753 41.2536 154.488C39.6308 153.766 37.7862 153.861 36.012 153.893C27.8063 154.037 19.6711 152.515 11.6027 150.999C10.1066 150.717 8.56825 150.418 7.29041 149.59C4.82624 147.983 3.91099 144.684 4.31581 141.766C4.72064 138.848 6.19913 136.205 7.65299 133.639L9.53631 130.316C9.78251 129.807 10.1271 129.352 10.5501 128.977C13.3206 126.859 18.8156 128.477 21.1883 130.387Z" fill="black"/>
<path d="M128.647 136.476C126.813 137.343 124.708 137.428 122.793 138.094C120.878 138.76 119.251 139.958 117.495 140.934C112.918 143.493 107.638 144.459 102.453 145.378C99.3092 145.942 96.1164 146.506 92.9482 146.372C88.6605 146.189 84.5419 144.758 80.388 143.68C76.2341 142.601 71.8021 141.875 67.687 143.088C65.5381 143.743 63.5736 144.895 61.9528 146.452C60.3321 148.01 59.1006 149.927 58.3584 152.05C57.4959 154.583 57.3762 157.315 57.5417 159.986C58.4077 160.624 59.6186 159.739 60.0903 158.77C60.562 157.801 60.819 156.613 61.7343 156.049C63.3219 156.589 63.7091 158.707 65.0187 159.753C65.8353 160.409 66.9266 160.582 67.9651 160.73L73.3158 161.491C74.6042 161.674 76.1003 161.797 77.0332 160.888C77.4873 160.448 77.7372 159.831 78.1526 159.359C79.0045 158.414 80.4267 158.252 81.694 158.379C85.6507 158.774 89.3611 161.343 93.2896 160.733C94.6414 160.525 95.8981 159.947 97.1865 159.493C104.822 156.793 113.306 158.435 121.251 156.888C124.282 156.3 127.2 155.257 130.083 154.157C131.65 153.561 133.234 152.938 134.571 151.93C135.839 150.954 136.838 149.673 137.476 148.205C138.114 146.738 138.369 145.132 138.218 143.539C137.924 141.111 136.714 138.887 134.835 137.322C134.216 136.793 133.403 135.782 132.66 135.451C131.241 134.827 129.851 135.909 128.647 136.476Z" fill="#A1616A"/>
<g opacity="0.1">
<path opacity="0.1" d="M118.361 91.4553C117.773 90.9337 117.629 90.1408 117.122 89.5628C116.066 88.3399 113.932 88.5056 112.193 88.7523C109.162 89.1787 105.505 89.2773 103.625 87.1664C102.812 86.2571 102.453 85.0519 101.46 84.2942C99.1438 82.5321 95.1589 84.3365 92.6068 82.8458C90.3785 81.5454 90.5228 78.5287 88.6641 76.8547C86.8054 75.1807 83.5844 75.3992 81.0604 76.2345C80.6333 76.4309 80.1547 76.4852 79.6946 76.3895C78.8955 76.1076 78.9518 75.1138 79.1489 74.3808C80.1099 70.839 81.0886 67.262 82.9578 64.0057C83.6372 62.818 84.4398 61.6727 84.8763 60.3969C85.6402 58.1626 85.2495 55.6358 86.2527 53.5213C85.1756 54.2261 84.1406 54.9944 83.4753 55.9882C81.9757 58.226 82.5565 61.0736 81.7152 63.5581C81.2787 64.8338 80.476 65.9792 79.7966 67.1668C77.9274 70.4231 76.9488 74.0001 75.9878 77.5419C75.7906 78.2749 75.7343 79.2688 76.5334 79.5507C76.9935 79.6464 77.4722 79.592 77.8992 79.3956C80.4232 78.5604 83.6302 78.3208 85.5029 80.0159C87.3757 81.711 87.2173 84.7171 89.4456 86.0069C91.9978 87.4977 95.9827 85.6968 98.299 87.4554C99.2917 88.2095 99.6507 89.4183 100.464 90.3275C102.358 92.442 106.001 92.3398 109.032 91.9134C110.771 91.6667 112.904 91.5011 113.96 92.724C114.467 93.3019 114.612 94.0949 115.2 94.6164C116.256 95.5609 118.188 95.0816 119.22 94.1125C119.881 93.423 120.447 92.6479 120.902 91.8077C119.987 92.0861 119.012 92.0438 118.361 91.4553Z" fill="black"/>
<path opacity="0.1" d="M124.775 87.5787C124.548 87.8711 124.338 88.1758 124.145 88.4914C125.496 87.5258 126.929 86.6236 127.939 85.3937C128.202 85.0754 128.437 84.736 128.643 84.3788C127.239 85.3867 125.774 86.3135 124.775 87.5787Z" fill="black"/>
</g>
<path d="M195.894 157.364L196.95 258.507L201.878 257.802L200.822 157.364H195.894Z" fill="#3F3D56"/>
<path d="M225.464 175.69L226.52 276.833L231.448 276.128L230.392 175.69H225.464Z" fill="#3F3D56"/>
<path d="M317.528 226.783L317.507 224.841V223.685L317.321 205.895L317.028 178.082L316.979 175.683H312.051L312.076 177.994L312.23 192.891L312.297 199.34L312.354 204.563L312.445 213.592L312.502 218.917V219.481L312.575 226.48L312.639 232.65L313.04 232.206C313.685 231.485 314.317 230.752 314.934 230.007L317.528 226.783Z" fill="#3F3D56"/>
<path d="M220.007 192.077L217.191 196.292L220.007 215.495L243.945 222.053H282.668L305.901 223.459L316.969 215.875L315.054 202.85L306.605 192.077H220.007Z" fill="#E368D9"/>
<path d="M217.191 196.292L215.783 207.999C215.783 207.999 208.391 230.952 267.883 229.546C327.374 228.14 317.166 223.456 317.166 223.456L316.814 209.874C316.814 209.874 318.887 216.302 288.652 215.431C258.417 214.561 230.216 211.749 230.216 211.749C230.216 211.749 219.655 213.62 217.191 196.292Z" fill="#3F3D56"/>
<path d="M266.756 91.3566C263.363 92.9037 260.793 95.9027 259.071 99.219C257.35 102.535 256.382 106.176 255.428 109.791C254.421 113.605 253.411 117.428 252.89 121.337C251.961 128.286 252.658 135.592 255.847 141.833C259.036 148.074 264.929 153.11 271.829 154.312C274.494 154.781 277.232 154.686 279.925 154.407C284.793 153.891 289.588 152.833 294.221 151.253C299.061 149.614 304.099 147.091 306.253 142.443C307.503 139.747 307.608 136.674 307.549 133.706C307.382 125.619 306.162 117.587 303.919 109.816C303.268 107.561 302.511 105.288 301.131 103.388C299.751 101.489 297.864 100.096 295.939 98.8066C287.705 93.2561 276.884 86.747 266.756 91.3566Z" fill="#FBBEBE"/>
<path opacity="0.05" d="M266.756 91.3566C263.363 92.9037 260.793 95.9027 259.071 99.219C257.35 102.535 256.382 106.176 255.428 109.791C254.421 113.605 253.411 117.428 252.89 121.337C251.961 128.286 252.658 135.592 255.847 141.833C259.036 148.074 264.929 153.11 271.829 154.312C274.494 154.781 277.232 154.686 279.925 154.407C284.793 153.891 289.588 152.833 294.221 151.253C299.061 149.614 304.099 147.091 306.253 142.443C307.503 139.747 307.608 136.674 307.549 133.706C307.382 125.619 306.162 117.587 303.919 109.816C303.268 107.561 302.511 105.288 301.131 103.388C299.751 101.489 297.864 100.096 295.939 98.8066C287.705 93.2561 276.884 86.747 266.756 91.3566Z" fill="black"/>
<path d="M262.944 135.715C263.926 137.067 265.114 138.256 266.464 139.239C269.815 141.558 274.117 141.872 278.186 141.999C281.453 142.097 285.199 141.911 287.247 139.359C288.17 138.21 288.585 136.744 288.958 135.317C291.261 126.553 292.897 117.626 293.851 108.614L303.173 108.646C307.207 125.939 306.876 143.916 306.524 161.674L306.014 187.569L300.008 186.932C285.748 185.42 271.466 183.908 257.128 183.647C248.727 183.492 240.324 183.77 231.952 184.479L245.029 145.551C246.726 140.49 248.44 135.363 248.838 130.045C249.412 122.33 247.25 114.186 250.246 107.05C250.486 106.475 250.788 105.88 251.334 105.58C251.88 105.281 252.57 105.355 253.196 105.436C254.379 105.594 257.994 105.436 258.853 106.193C260.12 107.293 259.283 107.458 258.836 109.231C258.036 112.403 257.28 115.338 257.29 118.644C257.301 124.646 259.159 130.982 262.944 135.715Z" fill="#FBC02D"/>
<path d="M317.528 226.783C319.098 224.696 320.578 222.536 321.967 220.302C321.263 218.793 320.489 217.32 319.873 215.78C318.929 213.419 318.387 210.917 317.852 208.432C317.669 207.587 317.487 206.741 317.307 205.895C315.335 196.694 313.484 187.362 313.1 178.033C313.065 177.258 313.042 176.482 313.033 175.707C313.033 175.594 313.033 175.485 313.033 175.355C313.033 174.505 313.033 173.656 313.033 172.81C313.075 170.696 313.209 168.564 313.452 166.442C313.498 166.026 313.551 165.61 313.607 165.195C313.607 165.103 313.628 165.015 313.642 164.923L337.58 164.049L339.593 163.975C340.977 163.926 342.441 163.848 343.582 163.063C345.5 161.744 345.725 159.041 345.694 156.719C345.577 150.849 344.913 145.003 343.708 139.257C342.8 134.936 341.505 130.521 338.597 127.201C336.21 124.473 332.753 122.489 331.511 119.095C331.05 117.834 330.933 116.449 330.335 115.243C329.737 114.038 328.747 113.153 327.815 112.223C324.531 108.966 321.808 105.189 319.753 101.045C318.327 98.1688 316.782 94.9971 314.92 93.0094C314.828 92.9072 314.737 92.8121 314.642 92.7205C313.058 91.1522 311.245 90.465 309.097 91.5328C308.711 91.7268 308.344 91.9556 307.999 92.2165C307.234 92.8019 306.534 93.4683 305.912 94.2041C303.742 96.7009 301.839 99.4175 300.233 102.31C299.104 104.346 298.134 106.467 297.333 108.653C296.7 110.38 296.177 112.146 295.766 113.939C295.464 115.268 295.224 116.611 295.034 117.957C294.33 123.018 294.33 128.177 294.429 133.301C294.534 138.009 294.742 142.728 295.168 147.419C295.273 148.554 295.391 149.687 295.52 150.82C295.778 153.059 296.097 155.291 296.477 157.516C296.629 158.365 296.784 159.214 296.956 160.06C296.998 160.285 297.044 160.511 297.09 160.733L297.111 160.828C297.576 162.794 297.937 164.783 298.192 166.788C298.22 167.039 298.241 167.289 298.255 167.538C298.314 168.69 298.305 169.845 298.227 170.995C298.146 172.356 298.019 173.713 297.956 175.073C297.956 175.312 297.956 175.549 297.931 175.778C297.914 176.465 297.931 177.152 297.931 177.839C298.003 179.483 298.198 181.12 298.516 182.734C299.109 185.738 300.135 188.639 301.561 191.347C301.694 191.601 301.832 191.851 301.969 192.098C303.754 195.291 306.007 198.219 307.658 201.486C309.082 204.426 310.146 207.528 310.826 210.723C311.061 211.778 311.283 212.835 311.495 213.895C311.822 215.586 312.114 217.292 312.413 218.998C312.442 219.167 312.473 219.35 312.505 219.505C312.903 221.768 313.322 224.02 313.86 226.229C314.174 227.516 314.526 228.784 314.937 230.032L317.528 226.783Z" fill="#464353"/>
<path d="M312.825 199.005C312.825 199.323 312.804 199.64 312.79 199.96C312.727 201.507 312.585 203.049 312.364 204.581C312.072 206.671 311.562 208.725 310.84 210.709C310.362 212.013 309.753 213.266 309.023 214.448C308.376 215.498 307.619 216.475 306.763 217.363C304.651 219.562 301.61 220.263 298.667 221.19C297.313 221.582 296.004 222.117 294.763 222.786C294.541 222.91 294.323 223.044 294.112 223.185L290.43 225.627C289.282 226.384 288.11 227.17 287.321 228.295C287.192 228.486 287.074 228.685 286.969 228.89C286.471 229.925 286.107 231.019 285.885 232.146C283.97 240.132 282.051 248.125 280.738 256.231C280.65 256.766 280.566 257.305 280.474 257.845L280.443 258.014C280.427 257.974 280.408 257.935 280.386 257.897C270.966 263.6 261.198 268.745 251.133 272.865L248.947 254.539C248.719 253.049 248.644 251.54 248.722 250.035C248.93 247.663 249.894 245.415 250.155 243.05C250.401 240.735 249.964 238.399 248.898 236.33C248.483 235.526 247.962 234.737 247.866 233.838C247.771 232.939 248.289 232.118 249.19 232.027C249.894 231.244 249.95 230.176 249.743 229.119C249.632 228.567 249.467 228.028 249.25 227.509C248.651 226.036 247.895 224.432 248.409 222.927C248.545 222.655 248.605 222.35 248.585 222.046C248.588 222.028 248.588 222.008 248.585 221.99C248.465 221.595 247.997 221.422 247.754 221.088C247.296 220.464 247.754 219.615 248.035 218.896C248.309 218.123 248.468 217.315 248.507 216.496C248.546 216.041 248.574 215.583 248.623 215.132C248.692 214.521 248.801 213.916 248.951 213.32C249.806 209.944 251.862 206.997 254.734 205.032C256.104 204.108 257.628 203.435 259.026 202.565C260.457 201.599 261.824 200.539 263.116 199.393C266.216 196.809 269.44 194.372 272.786 192.084C276.385 189.624 280.112 187.358 283.952 185.296C284.774 184.852 285.595 184.42 286.417 183.999C287.311 183.53 288.211 183.084 289.117 182.664C292.017 181.279 295.309 181.797 298.516 182.72C299.86 183.104 301.187 183.562 302.469 183.978C303.72 184.386 304.924 184.927 306.059 185.592C308.9 187.263 311.248 189.73 312.223 192.845C312.225 192.865 312.225 192.885 312.223 192.905C312.843 194.857 312.882 196.951 312.825 199.005Z" fill="#F86D70"/>
<path opacity="0.1" d="M312.825 199.005C312.825 199.323 312.804 199.64 312.79 199.96C312.727 201.507 312.585 203.049 312.364 204.581C312.072 206.671 311.562 208.725 310.84 210.709C310.362 212.013 309.753 213.266 309.023 214.448C308.376 215.498 307.619 216.475 306.763 217.363C304.651 219.562 301.61 220.263 298.667 221.19C297.313 221.582 296.004 222.117 294.763 222.786C294.541 222.91 294.323 223.044 294.112 223.185L290.43 225.627C289.282 226.384 288.11 227.17 287.321 228.295C287.192 228.486 287.074 228.685 286.969 228.89C286.471 229.925 286.107 231.019 285.885 232.146C283.97 240.132 282.051 248.125 280.738 256.231C280.65 256.766 280.566 257.305 280.474 257.845L280.443 258.014C280.427 257.974 280.408 257.935 280.386 257.897C270.966 263.6 261.198 268.745 251.133 272.865L248.947 254.539C248.719 253.049 248.644 251.54 248.722 250.035C248.93 247.663 249.894 245.415 250.155 243.05C250.401 240.735 249.964 238.399 248.898 236.33C248.483 235.526 247.962 234.737 247.866 233.838C247.771 232.939 248.289 232.118 249.19 232.027C249.894 231.244 249.95 230.176 249.743 229.119C249.632 228.567 249.467 228.028 249.25 227.509C248.651 226.036 247.895 224.432 248.409 222.927C248.545 222.655 248.605 222.35 248.585 222.046C248.588 222.028 248.588 222.008 248.585 221.99C248.465 221.595 247.997 221.422 247.754 221.088C247.296 220.464 247.754 219.615 248.035 218.896C248.309 218.123 248.468 217.315 248.507 216.496C248.546 216.041 248.574 215.583 248.623 215.132C248.692 214.521 248.801 213.916 248.951 213.32C249.806 209.944 251.862 206.997 254.734 205.032C256.104 204.108 257.628 203.435 259.026 202.565C260.457 201.599 261.824 200.539 263.116 199.393C266.216 196.809 269.44 194.372 272.786 192.084C276.385 189.624 280.112 187.358 283.952 185.296C284.774 184.852 285.595 184.42 286.417 183.999C287.311 183.53 288.211 183.084 289.117 182.664C292.017 181.279 295.309 181.797 298.516 182.72C299.86 183.104 301.187 183.562 302.469 183.978C303.72 184.386 304.924 184.927 306.059 185.592C308.9 187.263 311.248 189.73 312.223 192.845C312.225 192.865 312.225 192.885 312.223 192.905C312.843 194.857 312.882 196.951 312.825 199.005Z" fill="black"/>
<path d="M279.401 140.631C279.365 140.549 279.313 140.476 279.249 140.414C279.184 140.353 279.107 140.305 279.024 140.274C278.94 140.244 278.851 140.23 278.762 140.234C278.673 140.239 278.585 140.261 278.505 140.3C278.425 140.339 278.353 140.394 278.295 140.461C278.236 140.528 278.192 140.607 278.164 140.692C278.137 140.777 278.127 140.866 278.135 140.955C278.143 141.044 278.169 141.131 278.211 141.209L277.859 141.382L288.356 162.922L290.254 161.995L279.756 140.441L279.401 140.631Z" fill="#3F3D56"/>
<path d="M292.524 118.07C304.967 118.07 315.054 107.972 315.054 95.5151C315.054 83.0585 304.967 72.9605 292.524 72.9605C280.081 72.9605 269.995 83.0585 269.995 95.5151C269.995 107.972 280.081 118.07 292.524 118.07Z" fill="#FBBEBE"/>
<path d="M322.26 81.5524C322.154 79.7595 321.888 77.9797 321.464 76.2345C320.14 70.5359 317.722 64.9255 313.558 60.8339C313.301 59.8336 312.994 58.8467 312.639 57.8772C312.632 57.8531 312.624 57.8296 312.614 57.8067C311.372 54.391 309.576 51.2036 307.299 48.3725C305.978 46.7303 304.268 45.1091 302.163 45.0457C301.571 45.0246 300.945 45.1268 300.402 44.8554C300.004 44.5974 299.668 44.2529 299.42 43.8475C298.378 42.5287 296.995 41.5201 295.422 40.9307C293.848 40.3413 292.144 40.1934 290.493 40.5031L290.275 40.5489C290.152 40.5736 290.028 40.6018 289.923 40.6335C289.817 40.6652 289.627 40.7181 289.479 40.7639C289.641 41.0317 289.799 41.3031 289.954 41.5779C290.372 42.3227 290.759 43.0839 291.116 43.8616C291.412 44.51 291.685 45.1691 291.936 45.8386C288.332 46.251 285.396 48.813 282.713 51.2517L276.398 56.9891C276.387 56.9987 276.376 57.0093 276.366 57.0208L276.183 57.197C276.137 57.2428 276.092 57.2886 276.049 57.338C276.032 57.3527 276.017 57.3692 276.004 57.3873C275.951 57.4437 275.902 57.5036 275.852 57.5635C275.764 57.6745 275.686 57.7923 275.616 57.9159C275.582 57.9688 275.551 58.0242 275.525 58.0816C275.515 58.0985 275.507 58.1161 275.5 58.1344C275.477 58.1825 275.457 58.2319 275.44 58.2824C275.439 58.2894 275.439 58.2966 275.44 58.3036C275.431 58.3325 275.422 58.3619 275.416 58.3917C275.344 58.6397 275.365 58.9054 275.476 59.1388L279.64 59.1846H280.129C280.151 59.7414 280.168 60.3018 280.189 60.8586C279.528 61.3537 278.894 61.8831 278.288 62.4445C277.628 63.0564 277.008 63.711 276.433 64.4039C272.677 68.9465 270.716 74.8142 270.519 80.7207C270.519 80.904 270.519 81.0731 270.519 81.2634C270.519 81.8026 270.519 82.3418 270.519 82.8775C270.519 83.2299 270.551 83.5823 270.579 83.9347C270.581 84.3938 270.702 84.8444 270.931 85.2422C270.961 85.2866 270.994 85.329 271.03 85.3691C271.241 85.5986 271.494 85.7852 271.776 85.9188L272.079 86.0669C272.23 86.1409 272.374 86.2113 272.515 86.2924C273.842 87.043 274.627 88.4915 275.835 89.4219C275.905 89.4747 275.976 89.5276 276.046 89.5734L276.204 89.6791L276.303 89.7426L276.437 89.8201C276.524 89.8731 276.615 89.9213 276.708 89.9646L276.877 90.0492H276.905C277.046 90.1126 277.186 90.1725 277.331 90.2254L277.531 90.2958L277.591 90.317C277.648 90.3346 277.707 90.3558 277.767 90.3699C277.887 90.4051 278.004 90.4368 278.119 90.465L278.471 90.5425C278.609 90.5672 278.749 90.5919 278.89 90.6095L279.098 90.6377L279.309 90.6588C279.645 90.6894 279.983 90.707 280.323 90.7117C281.391 90.7051 282.457 90.6309 283.516 90.4897L292.5 89.4324C294.538 89.1963 296.618 88.9602 298.628 89.376C300.332 89.7285 301.902 90.539 303.557 91.1134C303.93 91.2438 304.303 91.3637 304.68 91.4659C304.817 91.5046 304.958 91.5469 305.098 91.5821L305.292 91.6315L305.743 91.7407C305.905 91.7795 306.066 91.8183 306.228 91.85C306.457 91.8993 306.683 91.9416 306.911 91.9839C307.066 92.0156 307.225 92.0403 307.383 92.0685H307.415L307.865 92.139H307.974L308.309 92.1848C308.471 92.2095 308.633 92.2306 308.798 92.2482C309.157 92.2929 309.516 92.3316 309.875 92.3645C310.456 92.4209 311.041 92.4632 311.635 92.4984L312.22 92.5337L312.804 92.5619L314.564 92.6394H314.642H314.888C315.62 92.6905 316.355 92.6526 317.078 92.5266C317.204 92.502 317.328 92.4738 317.451 92.4385C317.574 92.4033 317.676 92.368 317.803 92.3258C319.123 91.8183 320.088 90.6518 320.756 89.4042C320.897 89.1399 321.027 88.8756 321.147 88.6042C321.267 88.3329 321.376 88.058 321.475 87.7831C321.598 87.4307 321.703 87.0959 321.795 86.7435C321.823 86.6483 321.848 86.5532 321.869 86.4545C321.89 86.3558 321.939 86.162 321.967 86.014C322.055 85.6087 322.122 85.1999 322.172 84.7876C322.172 84.6572 322.203 84.5233 322.217 84.3929C322.249 84.0405 322.274 83.7127 322.288 83.3673C322.288 83.1066 322.288 82.8423 322.288 82.5779C322.284 82.2925 322.26 81.9154 322.26 81.5524ZM313.234 60.5132C312.949 60.2454 312.656 59.9881 312.361 59.745C312.69 59.9528 312.983 60.2122 313.23 60.5132H313.234Z" fill="#464353"/>
<path d="M249.285 94.2746C246.634 93.9468 244.005 92.7839 241.389 93.3548C239.752 93.7072 238.344 94.7257 237.035 95.7724C232.161 99.6826 228.018 104.425 224.795 109.781C224.248 110.582 223.864 111.482 223.665 112.431C223.496 113.531 223.795 114.648 224.151 115.701C226.559 122.824 231.709 128.773 234.053 135.916C236.517 143.429 235.662 151.641 233.845 159.337C231.594 168.839 227.934 177.95 222.989 186.368C222.318 187.619 221.476 188.772 220.49 189.793C219.208 191.027 217.487 191.908 216.727 193.522C216.375 194.227 216.272 195.03 216.022 195.784C215.318 197.899 213.615 199.71 213.449 201.941C213.326 203.643 214.132 205.254 214.621 206.875C215.447 209.66 215.359 212.636 214.372 215.368C212.587 220.267 207.919 224.721 209.274 229.757C212.298 228.887 215.649 227.755 217.075 224.947C217.578 223.953 217.828 222.769 218.677 222.043C220.37 220.601 223.253 221.905 225.052 220.58C226.411 219.572 226.46 217.507 225.854 215.921C225.249 214.335 224.207 212.94 223.742 211.308C222.933 208.365 224.228 205.254 223.989 202.212C223.876 200.803 223.443 199.453 223.411 198.05C223.352 195.326 224.858 192.764 226.861 190.914C228.864 189.064 231.339 187.837 233.775 186.629L242.984 182.047C246.325 180.391 249.986 178.371 251.08 174.805C251.496 173.469 251.499 172.046 251.52 170.65C251.834 149.325 257.17 128.431 262.475 107.776C263.299 104.576 264.137 101.362 265.362 98.2886C266.587 95.2155 268.984 92.7486 270.206 89.8941C263.12 89.0624 256.646 95.1979 249.285 94.2746Z" fill="#464353"/>
<path d="M300.05 228.055C300.864 232.989 301.36 238.028 301.747 243.043C295.411 248.301 288.589 252.876 281.657 257.119C281.263 257.362 280.865 257.601 280.467 257.823L280.436 257.993C280.42 257.952 280.401 257.914 280.379 257.876C279.842 256.713 278.901 255.784 277.732 255.261C275.134 249.799 272.539 244.336 269.945 238.874C268.537 235.924 267.129 232.946 266.425 229.764C266.425 229.697 266.394 229.627 266.383 229.56C265.848 227.093 265.725 224.531 265.369 222.032C265.189 220.601 264.867 219.192 264.408 217.824C263.986 216.608 263.405 215.428 262.891 214.24C262.257 212.774 261.726 211.291 261.701 209.708C261.701 209.204 261.733 208.651 261.486 208.228C261.223 207.864 260.898 207.549 260.525 207.298C260.061 206.885 259.708 206.361 259.501 205.775C259.295 205.189 259.24 204.559 259.343 203.946C257.23 204.055 256.041 206.329 255.192 208.256C254.421 210.142 253.408 211.919 252.179 213.542C251.283 214.702 250.144 215.652 248.842 216.323C248.726 216.379 248.609 216.436 248.49 216.485C245.55 217.782 242.118 217.324 238.932 216.739C236.148 216.228 233.268 215.594 231.029 213.86L230.79 213.669C230.127 213.118 229.536 212.486 229.03 211.787C227.154 209.222 226.323 205.842 225.862 202.625C225.819 202.322 225.777 202.018 225.738 201.715C225.418 199.442 225.33 197.142 225.474 194.85C225.517 194.286 225.576 193.723 225.65 193.162C225.7 192.81 225.752 192.429 225.812 192.063C225.811 192.052 225.811 192.042 225.812 192.031C225.904 191.45 226.002 190.865 226.101 190.269C226.453 188.271 226.805 186.22 227.861 184.5C228.556 183.43 229.433 182.49 230.452 181.723C230.832 181.423 231.223 181.138 231.617 180.863C232.258 180.419 232.916 179.996 233.585 179.598C235.268 178.589 237.034 177.729 238.865 177.025C239.302 176.856 239.745 176.697 240.189 176.546C241.913 175.932 243.769 175.785 245.568 176.119C247.162 176.35 248.773 176.445 250.384 176.401C254.513 176.32 258.66 175.531 262.782 175.02C268.506 174.315 274.656 174.231 279.647 177.134C279.887 177.272 280.119 177.416 280.351 177.568C282.815 179.182 284.801 181.444 286.403 183.971C286.755 184.503 287.061 185.05 287.364 185.603C288.061 186.873 288.692 188.179 289.254 189.515C289.586 190.171 289.766 190.894 289.778 191.629C289.77 191.769 289.751 191.908 289.722 192.045C289.627 192.546 289.437 193.032 289.37 193.539C289.148 195.46 290.778 197.064 291.387 198.893C291.781 200.084 291.739 201.359 291.961 202.614C292.281 204.376 293.144 205.962 293.918 207.548C295.142 210.101 296.189 212.735 297.051 215.431C297.664 217.31 298.188 219.216 298.649 221.141C298.8 221.758 298.942 222.378 299.075 222.998C299.459 224.703 299.772 226.374 300.05 228.055Z" fill="#F86D70"/>
<path d="M337.583 175.866V178.333L337.129 178.326L336.622 178.319L330.962 178.248L317.014 178.065L313.1 178.016L312.086 178.001L306.211 177.927L297.931 177.818L280.365 177.589L249.884 177.194L238.883 177.053L234.468 176.997L230.406 176.944L227.875 176.909L225.478 176.877L207.704 176.648L202.776 176.585L201.702 176.571L201.005 174.77L195.94 161.692L195.014 159.302L195.718 156.483L198.886 158.597L200.836 158.841L232.944 162.837L238.971 163.588L251.749 165.181L264.267 166.738L269.174 167.348L298.213 170.964L306.327 171.975L313.044 172.81L336.925 175.785L337.583 175.866Z" fill="#3F3D56"/>
<path d="M195.718 156.483L202.054 173.046L337.583 175.866V157.893L195.718 156.483Z" fill="#504F60"/>
<path d="M202.758 174.809L203.814 275.952L208.743 275.247L207.687 174.809H202.758Z" fill="#3F3D56"/>
<path d="M337.129 178.322H336.622C335.801 184.628 334.443 190.852 332.563 196.926L330.962 178.248L330.895 177.452L336.816 176.768L337.013 176.747L337.129 178.322Z" fill="#3F3D56"/>
<path d="M317.87 166.351L266.298 167.408L250.281 162.122L293.228 159.655L317.87 166.351Z" fill="white"/>
<path d="M253.179 145.798C252.632 146.008 252.147 146.353 251.77 146.802C251.476 147.288 251.296 147.836 251.246 148.402L250.38 153.572C250.248 154.045 250.271 154.548 250.447 155.006C250.672 155.44 251.327 155.665 251.654 155.306C251.612 156.317 251.7 157.396 252.288 158.22C252.876 159.045 254.108 159.478 254.939 158.904C255.069 159.117 255.244 159.298 255.451 159.436C255.659 159.574 255.893 159.666 256.14 159.704C256.386 159.742 256.637 159.726 256.877 159.658C257.116 159.589 257.338 159.469 257.526 159.306C257.026 159.475 256.991 160.24 257.347 160.627C257.745 160.979 258.252 161.182 258.783 161.202C264.969 162.075 271.276 161.28 277.053 158.901C277.598 158.675 276.162 151.94 276.018 151.25C275.666 149.625 275.49 147.641 274.12 146.548C270.847 143.933 265.031 143.419 261.043 143.729C258.318 143.935 255.653 144.636 253.179 145.798Z" fill="#FBBEBE"/>
<path opacity="0.1" d="M305.651 146.58C292.918 146.823 279.922 147.031 267.77 143.215C268.931 147.718 268.85 152.452 267.538 156.913L327.072 161.847C329.596 162.055 340.061 163.239 342.522 162.643C344.983 162.048 321.876 154.428 322.809 152.071C325.375 145.576 333.971 141.77 327.779 141.526C319.964 141.216 313.526 146.432 305.651 146.58Z" fill="black"/>
<path d="M306.003 147.285C293.27 147.528 280.274 147.736 268.122 143.919C269.283 148.423 269.202 153.157 267.89 157.618L327.424 162.552C329.948 162.759 340.413 163.961 342.874 163.348C345.335 162.735 344.757 159.715 345.69 157.357C348.256 150.862 334.323 142.474 328.131 142.231C320.316 141.921 313.878 147.137 306.003 147.285Z" fill="#464353"/>
<path d="M285.758 148.265C286.305 148.474 286.79 148.82 287.166 149.269C287.461 149.756 287.641 150.303 287.694 150.869L288.56 156.039C288.691 156.512 288.667 157.014 288.494 157.473C288.268 157.907 287.61 158.132 287.286 157.773C287.325 158.784 287.24 159.863 286.652 160.687C286.065 161.512 284.832 161.945 283.998 161.371C283.868 161.583 283.693 161.765 283.486 161.903C283.278 162.041 283.043 162.133 282.797 162.171C282.551 162.209 282.3 162.193 282.06 162.125C281.821 162.056 281.599 161.936 281.411 161.773C281.911 161.942 281.949 162.707 281.594 163.094C281.194 163.446 280.686 163.649 280.154 163.669C273.969 164.542 267.664 163.747 261.888 161.367C261.342 161.142 262.775 154.407 262.923 153.716C263.275 152.092 263.451 150.108 264.82 149.015C268.09 146.4 273.909 145.886 277.898 146.196C280.621 146.403 283.285 147.104 285.758 148.265Z" fill="#FBBEBE"/>
<path d="M201.625 137.04C200.456 138.549 199.284 140.089 198.531 141.847C197.091 145.202 197.302 149.001 197.541 152.645C197.608 153.702 197.693 154.781 198.245 155.658C198.723 156.321 199.353 156.859 200.083 157.227C203.131 158.96 206.701 159.478 210.186 159.866C215.523 160.458 220.878 160.819 226.252 160.948C239.566 161.272 253.084 160.183 266.052 163.203C264.447 160.761 264.45 157.53 265.348 154.746C266.246 151.961 267.974 149.537 269.667 147.151C263.732 145.269 257.368 148.208 251.151 147.916C244.769 147.616 238.862 143.923 232.473 143.926C231.1 143.926 229.702 144.099 228.368 143.768C227.034 143.437 225.742 142.429 225.619 141.058C227.322 141.442 228.938 139.983 229.642 138.383C230.346 136.783 230.473 134.975 231.156 133.364C232.856 129.358 237.45 127.5 240.309 124.202C240.759 123.68 241.185 123.063 241.171 122.373C241.104 121.788 240.858 121.237 240.467 120.797C238.091 117.626 234.511 115.864 231.536 113.397C230.501 112.537 228.414 109.295 227.252 108.995C225.098 108.442 223.271 111.557 221.87 113.076C214.796 120.77 208.048 128.758 201.625 137.04Z" fill="#464353"/>
<path opacity="0.07" d="M272.41 136.145C273.302 136.808 274.095 137.594 274.765 138.482C275.098 138.927 275.336 139.437 275.463 139.98C275.589 140.522 275.602 141.085 275.5 141.632C275.391 140.611 275.618 139.582 276.148 138.702C276.677 137.822 277.48 137.139 278.433 136.758L272.41 136.145Z" fill="black"/>
<g opacity="0.1">
<path opacity="0.1" d="M291.933 43.7277C291.519 42.6262 291.041 41.5496 290.504 40.5031C290.156 40.57 289.812 40.6583 289.476 40.7674C290.08 41.7717 290.624 42.8108 291.105 43.8792C291.377 43.8087 291.651 43.7594 291.933 43.7277Z" fill="black"/>
<path opacity="0.1" d="M312.357 57.6234C312.452 57.7011 312.544 57.7894 312.636 57.8707C312.629 57.8478 312.621 57.8254 312.611 57.8036C312.531 57.7447 312.447 57.6846 312.357 57.6234Z" fill="black"/>
<path opacity="0.1" d="M279.633 59.174C279.816 59.0295 279.985 58.878 280.182 58.737L280.126 57.0631L276.366 57.0243C275.757 57.5846 275.11 58.3882 275.469 59.1388L279.633 59.174Z" fill="black"/>
<path opacity="0.1" d="M320.735 87.3531C320.066 88.6007 319.102 89.7707 317.782 90.2747C316.764 90.6623 315.645 90.6271 314.557 90.5778C310.847 90.4262 307.073 90.2606 303.567 89.0306C301.927 88.4527 300.357 87.6456 298.639 87.2897C296.629 86.8739 294.548 87.11 292.51 87.3496L283.526 88.4069C280.876 88.717 277.922 88.9496 275.807 87.3214C274.596 86.391 273.814 84.9426 272.487 84.1955C271.927 83.8783 271.262 83.6739 270.899 83.1383C270.67 82.7405 270.549 82.2899 270.547 81.8308C270.519 81.4608 270.502 81.0907 270.488 80.7207C270.449 81.7959 270.469 82.8723 270.547 83.9453C270.549 84.4043 270.67 84.855 270.899 85.2528C271.251 85.7849 271.927 85.9893 272.487 86.31C273.814 87.0571 274.599 88.5055 275.807 89.4359C277.919 91.0641 280.876 90.8456 283.526 90.5214L292.51 89.4641C294.548 89.2245 296.629 88.9884 298.639 89.4042C300.343 89.7566 301.913 90.5672 303.567 91.1451C307.087 92.3751 310.847 92.5548 314.557 92.6922C315.645 92.7381 316.764 92.7768 317.782 92.3892C319.102 91.8852 320.066 90.7152 320.735 89.4676C322.031 87.0536 322.393 84.3153 322.256 81.5559C322.181 83.5767 321.661 85.556 320.735 87.3531Z" fill="black"/>
</g>
<path opacity="0.1" d="M291.831 45.9937L296.759 50.5751C296.759 50.5751 292.535 48.813 291.831 45.9937Z" fill="black"/>
</g>
<defs>
<clipPath id="clip0">
<rect width="346" height="283" fill="white"/>
</clipPath>
</defs>
</svg>
