<svg width="100" height="100" viewBox="0 0 100 100" fill="none" xmlns="http://www.w3.org/2000/svg">
<circle cx="50" cy="50" r="50" fill="#FBC02D"/>
<circle cx="50" cy="50" r="40" fill="#DBDBDB"/>
<path d="M66.32 64.8C65.3867 65.8933 64.2933 66.72 63.04 67.28C61.8133 67.84 60.4667 68.12 59 68.12C57.08 68.12 55.32 67.68 53.72 66.8C52.12 65.9467 50.2933 64.4533 48.24 62.32C45.6533 62.1067 43.3333 61.36 41.28 60.08C39.2267 58.7733 37.6267 57.08 36.48 55C35.3333 52.8933 34.76 50.56 34.76 48C34.76 45.28 35.4133 42.8267 36.72 40.64C38.0267 38.4267 39.8267 36.7067 42.12 35.48C44.4133 34.2267 46.9867 33.6 49.84 33.6C52.6933 33.6 55.2667 34.2267 57.56 35.48C59.8533 36.7067 61.6533 38.4133 62.96 40.6C64.2667 42.7867 64.92 45.2533 64.92 48C64.92 50.2133 64.48 52.2667 63.6 54.16C62.72 56.0267 61.4933 57.6267 59.92 58.96C58.3467 60.2667 56.52 61.2133 54.44 61.8C55.2133 62.6267 55.9733 63.2267 56.72 63.6C57.4667 63.9733 58.2667 64.16 59.12 64.16C60.96 64.16 62.56 63.4133 63.92 61.92L66.32 64.8ZM40 48C40 49.8667 40.4267 51.56 41.28 53.08C42.1333 54.5733 43.3067 55.7467 44.8 56.6C46.2933 57.4267 47.9733 57.84 49.84 57.84C51.7067 57.84 53.3867 57.4267 54.88 56.6C56.3733 55.7467 57.5467 54.5733 58.4 53.08C59.2533 51.56 59.68 49.8667 59.68 48C59.68 46.1333 59.2533 44.4533 58.4 42.96C57.5467 41.44 56.3733 40.2667 54.88 39.44C53.3867 38.5867 51.7067 38.16 49.84 38.16C47.9733 38.16 46.2933 38.5867 44.8 39.44C43.3067 40.2667 42.1333 41.44 41.28 42.96C40.4267 44.4533 40 46.1333 40 48Z" fill="#FBC02D"/>
</svg>
