<svg width="100" height="100" viewBox="0 0 100 100" fill="none" xmlns="http://www.w3.org/2000/svg">
<circle cx="50" cy="50" r="50" fill="#E368D9"/>
<circle cx="49.5" cy="50.5" r="43.5" fill="#FCFCFC"/>
<path d="M46.88 55.72C46.88 54.28 47.2 53.0933 47.84 52.16C48.5067 51.2 49.4667 50.16 50.72 49.04C51.68 48.1867 52.3867 47.4533 52.84 46.84C53.32 46.2 53.56 45.48 53.56 44.68C53.56 43.56 53.1067 42.6533 52.2 41.96C51.2933 41.2667 50.08 40.92 48.56 40.92C45.68 40.92 43.5067 41.9467 42.04 44L38.16 41.48C39.3067 39.9067 40.7867 38.7067 42.6 37.88C44.4133 37.0267 46.5467 36.6 49 36.6C51.9867 36.6 54.36 37.2533 56.12 38.56C57.9067 39.84 58.8 41.6133 58.8 43.88C58.8 44.9733 58.6133 45.9333 58.24 46.76C57.8933 47.5867 57.4667 48.2933 56.96 48.88C56.4533 49.44 55.7867 50.0933 54.96 50.84C53.9467 51.7467 53.1867 52.5467 52.68 53.24C52.2 53.9333 51.96 54.76 51.96 55.72H46.88ZM49.44 65.28C48.5067 65.28 47.7333 64.9867 47.12 64.4C46.5333 63.7867 46.24 63.04 46.24 62.16C46.24 61.28 46.5333 60.5467 47.12 59.96C47.7333 59.3733 48.5067 59.08 49.44 59.08C50.3467 59.08 51.0933 59.3733 51.68 59.96C52.2933 60.5467 52.6 61.28 52.6 62.16C52.6 63.04 52.2933 63.7867 51.68 64.4C51.0933 64.9867 50.3467 65.28 49.44 65.28Z" fill="#E368D9"/>
</svg>
