<svg width="131" height="47" viewBox="0 0 131 47" fill="none" xmlns="http://www.w3.org/2000/svg">
<path d="M118.752 25.486C118.752 24.5793 118.899 23.786 119.194 23.106C119.511 22.4033 119.885 21.814 120.316 21.338C120.769 20.862 121.359 20.2953 122.084 19.638C122.991 18.8447 123.659 18.1647 124.09 17.598C124.521 17.0087 124.736 16.306 124.736 15.49C124.736 14.3793 124.305 13.4953 123.444 12.838C122.583 12.158 121.393 11.818 119.874 11.818C117.222 11.818 115.193 12.7133 113.788 14.504L111.306 12.736C112.258 11.512 113.471 10.5713 114.944 9.914C116.44 9.25667 118.163 8.928 120.112 8.928C122.583 8.928 124.543 9.472 125.994 10.56C127.445 11.6253 128.17 13.0987 128.17 14.98C128.17 15.9093 128.011 16.7367 127.694 17.462C127.399 18.1647 127.037 18.754 126.606 19.23C126.175 19.706 125.597 20.2727 124.872 20.93C123.943 21.7687 123.251 22.5053 122.798 23.14C122.367 23.7747 122.152 24.5567 122.152 25.486H118.752ZM120.486 33.204C119.851 33.204 119.319 33 118.888 32.592C118.48 32.1613 118.276 31.64 118.276 31.028C118.276 30.416 118.48 29.906 118.888 29.498C119.319 29.0673 119.851 28.852 120.486 28.852C121.121 28.852 121.642 29.0673 122.05 29.498C122.458 29.906 122.662 30.416 122.662 31.028C122.662 31.64 122.447 32.1613 122.016 32.592C121.608 33 121.098 33.204 120.486 33.204Z" fill="#FBC02D"/>
<path d="M7.29 39.18C5.99 39.18 4.74 39.01 3.54 38.67C2.34 38.31 1.4 37.86 0.72 37.32L1.92 35.04C2.62 35.54 3.47 35.94 4.47 36.24C5.47 36.54 6.48 36.69 7.5 36.69C10.02 36.69 11.28 35.97 11.28 34.53C11.28 34.05 11.11 33.67 10.77 33.39C10.43 33.11 10 32.91 9.48 32.79C8.98 32.65 8.26 32.5 7.32 32.34C6.04 32.14 4.99 31.91 4.17 31.65C3.37 31.39 2.68 30.95 2.1 30.33C1.52 29.71 1.23 28.84 1.23 27.72C1.23 26.28 1.83 25.13 3.03 24.27C4.23 23.39 5.84 22.95 7.86 22.95C8.92 22.95 9.98 23.08 11.04 23.34C12.1 23.6 12.97 23.95 13.65 24.39L12.42 26.67C11.12 25.83 9.59 25.41 7.83 25.41C6.61 25.41 5.68 25.61 5.04 26.01C4.4 26.41 4.08 26.94 4.08 27.6C4.08 28.12 4.26 28.53 4.62 28.83C4.98 29.13 5.42 29.35 5.94 29.49C6.48 29.63 7.23 29.79 8.19 29.97C9.47 30.19 10.5 30.43 11.28 30.69C12.08 30.93 12.76 31.35 13.32 31.95C13.88 32.55 14.16 33.39 14.16 34.47C14.16 35.91 13.54 37.06 12.3 37.92C11.08 38.76 9.41 39.18 7.29 39.18ZM56.5746 23.1V39H53.8446V36.6C53.2646 37.42 52.4946 38.06 51.5346 38.52C50.5946 38.96 49.5646 39.18 48.4446 39.18C46.3246 39.18 44.6546 38.6 43.4346 37.44C42.2146 36.26 41.6046 34.53 41.6046 32.25V23.1H44.4846V31.92C44.4846 33.46 44.8546 34.63 45.5946 35.43C46.3346 36.21 47.3946 36.6 48.7746 36.6C50.2946 36.6 51.4946 36.14 52.3746 35.22C53.2546 34.3 53.6946 33 53.6946 31.32V23.1H56.5746ZM61.4573 23.1H64.3373V39H61.4573V23.1ZM62.8973 20.04C62.3373 20.04 61.8673 19.86 61.4873 19.5C61.1273 19.14 60.9473 18.7 60.9473 18.18C60.9473 17.66 61.1273 17.22 61.4873 16.86C61.8673 16.48 62.3373 16.29 62.8973 16.29C63.4573 16.29 63.9173 16.47 64.2773 16.83C64.6573 17.17 64.8473 17.6 64.8473 18.12C64.8473 18.66 64.6573 19.12 64.2773 19.5C63.9173 19.86 63.4573 20.04 62.8973 20.04ZM81.0262 36.63V39H67.7062V37.14L77.0962 25.47H67.8862V23.1H80.7862V24.99L71.3962 36.63H81.0262ZM98.4164 31.14C98.4164 31.36 98.3964 31.65 98.3564 32.01H85.4564C85.6364 33.41 86.2464 34.54 87.2864 35.4C88.3464 36.24 89.6564 36.66 91.2164 36.66C93.1164 36.66 94.6464 36.02 95.8064 34.74L97.3964 36.6C96.6764 37.44 95.7764 38.08 94.6964 38.52C93.6364 38.96 92.4464 39.18 91.1264 39.18C89.4464 39.18 87.9564 38.84 86.6564 38.16C85.3564 37.46 84.3464 36.49 83.6264 35.25C82.9264 34.01 82.5764 32.61 82.5764 31.05C82.5764 29.51 82.9164 28.12 83.5964 26.88C84.2964 25.64 85.2464 24.68 86.4464 24C87.6664 23.3 89.0364 22.95 90.5564 22.95C92.0764 22.95 93.4264 23.3 94.6064 24C95.8064 24.68 96.7364 25.64 97.3964 26.88C98.0764 28.12 98.4164 29.54 98.4164 31.14ZM90.5564 25.38C89.1764 25.38 88.0164 25.8 87.0764 26.64C86.1564 27.48 85.6164 28.58 85.4564 29.94H95.6564C95.4964 28.6 94.9464 27.51 94.0064 26.67C93.0864 25.81 91.9364 25.38 90.5564 25.38ZM104.576 25.77C105.076 24.85 105.816 24.15 106.796 23.67C107.776 23.19 108.966 22.95 110.366 22.95V25.74C110.206 25.72 109.986 25.71 109.706 25.71C108.146 25.71 106.916 26.18 106.016 27.12C105.136 28.04 104.696 29.36 104.696 31.08V39H101.816V23.1H104.576V25.77Z" fill="#DBDBDB"/>
<path d="M39.2093 40.92C38.5293 41.72 37.7393 42.33 36.8393 42.75C35.9393 43.17 34.9693 43.38 33.9293 43.38C32.6093 43.38 31.3693 43.06 30.2093 42.42C29.0693 41.8 27.7593 40.73 26.2793 39.21C24.2993 39.11 22.5093 38.58 20.9093 37.62C19.3293 36.66 18.0893 35.39 17.1893 33.81C16.3093 32.21 15.8693 30.44 15.8693 28.5C15.8693 26.48 16.3493 24.65 17.3093 23.01C18.2893 21.37 19.6293 20.09 21.3293 19.17C23.0293 18.23 24.9393 17.76 27.0593 17.76C29.1593 17.76 31.0593 18.23 32.7593 19.17C34.4593 20.09 35.7893 21.37 36.7493 23.01C37.7093 24.63 38.1893 26.46 38.1893 28.5C38.1893 30.22 37.8393 31.8 37.1393 33.24C36.4593 34.68 35.4893 35.89 34.2293 36.87C32.9893 37.85 31.5593 38.53 29.9393 38.91C30.6393 39.65 31.3093 40.18 31.9493 40.5C32.6093 40.84 33.2793 41.01 33.9593 41.01C35.4393 41.01 36.7193 40.41 37.7993 39.21L39.2093 40.92ZM18.8693 28.5C18.8693 30.02 19.2193 31.4 19.9193 32.64C20.6393 33.86 21.6193 34.82 22.8593 35.52C24.1193 36.22 25.5193 36.57 27.0593 36.57C28.5793 36.57 29.9593 36.22 31.1993 35.52C32.4393 34.82 33.4093 33.86 34.1093 32.64C34.8293 31.4 35.1893 30.02 35.1893 28.5C35.1893 26.98 34.8293 25.61 34.1093 24.39C33.4093 23.15 32.4393 22.18 31.1993 21.48C29.9593 20.78 28.5793 20.43 27.0593 20.43C25.5193 20.43 24.1193 20.78 22.8593 21.48C21.6193 22.18 20.6393 23.15 19.9193 24.39C19.2193 25.61 18.8693 26.98 18.8693 28.5Z" fill="#FBC02D"/>
</svg>
