<svg width="109" height="50" viewBox="0 0 109 50" fill="none" xmlns="http://www.w3.org/2000/svg">
<path d="M5.96 33.14C5.04 33.14 4.21333 32.98 3.48 32.66C2.76 32.3267 2.19333 31.8733 1.78 31.3C1.36667 30.7133 1.15333 30.04 1.14 29.28H3.08C3.14667 29.9333 3.41333 30.4867 3.88 30.94C4.36 31.38 5.05333 31.6 5.96 31.6C6.82667 31.6 7.50667 31.3867 8 30.96C8.50667 30.52 8.76 29.96 8.76 29.28C8.76 28.7467 8.61333 28.3133 8.32 27.98C8.02667 27.6467 7.66 27.3933 7.22 27.22C6.78 27.0467 6.18667 26.86 5.44 26.66C4.52 26.42 3.78 26.18 3.22 25.94C2.67333 25.7 2.2 25.3267 1.8 24.82C1.41333 24.3 1.22 23.6067 1.22 22.74C1.22 21.98 1.41333 21.3067 1.8 20.72C2.18667 20.1333 2.72667 19.68 3.42 19.36C4.12667 19.04 4.93333 18.88 5.84 18.88C7.14667 18.88 8.21333 19.2067 9.04 19.86C9.88 20.5133 10.3533 21.38 10.46 22.46H8.46C8.39333 21.9267 8.11333 21.46 7.62 21.06C7.12667 20.6467 6.47333 20.44 5.66 20.44C4.9 20.44 4.28 20.64 3.8 21.04C3.32 21.4267 3.08 21.9733 3.08 22.68C3.08 23.1867 3.22 23.6 3.5 23.92C3.79333 24.24 4.14667 24.4867 4.56 24.66C4.98667 24.82 5.58 25.0067 6.34 25.22C7.26 25.4733 8 25.7267 8.56 25.98C9.12 26.22 9.6 26.6 10 27.12C10.4 27.6267 10.6 28.32 10.6 29.2C10.6 29.88 10.42 30.52 10.06 31.12C9.7 31.72 9.16667 32.2067 8.46 32.58C7.75333 32.9533 6.92 33.14 5.96 33.14ZM45.5154 19.3V33H43.2404V30.975C42.8071 31.675 42.1988 32.225 41.4154 32.625C40.6488 33.0083 39.7988 33.2 38.8654 33.2C37.7988 33.2 36.8404 32.9833 35.9904 32.55C35.1404 32.1 34.4654 31.4333 33.9654 30.55C33.4821 29.6667 33.2404 28.5917 33.2404 27.325V19.3H35.4904V27.025C35.4904 28.375 35.8321 29.4167 36.5154 30.15C37.1988 30.8667 38.1321 31.225 39.3154 31.225C40.5321 31.225 41.4904 30.85 42.1904 30.1C42.8904 29.35 43.2404 28.2583 43.2404 26.825V19.3H45.5154ZM50.5316 17.075C50.0983 17.075 49.7316 16.925 49.4316 16.625C49.1316 16.325 48.9816 15.9583 48.9816 15.525C48.9816 15.0917 49.1316 14.725 49.4316 14.425C49.7316 14.125 50.0983 13.975 50.5316 13.975C50.9483 13.975 51.2983 14.125 51.5816 14.425C51.8816 14.725 52.0316 15.0917 52.0316 15.525C52.0316 15.9583 51.8816 16.325 51.5816 16.625C51.2983 16.925 50.9483 17.075 50.5316 17.075ZM51.6316 19.3V33H49.3566V19.3H51.6316ZM57.209 31.125H63.934V33H54.609V31.125L61.259 21.15H54.659V19.3H63.884V21.15L57.209 31.125ZM79.3859 25.625C79.3859 26.0583 79.3609 26.5167 79.3109 27H68.3609C68.4443 28.35 68.9026 29.4083 69.7359 30.175C70.5859 30.925 71.6109 31.3 72.8109 31.3C73.7943 31.3 74.6109 31.075 75.2609 30.625C75.9276 30.1583 76.3943 29.5417 76.6609 28.775H79.1109C78.7443 30.0917 78.0109 31.1667 76.9109 32C75.8109 32.8167 74.4443 33.225 72.8109 33.225C71.5109 33.225 70.3443 32.9333 69.3109 32.35C68.2943 31.7667 67.4943 30.9417 66.9109 29.875C66.3276 28.7917 66.0359 27.5417 66.0359 26.125C66.0359 24.7083 66.3193 23.4667 66.8859 22.4C67.4526 21.3333 68.2443 20.5167 69.2609 19.95C70.2943 19.3667 71.4776 19.075 72.8109 19.075C74.1109 19.075 75.2609 19.3583 76.2609 19.925C77.2609 20.4917 78.0276 21.275 78.5609 22.275C79.1109 23.2583 79.3859 24.375 79.3859 25.625ZM77.0359 25.15C77.0359 24.2833 76.8443 23.5417 76.4609 22.925C76.0776 22.2917 75.5526 21.8167 74.8859 21.5C74.2359 21.1667 73.5109 21 72.7109 21C71.5609 21 70.5776 21.3667 69.7609 22.1C68.9609 22.8333 68.5026 23.85 68.3859 25.15H77.0359ZM84.6639 21.525C85.0639 20.7417 85.6305 20.1333 86.3639 19.7C87.1139 19.2667 88.0222 19.05 89.0889 19.05V21.4H88.4889C85.9389 21.4 84.6639 22.7833 84.6639 25.55V33H82.3889V19.3H84.6639V21.525Z" fill="black"/>
<path d="M27.6383 36.3L24.1633 32.825C23.3133 33.0583 22.4466 33.175 21.5633 33.175C19.9466 33.175 18.4716 32.8 17.1383 32.05C15.8049 31.2833 14.7466 30.225 13.9633 28.875C13.1966 27.5083 12.8133 25.975 12.8133 24.275C12.8133 22.575 13.1966 21.05 13.9633 19.7C14.7466 18.3333 15.8049 17.275 17.1383 16.525C18.4716 15.7583 19.9466 15.375 21.5633 15.375C23.1966 15.375 24.6799 15.7583 26.0133 16.525C27.3466 17.275 28.3966 18.325 29.1633 19.675C29.9299 21.025 30.3133 22.5583 30.3133 24.275C30.3133 25.9417 29.9466 27.4417 29.2133 28.775C28.4799 30.1083 27.4716 31.1583 26.1883 31.925L30.5883 36.3H27.6383ZM15.1383 24.275C15.1383 25.6583 15.4133 26.875 15.9633 27.925C16.5299 28.975 17.2966 29.7833 18.2633 30.35C19.2466 30.9167 20.3466 31.2 21.5633 31.2C22.7799 31.2 23.8716 30.9167 24.8383 30.35C25.8216 29.7833 26.5883 28.975 27.1383 27.925C27.7049 26.875 27.9883 25.6583 27.9883 24.275C27.9883 22.875 27.7049 21.6583 27.1383 20.625C26.5883 19.575 25.8299 18.7667 24.8633 18.2C23.8966 17.6333 22.7966 17.35 21.5633 17.35C20.3299 17.35 19.2299 17.6333 18.2633 18.2C17.2966 18.7667 16.5299 19.575 15.9633 20.625C15.4133 21.6583 15.1383 22.875 15.1383 24.275Z" fill="#E368D9"/>
<path d="M5.52855 39.168C5.04321 39.168 4.63255 39 4.29655 38.664C3.96055 38.328 3.79255 37.9173 3.79255 37.432C3.79255 36.9467 3.96055 36.536 4.29655 36.2C4.63255 35.864 5.04321 35.696 5.52855 35.696C5.99521 35.696 6.38721 35.864 6.70455 36.2C7.04055 36.536 7.20855 36.9467 7.20855 37.432C7.20855 37.9173 7.04055 38.328 6.70455 38.664C6.38721 39 5.99521 39.168 5.52855 39.168Z" fill="black"/>
<g clip-path="url(#clip0)">
<path d="M100.594 1.50742H92.9552C92.4568 1.50742 91.9968 1.5998 91.5846 1.78418C91.1725 1.96875 90.7891 2.2457 90.4439 2.61484C90.0989 2.98398 89.84 3.39414 89.6675 3.83516C89.495 4.27598 89.4088 4.76836 89.4088 5.30156V13.2793C89.4088 13.8125 89.495 14.3047 89.6675 14.7457C89.84 15.1867 90.0989 15.5967 90.4439 15.966C90.7985 16.3354 91.182 16.6221 91.594 16.7965C92.0063 16.9811 92.4568 17.0734 92.9552 17.0734H96.2333C96.6168 17.0734 96.933 17.4117 96.933 17.8219C96.933 17.9143 96.9138 17.9963 96.8947 18.0783C96.77 18.5707 96.6358 19.0629 96.4824 19.5344C96.3194 20.0371 96.1471 20.5086 95.9552 20.9703C95.8594 21.2061 95.7444 21.4314 95.6199 21.6676C96.2908 21.3494 96.9233 20.9805 97.5081 20.5701C98.1215 20.1395 98.6965 19.6576 99.2236 19.1346C99.7603 18.6014 100.24 18.0168 100.68 17.3912C100.815 17.1967 101.025 17.0941 101.236 17.0941H104.054C104.553 17.0941 105.003 17.0018 105.415 16.8172C105.827 16.6326 106.211 16.3557 106.566 15.9867C106.911 15.6174 107.169 15.2074 107.342 14.7664C107.514 14.3254 107.601 13.833 107.601 13.3V5.32207C107.601 4.78887 107.514 4.29668 107.342 3.85566C107.169 3.41465 106.911 3.00469 106.566 2.63535C106.221 2.26602 105.837 1.98926 105.425 1.80488C105.013 1.62031 104.553 1.52793 104.054 1.52793H100.594V1.50742ZM99.2648 10.8766H97.4436V10.666C97.4436 10.308 97.4779 10.0162 97.5484 9.79277C97.6189 9.56719 97.7233 9.36445 97.8626 9.17891C98.0017 8.99316 98.3142 8.66738 98.8002 8.20137C99.0587 7.95703 99.188 7.7334 99.188 7.53047C99.188 7.32598 99.1356 7.16875 99.0326 7.05508C98.9278 6.94316 98.7706 6.88633 98.5598 6.88633C98.3321 6.88633 98.1456 6.97344 97.997 7.14766C97.848 7.32012 97.7532 7.625 97.712 8.05723L95.8515 7.79004C95.9152 6.99824 96.1639 6.36152 96.596 5.87852C97.0298 5.39551 97.6941 5.15469 98.589 5.15469C99.286 5.15469 99.8474 5.32324 100.276 5.65859C100.857 6.11523 101.148 6.72129 101.148 7.4791C101.148 7.79355 101.073 8.09863 100.922 8.39043C100.774 8.68203 100.466 9.04023 100.003 9.46074C99.6803 9.7582 99.4757 9.99492 99.3906 10.175C99.3074 10.3535 99.2648 10.5883 99.2648 10.8766ZM97.3799 11.4371H99.332V13.1035H97.3799V11.4371ZM96.4154 0.0103516H104.054C104.725 0.0103516 105.358 0.14375 105.952 0.4C106.537 0.65625 107.074 1.04609 107.553 1.55879C108.032 2.07148 108.396 2.6457 108.636 3.27129C108.876 3.89688 109 4.57344 109 5.30176V13.2793C109 14.0076 108.875 14.6842 108.636 15.3098C108.396 15.935 108.032 16.5092 107.553 17.0223C107.074 17.535 106.537 17.9141 105.952 18.1809C105.368 18.4373 104.735 18.5707 104.054 18.5707H101.582C101.15 19.1551 100.681 19.7086 100.182 20.2113C99.588 20.8061 98.9554 21.3389 98.2748 21.8107C97.5942 22.2926 96.8658 22.7133 96.0894 23.0719C95.3226 23.4309 94.4984 23.7283 93.6358 23.9744C93.3866 24.0461 93.1182 23.9641 92.936 23.7486C92.6774 23.4412 92.706 22.9697 92.9935 22.6928C93.3961 22.3133 93.7411 21.9236 94.0192 21.5338C94.2875 21.1547 94.5081 20.7646 94.6709 20.365V20.3547C94.8531 19.924 95.0159 19.483 95.1598 19.042C95.2078 18.8883 95.2556 18.7242 95.3037 18.5602H92.9457C92.2748 18.5602 91.6422 18.4266 91.0478 18.1703C90.4631 17.9139 89.9264 17.5244 89.4471 17.0117C88.9679 16.499 88.6037 15.9246 88.364 15.2992C88.1245 14.6637 88 13.9869 88 13.2691V5.29121C88 4.57324 88.1245 3.89648 88.3642 3.26074C88.6039 2.63516 88.9681 2.06094 89.4473 1.54824C89.9266 1.03555 90.4633 0.645898 91.048 0.389453C91.6328 0.133008 92.2651 0 92.9457 0H96.4058L96.4154 0.0103516Z" fill="black"/>
</g>
<defs>
<clipPath id="clip0">
<rect width="21" height="24" fill="white" transform="translate(88)"/>
</clipPath>
</defs>
</svg>
