<svg width="525" height="341" viewBox="0 0 525 341" fill="none" xmlns="http://www.w3.org/2000/svg">
<g clip-path="url(#clip0)">
<path d="M99.5999 73.2046C116.16 73.2046 129.584 60.6442 129.584 45.1502C129.584 29.6561 116.16 17.0957 99.5999 17.0957C83.0401 17.0957 69.6157 29.6561 69.6157 45.1502C69.6157 60.6442 83.0401 73.2046 99.5999 73.2046Z" fill="#FF6584"/>
<path d="M245.484 150.408C245.484 216.604 203.425 239.717 151.542 239.717C99.6594 239.717 57.6001 216.604 57.6001 150.408C57.6001 84.2117 151.542 0 151.542 0C151.542 0 245.484 84.2117 245.484 150.408Z" fill="#F2F2F2"/>
<path d="M148.12 229.591L149.082 174.191L189.122 105.653L149.233 165.5L149.665 140.59L177.261 91.0038L149.78 133.998L150.557 89.1961L180.108 49.7191L150.68 82.1509L151.166 0L148.111 108.753L148.362 104.267L118.319 61.2394L147.881 112.879L145.081 162.915L144.998 161.587L110.363 116.307L144.893 166.279L144.543 172.536L144.48 172.63L144.509 173.144L137.407 300.09H146.896L148.034 234.52L182.48 184.671L148.12 229.591Z" fill="#3F3D56"/>
<path d="M525 177.52C525 231.704 490.572 250.623 448.104 250.623C405.636 250.623 371.208 231.704 371.208 177.52C371.208 123.335 448.104 54.4038 448.104 54.4038C448.104 54.4038 525 123.335 525 177.52Z" fill="#F2F2F2"/>
<path d="M445.303 242.335L446.09 196.987L478.865 140.886L446.214 189.873L446.568 169.484L469.156 128.895L446.662 164.087L447.298 127.415L471.486 95.1012L447.398 121.649L447.796 54.4038L445.296 143.423L445.502 139.751L420.909 104.531L445.107 146.801L442.816 187.758L442.747 186.67L414.397 149.607L442.661 190.511L442.375 195.633L442.324 195.71L442.347 196.13L436.533 300.042H444.301L445.233 246.369L473.428 205.566L445.303 242.335Z" fill="#3F3D56"/>
<path d="M259.828 310.577C403.327 310.577 519.655 305.075 519.655 298.288C519.655 291.501 403.327 286 259.828 286C116.329 286 0 291.501 0 298.288C0 305.075 116.329 310.577 259.828 310.577Z" fill="#3F3D56"/>
<path d="M418.112 320.696C442.69 320.696 462.615 319.754 462.615 318.592C462.615 317.429 442.69 316.487 418.112 316.487C393.534 316.487 373.61 317.429 373.61 318.592C373.61 319.754 393.534 320.696 418.112 320.696Z" fill="#3F3D56"/>
<path d="M257.076 341C281.654 341 301.579 340.058 301.579 338.895C301.579 337.733 281.654 336.791 257.076 336.791C232.498 336.791 212.574 337.733 212.574 338.895C212.574 340.058 232.498 341 257.076 341Z" fill="#3F3D56"/>
<path d="M134.903 326.68C191.054 326.68 236.574 324.527 236.574 321.872C236.574 319.216 191.054 317.063 134.903 317.063C78.7509 317.063 33.231 319.216 33.231 321.872C33.231 324.527 78.7509 326.68 134.903 326.68Z" fill="#3F3D56"/>
<path d="M45.4838 282.855C65.9248 282.855 82.4955 267.35 82.4955 248.225C82.4955 229.099 65.9248 213.595 45.4838 213.595C25.0429 213.595 8.47217 229.099 8.47217 248.225C8.47217 267.35 25.0429 282.855 45.4838 282.855Z" fill="#2F2E41"/>
<path d="M39.5199 275.339L28.2766 275.215L28.0393 294.063L39.2825 294.187L39.5199 275.339Z" fill="#2F2E41"/>
<path d="M62.0067 275.587L50.7634 275.463L50.5261 294.311L61.7693 294.435L62.0067 275.587Z" fill="#2F2E41"/>
<path d="M46.7753 294.488C46.7982 292.673 42.6219 291.155 37.4473 291.098C32.2727 291.041 28.0594 292.466 28.0365 294.282C28.0137 296.098 32.1899 297.616 37.3645 297.673C42.5391 297.73 46.7524 296.304 46.7753 294.488Z" fill="#2F2E41"/>
<path d="M69.2675 294.298C69.2904 292.483 65.1141 290.964 59.9395 290.907C54.7649 290.85 50.5516 292.276 50.5287 294.092C50.5058 295.907 54.6821 297.425 59.8567 297.482C65.0313 297.539 69.2446 296.114 69.2675 294.298Z" fill="#2F2E41"/>
<path d="M46.5312 251.304C53.5173 251.304 59.1807 246.005 59.1807 239.469C59.1807 232.932 53.5173 227.633 46.5312 227.633C39.545 227.633 33.8816 232.932 33.8816 239.469C33.8816 246.005 39.545 251.304 46.5312 251.304Z" fill="white"/>
<path d="M46.5312 243.414C48.8599 243.414 50.7477 241.647 50.7477 239.469C50.7477 237.29 48.8599 235.523 46.5312 235.523C44.2025 235.523 42.3147 237.29 42.3147 239.469C42.3147 241.647 44.2025 243.414 46.5312 243.414Z" fill="#3F3D56"/>
<path d="M9.98941 215.626C7.15879 203.072 16.8706 190.524 31.6813 187.601C46.492 184.678 60.7932 192.486 63.6238 205.04C66.4544 217.595 56.6064 222.105 41.7957 225.029C26.985 227.952 12.82 228.181 9.98941 215.626Z" fill="#FBC02D"/>
<path d="M101.942 267.544C101.942 291.686 86.6036 300.116 67.6808 300.116C67.2424 300.116 66.8047 300.112 66.3678 300.102C65.491 300.085 64.6226 300.046 63.7647 299.991C46.6871 298.86 33.4192 289.997 33.4192 267.544C33.4192 244.308 65.1549 214.987 67.5388 212.817L67.543 212.813C67.6348 212.729 67.6808 212.688 67.6808 212.688C67.6808 212.688 101.942 243.401 101.942 267.544Z" fill="#FBC02D"/>
<path d="M66.4327 296.423L78.9637 280.04L66.4013 298.222L66.368 300.102C65.4912 300.085 64.6228 300.046 63.7649 299.991L65.1155 275.837L65.105 275.649L65.128 275.614L65.2553 273.333L52.6616 255.106L65.295 271.622L65.3242 272.106L66.345 253.856L55.5632 235.022L66.4765 250.653L67.539 212.817L67.5432 212.688V212.813L67.3657 242.649L78.0995 230.821L67.3219 245.22L67.038 261.56L77.06 245.878L66.9963 263.964L66.8376 273.048L81.3873 251.222L66.7834 276.218L66.4327 296.423Z" fill="#3F3D56"/>
<path d="M333.801 282.48C354.242 282.48 370.812 266.976 370.812 247.85C370.812 228.725 354.242 213.221 333.801 213.221C313.36 213.221 296.789 228.725 296.789 247.85C296.789 266.976 313.36 282.48 333.801 282.48Z" fill="#2F2E41"/>
<path d="M336.96 275.374L326.212 278.465L332.13 296.482L342.878 293.392L336.96 275.374Z" fill="#2F2E41"/>
<path d="M358.455 269.195L347.707 272.286L353.625 290.303L364.373 287.213L358.455 269.195Z" fill="#2F2E41"/>
<path d="M342.188 297.259C347.134 295.836 350.682 293.276 350.112 291.541C349.542 289.805 345.07 289.551 340.123 290.973C335.177 292.396 331.629 294.956 332.199 296.691C332.769 298.427 337.241 298.681 342.188 297.259Z" fill="#2F2E41"/>
<path d="M363.546 290.658C368.493 289.236 372.04 286.676 371.47 284.94C370.9 283.205 366.428 282.951 361.482 284.373C356.535 285.796 352.987 288.356 353.557 290.091C354.127 291.827 358.599 292.081 363.546 290.658Z" fill="#2F2E41"/>
<path d="M331.944 251.048C338.93 251.048 344.593 245.749 344.593 239.212C344.593 232.676 338.93 227.377 331.944 227.377C324.958 227.377 319.294 232.676 319.294 239.212C319.294 245.749 324.958 251.048 331.944 251.048Z" fill="white"/>
<path d="M331.944 243.158C334.273 243.158 336.161 241.392 336.161 239.213C336.161 237.034 334.273 235.268 331.944 235.268C329.615 235.268 327.728 237.034 327.728 239.213C327.728 241.392 329.615 243.158 331.944 243.158Z" fill="#3F3D56"/>
<path d="M289.371 226.934C282.583 215.786 287.742 201.065 300.894 194.054C314.046 187.044 330.211 190.398 336.999 201.547C343.787 212.695 335.879 219.801 322.727 226.812C309.575 233.822 296.16 238.083 289.371 226.934Z" fill="#FBC02D"/>
<path d="M267.792 263.123C267.792 285.285 253.712 293.023 236.342 293.023C235.939 293.023 235.538 293.018 235.136 293.01C234.332 292.994 233.534 292.958 232.747 292.908C217.07 291.87 204.891 283.734 204.891 263.123C204.891 241.793 234.023 214.878 236.211 212.886L236.215 212.883C236.3 212.806 236.342 212.768 236.342 212.768C236.342 212.768 267.792 240.961 267.792 263.123Z" fill="#FBC02D"/>
<path d="M235.196 289.632L246.699 274.594L235.167 291.284L235.136 293.01C234.332 292.994 233.534 292.958 232.747 292.908L233.987 270.735L233.977 270.563L233.998 270.531L234.115 268.437L222.555 251.706L234.152 266.866L234.178 267.311L235.115 250.558L225.218 233.27L235.236 247.618L236.211 212.886L236.215 212.768V212.883L236.052 240.271L245.905 229.413L236.012 242.63L235.752 257.629L244.951 243.234L235.713 259.836L235.568 268.175L248.923 248.14L235.518 271.085L235.196 289.632Z" fill="#3F3D56"/>
<path d="M391.477 272.366C391.477 296.508 376.138 304.938 357.215 304.938C356.777 304.938 356.339 304.933 355.902 304.924C355.025 304.907 354.157 304.868 353.299 304.813C336.222 303.682 322.954 294.819 322.954 272.366C322.954 249.129 354.689 219.809 357.073 217.639L357.077 217.635C357.169 217.551 357.215 217.51 357.215 217.51C357.215 217.51 391.477 248.223 391.477 272.366Z" fill="#FBC02D"/>
<path d="M355.967 301.244L368.498 284.862L355.935 303.043L355.902 304.924C355.025 304.907 354.157 304.868 353.299 304.813L354.65 280.659L354.639 280.471L354.662 280.436L354.789 278.155L342.196 259.928L354.829 276.444L354.858 276.928L355.879 258.678L345.097 239.844L356.011 255.475L357.073 217.639L357.077 217.51V217.635L356.9 247.471L367.634 235.643L356.856 250.041L356.572 266.381L366.594 250.7L356.53 268.786L356.372 277.87L370.921 256.043L356.318 281.039L355.967 301.244Z" fill="#3F3D56"/>
<path d="M336.152 268.58C337.527 265.868 331.155 260.347 321.921 256.249C312.686 252.151 304.085 251.028 302.711 253.741C301.336 256.453 307.707 261.974 316.941 266.072C326.176 270.17 334.777 271.293 336.152 268.58Z" fill="#2F2E41"/>
<path d="M51.2906 265.411C52.4843 262.624 45.7614 257.481 36.2746 253.923C26.7878 250.365 18.1295 249.74 16.9358 252.527C15.7421 255.313 22.465 260.456 31.9518 264.014C41.4386 267.572 50.0969 268.197 51.2906 265.411Z" fill="#2F2E41"/>
</g>
<defs>
<clipPath id="clip0">
<rect width="525" height="341" fill="white"/>
</clipPath>
</defs>
</svg>
