<svg width="522" height="374" viewBox="0 0 522 374" fill="none" xmlns="http://www.w3.org/2000/svg">
<g clip-path="url(#clip0)">
<path opacity="0.1" d="M52.5048 37.4492C49.256 38.747 45.9216 40.4129 44.1363 43.3331C42.2453 46.4179 42.4716 50.2485 42.8236 53.8176C45.8914 84.7724 53.9734 117.693 40.0174 145.733C33.243 159.336 21.9123 170.237 12.8999 182.591C3.88764 194.945 -2.91686 210.369 1.26742 224.902C6.37708 242.66 25.4478 252.506 38.3024 266.172C46.7162 275.107 52.6155 285.964 60.4661 295.364C68.3166 304.764 79.0741 313.045 91.6068 313.597C109.631 314.396 124.297 299.408 141.969 295.935C160.074 292.381 178.305 301.427 192.985 312.255C207.665 323.084 221.018 336.203 238.122 342.963C257.012 350.435 278.306 349.293 298.191 353.782C316.296 357.874 332.963 366.576 350.937 371.216C368.911 375.855 389.979 375.574 403.905 363.724C422.055 348.227 420.627 320.624 432.219 300.124C442.986 281.078 464.064 269.707 478.251 252.869C503.779 222.563 502.944 176.242 481.269 143.282C459.593 110.323 420.33 90.3658 380.182 85.1695C362.077 82.8305 343.434 83.1501 326.028 77.828C279.437 63.5903 251.711 12.5769 204.145 1.96158C173.91 -4.77467 144.504 6.89149 118.749 21.2502C96.3946 33.7154 75.7699 28.156 52.5048 37.4492Z" fill="#FBC02D"/>
<path d="M97.9084 137.452C97.9084 137.452 80.7437 153.05 62.3218 153.515C54.5859 153.663 47.1088 156.224 41.0131 160.813C38.1318 163.006 35.4653 165.449 33.0469 168.111" stroke="#535461" stroke-width="2" stroke-miterlimit="10"/>
<path d="M21.4295 168.494C23.9038 167.283 33.3486 168.087 33.3486 168.087C33.3486 168.087 28.4502 175.908 25.9758 177.118C25.3832 177.457 24.7248 177.674 24.0413 177.757C23.3579 177.84 22.664 177.787 22.0026 177.602C21.3413 177.416 20.7267 177.101 20.1969 176.677C19.6671 176.253 19.2334 175.729 18.9226 175.137C18.6119 174.545 18.4309 173.898 18.3907 173.235C18.3504 172.573 18.452 171.91 18.6889 171.287C18.9258 170.664 19.2931 170.095 19.768 169.614C20.2429 169.134 20.8152 168.752 21.4496 168.494H21.4295Z" fill="#FBC02D"/>
<path d="M31.3722 154.667C34.1332 154.948 41.6066 160.566 41.6066 160.566C41.6066 160.566 33.057 164.566 30.3211 164.29C29.0411 164.104 27.885 163.449 27.0933 162.463C26.3016 161.477 25.9354 160.235 26.0708 158.995C26.2062 157.755 26.8329 156.614 27.8203 155.807C28.8078 155.001 30.08 154.593 31.3722 154.667V154.667Z" fill="#FBC02D"/>
<path d="M54.949 143.524C57.182 145.108 60.6923 153.592 60.6923 153.592C60.6923 153.592 51.2324 152.9 48.9995 151.321C47.993 150.538 47.3387 149.412 47.1725 148.176C47.0064 146.94 47.3412 145.691 48.1073 144.687C48.8735 143.683 50.012 143.002 51.2862 142.785C52.5604 142.569 53.8723 142.833 54.949 143.524V143.524Z" fill="#FBC02D"/>
<path d="M74.7591 138.967C77.2385 140.163 82.1872 147.955 82.1872 147.955C82.1872 147.955 72.7424 148.812 70.263 147.616C69.6374 147.353 69.074 146.97 68.607 146.491C68.1401 146.011 67.7794 145.445 67.5469 144.827C67.3145 144.209 67.2151 143.552 67.2549 142.896C67.2947 142.24 67.4727 141.598 67.7783 141.01C68.0838 140.423 68.5105 139.901 69.0322 139.477C69.5539 139.053 70.1597 138.736 70.8128 138.545C71.4659 138.354 72.1526 138.292 72.8311 138.365C73.5095 138.438 74.1655 138.643 74.7591 138.967V138.967Z" fill="#FBC02D"/>
<path d="M46.8621 169.385C47.6869 166.833 45.2729 158 45.2729 158C45.2729 158 38.0912 163.966 37.2664 166.518C37.034 167.134 36.9339 167.789 36.972 168.443C37.0102 169.098 37.1859 169.738 37.4885 170.325C37.7911 170.912 38.2143 171.434 38.7324 171.858C39.2506 172.283 39.8529 172.603 40.503 172.797C41.153 172.991 41.8372 173.056 42.5142 172.988C43.1911 172.92 43.8467 172.721 44.4413 172.402C45.0358 172.083 45.5569 171.651 45.973 171.132C46.3891 170.614 46.6916 170.019 46.8621 169.385V169.385Z" fill="#FBC02D"/>
<path d="M69.9612 163.752C69.9612 161.079 64.9068 153.35 64.9068 153.35C64.9068 153.35 59.9078 161.098 59.9128 163.781C59.9168 165.066 60.4505 166.296 61.3965 167.201C62.3425 168.107 63.6233 168.613 64.9571 168.61C66.2909 168.606 67.5685 168.092 68.5089 167.181C69.4492 166.27 69.9752 165.037 69.9712 163.752H69.9612Z" fill="#FBC02D"/>
<path d="M91.6318 155.345C92.0945 152.711 88.4735 144.27 88.4735 144.27C88.4735 144.27 82.182 151.108 81.7243 153.742C81.5698 154.978 81.9154 156.224 82.6896 157.221C83.4637 158.218 84.6068 158.89 85.8817 159.097C87.1565 159.304 88.4651 159.03 89.5358 158.332C90.6066 157.635 91.3572 156.567 91.6318 155.35V155.345Z" fill="#FBC02D"/>
<path d="M120.213 96.1429C120.213 96.1429 99.5377 85.2079 93.392 68.4569C90.8671 61.413 86.037 55.3481 79.6271 51.1732C76.5683 49.2132 73.3293 47.5274 69.9509 46.1367" stroke="#535461" stroke-width="2" stroke-miterlimit="10"/>
<path d="M66.0284 35.6041C67.9848 37.4976 70.092 46.4034 70.092 46.4034C70.092 46.4034 60.8584 44.321 58.902 42.4227C58.0381 41.4988 57.5762 40.2904 57.612 39.0477C57.6479 37.805 58.1786 36.6231 59.0945 35.7469C60.0103 34.8706 61.241 34.367 62.5318 34.3405C63.8226 34.3139 65.0745 34.7663 66.0284 35.6041V35.6041Z" fill="#FBC02D"/>
<path d="M82.7504 40.4609C83.3238 43.076 80.0699 51.6525 80.0699 51.6525C80.0699 51.6525 73.4967 45.0712 72.9234 42.4513C72.7532 41.8177 72.7182 41.1574 72.8204 40.5104C72.9226 39.8634 73.1599 39.2431 73.5181 38.6869C73.8762 38.1306 74.3477 37.6501 74.9041 37.2742C75.4605 36.8984 76.0903 36.635 76.7553 36.5001C77.4203 36.3651 78.1069 36.3614 78.7735 36.489C79.4401 36.6167 80.0729 36.8732 80.6337 37.2429C81.1945 37.6126 81.6716 38.088 82.0363 38.6403C82.401 39.1925 82.6456 39.8102 82.7555 40.4561L82.7504 40.4609Z" fill="#FBC02D"/>
<path d="M101.006 58.6651C100.131 61.1979 92.8238 67.0237 92.8238 67.0237C92.8238 67.0237 90.6009 58.1469 91.476 55.6094C91.8968 54.3892 92.8038 53.38 93.9973 52.8037C95.1909 52.2275 96.5733 52.1314 97.8405 52.5366C99.1076 52.9419 100.156 53.8152 100.754 54.9645C101.353 56.1138 101.452 57.445 101.031 58.6651H101.006Z" fill="#FBC02D"/>
<path d="M111.608 75.3966C111.19 78.0359 105.01 84.9659 105.01 84.9659C105.01 84.9659 101.258 76.5782 101.675 73.9389C101.745 73.2867 101.951 72.6548 102.282 72.0816C102.613 71.5084 103.061 71.0059 103.599 70.6045C104.138 70.203 104.755 69.9111 105.414 69.7463C106.073 69.5815 106.76 69.5473 107.433 69.6457C108.107 69.7442 108.752 69.9733 109.331 70.3191C109.909 70.6649 110.409 71.1203 110.799 71.6576C111.189 72.1949 111.462 72.8029 111.601 73.4448C111.74 74.0866 111.743 74.749 111.608 75.3918V75.3966Z" fill="#FBC02D"/>
<path d="M72.9636 59.1833C75.7397 59.1542 83.7261 54.2243 83.7261 54.2243C83.7261 54.2243 75.624 49.4784 72.8479 49.5075C71.5141 49.5222 70.241 50.0466 69.3087 50.9652C68.3764 51.8839 67.8612 53.1215 67.8766 54.4059C67.8919 55.6903 68.4365 56.9162 69.3905 57.8139C70.3445 58.7117 71.6298 59.2077 72.9636 59.1929V59.1833Z" fill="#FBC02D"/>
<path d="M85.617 78.6219C88.2523 77.7938 94.3426 70.7912 94.3426 70.7912C94.3426 70.7912 85.1342 68.5974 82.4989 69.4256C81.8486 69.6043 81.2424 69.9074 80.7165 70.3169C80.1907 70.7264 79.756 71.2339 79.4385 71.8089C79.121 72.3838 78.9272 73.0146 78.8687 73.6634C78.8102 74.3121 78.8882 74.9656 79.098 75.5847C79.3078 76.2038 79.6451 76.7757 80.0897 77.2664C80.5344 77.7571 81.0772 78.1563 81.6858 78.4403C82.2944 78.7243 82.9562 78.8872 83.6317 78.9193C84.3071 78.9513 84.9824 78.8518 85.617 78.6268V78.6219Z" fill="#FBC02D"/>
<path d="M100.604 95.8909C103.35 95.5035 110.582 89.5954 110.582 89.5954C110.582 89.5954 101.891 85.9343 99.1505 86.3217C98.4755 86.3887 97.8215 86.5865 97.228 86.9033C96.6344 87.2201 96.1136 87.6493 95.6969 88.1651C95.2802 88.6808 94.9761 89.2724 94.8031 89.9043C94.6301 90.5362 94.5917 91.1952 94.6902 91.8417C94.7887 92.4883 95.0221 93.1089 95.3762 93.6663C95.7304 94.2237 96.1981 94.7064 96.7511 95.0851C97.3041 95.4639 97.9309 95.731 98.594 95.8703C99.257 96.0096 99.9424 96.0183 100.609 95.8958L100.604 95.8909Z" fill="#FBC02D"/>
<path d="M262.494 361.467C363.041 361.467 444.551 282.979 444.551 186.16C444.551 89.3402 363.041 10.8525 262.494 10.8525C161.947 10.8525 80.437 89.3402 80.437 186.16C80.437 282.979 161.947 361.467 262.494 361.467Z" fill="url(#paint0_linear)"/>
<path d="M262.494 358.561C361.374 358.561 441.533 281.375 441.533 186.16C441.533 90.9451 361.374 13.7583 262.494 13.7583C163.613 13.7583 83.4543 90.9451 83.4543 186.16C83.4543 281.375 163.613 358.561 262.494 358.561Z" fill="#FBC02D"/>
<path d="M262.494 323.209C341.098 323.209 404.82 261.85 404.82 186.16C404.82 110.47 341.098 49.1104 262.494 49.1104C183.889 49.1104 120.167 110.47 120.167 186.16C120.167 261.85 183.889 323.209 262.494 323.209Z" fill="#DDE1EC"/>
<path opacity="0.3" d="M266.517 73.3237H258.47V194.392H266.517V73.3237Z" fill="#535461"/>
<g opacity="0.1">
<path opacity="0.1" d="M384.703 183.254H271.043V192.94H384.703V183.254Z" fill="black"/>
<path opacity="0.1" d="M190.798 147.018L186.132 155.598L257.648 191.661L262.314 183.081L190.798 147.018Z" fill="black"/>
<path opacity="0.1" d="M262.494 202.625C270.826 202.625 277.581 196.121 277.581 188.097C277.581 180.073 270.826 173.569 262.494 173.569C254.161 173.569 247.406 180.073 247.406 188.097C247.406 196.121 254.161 202.625 262.494 202.625Z" fill="black"/>
</g>
<path d="M384.703 181.317H271.043V191.002H384.703V181.317Z" fill="#535461"/>
<path d="M262.347 181.155L190.831 145.092L186.165 153.672L257.681 189.735L262.347 181.155Z" fill="#535461"/>
<path d="M262.494 200.688C270.826 200.688 277.581 194.183 277.581 186.16C277.581 178.136 270.826 171.631 262.494 171.631C254.161 171.631 247.406 178.136 247.406 186.16C247.406 194.183 254.161 200.688 262.494 200.688Z" fill="#535461"/>
<g opacity="0.1">
<path opacity="0.1" d="M131.222 202.625C131.222 126.933 194.941 65.5757 273.548 65.5757C295.611 65.5569 317.375 70.4851 337.117 79.9699C356.859 89.4547 374.036 103.236 387.288 120.221C363.067 77.8375 316.296 49.1104 262.484 49.1104C183.877 49.1104 120.157 110.468 120.157 186.16C120.111 215.895 130.154 244.831 148.758 268.564C137.221 248.364 131.188 225.679 131.222 202.625V202.625Z" fill="black"/>
</g>
<path d="M393.997 85.3435C392.307 83.7793 378.085 94.0604 378.085 94.0604C378.085 94.0604 373.02 94.9515 374.227 98.2978C375.434 101.644 368.922 120.386 368.922 120.386L366.271 116.816C366.528 112.627 365.331 109.659 364.164 107.809C364.068 107.659 363.973 107.514 363.877 107.378L364.34 107.223C364.164 104.937 360.367 101.455 358.35 99.7506C358.35 99.5037 358.35 99.2664 358.35 99.0146C358.476 96.2832 359.613 93.4018 358.35 90.9272C356.922 88.1039 352.743 86.6849 352.391 83.5856C352.179 81.7357 353.477 80.0649 354.05 78.2828C355.418 74.0212 352.577 69.6724 349.861 66.0016C348.941 64.6253 347.822 63.3827 346.537 62.3114C345.312 61.4497 343.968 60.7584 342.543 60.2581C338.565 58.7084 334.497 57.9287 330.393 56.8682C326.455 55.8609 322.824 55.3815 318.826 56.6454C317.877 56.8918 317.011 57.3706 316.311 58.0353C315.361 59.0619 315.235 60.5244 314.611 61.7497C313.605 63.7207 311.438 64.8974 309.522 66.1614C307.606 67.4254 305.684 69.1591 305.674 71.3383C305.674 74.4328 309.346 76.3796 310.573 79.261C311.72 81.9439 310.573 84.9319 309.934 87.76C309.667 88.6741 309.641 89.6378 309.859 90.564C310.112 91.2542 310.494 91.8942 310.985 92.4526C311.745 93.4212 312.559 94.3219 313.369 95.2421L312.997 95.3825C306.248 94.7142 301.908 102.966 301.908 102.966C302.219 103.029 302.516 103.102 302.808 103.184L302.521 103.543C300.482 106.093 298.815 108.9 297.567 111.887L292.035 119.025C292.035 119.025 290.828 101.174 293.725 97.1598C296.622 93.1451 291.075 90.6899 291.075 90.6899C291.075 90.6899 279.005 77.7501 277.33 78.8639C275.655 79.9777 281.429 94.0362 286.493 96.2687C286.493 96.2687 286.996 100.729 285.99 103.63C285.382 105.465 282.133 124.826 282.133 124.826C282.133 124.826 279.241 141.112 292.503 133.059C301.118 127.839 306.685 118.85 309.522 113.204C309.72 112.807 309.906 112.427 310.08 112.066C310.211 112.665 310.3 113.271 310.347 113.882L310.849 132.541C310.977 137.156 309.931 141.731 307.802 145.868L301.892 157.408L302.551 157.602L302.154 158.154C298.261 163.67 291.643 176.072 305.267 182.392L323.372 184.625L322.407 189.085C322.407 189.085 314.933 202.693 312.761 212.063C311.411 217.802 309.303 223.35 306.489 228.572L307.047 228.858C306.932 228.984 306.811 229.115 306.695 229.25C305.597 230.439 304.872 231.903 304.603 233.473L302.149 236.824C302.149 236.824 301.183 250.655 303.115 254.006C304.171 255.837 307.676 256.999 310.658 257.677C315.084 258.689 318.655 254.287 316.306 250.66L316.276 250.612H316.231C315.728 248.36 314.189 241.372 314.692 238.718C314.833 237.962 314.963 237.212 315.029 236.447C315.15 235.441 315.467 234.467 315.964 233.575C316.045 233.425 316.13 233.28 316.216 233.134L316.477 233.241C317.287 233.575 318.086 233.89 318.846 234.166C317.669 235.197 316.834 237.333 317.84 241.725C317.84 241.725 317.936 252.713 318.806 254.442C319.676 256.171 329.412 258.457 331.102 256.675C332.792 254.893 330.016 248.752 330.016 248.752L329.93 248.81C329.372 245.251 328.683 238.878 330.378 236.369C331.062 235.357 331.726 234.311 332.319 233.333L332.686 232.727C335.835 234.238 339.164 235.376 340.984 234.587C340.984 234.587 348.941 216.737 348.458 214.509C347.975 212.281 360.754 187.065 360.754 187.065C360.754 187.065 371.602 175.443 358.345 167.433C354.136 164.881 351.068 163.166 348.84 162.009L346.974 152.614C346.015 147.689 346.187 142.621 347.477 137.766L349.489 130.376L349.655 129.747C349.655 129.747 354.719 119.708 354.478 115.02C354.459 114.656 354.501 114.291 354.603 113.94C354.659 114.163 354.719 114.395 354.784 114.637C356.115 119.51 357.868 124.266 360.025 128.856C363.872 137.214 369.58 136.551 372.709 135.364C373.378 135.115 373.973 134.709 374.439 134.183C374.905 133.657 375.228 133.028 375.379 132.352C376.506 127.151 379.599 112.579 379.795 108.555C379.97 105.408 380.373 102.277 381.002 99.184C388.938 94.7142 395.687 86.9077 393.997 85.3435Z" fill="url(#paint1_linear)"/>
<path d="M334.959 228.311C334.959 228.311 333.898 230.359 332.445 232.819C331.876 233.788 331.243 234.829 330.594 235.832C328.296 239.372 330.594 250.65 330.594 250.65L325.565 251.314L320.536 248.893L319.615 240.708V234.723L325.349 228.548L327.863 225.875L334.959 228.311Z" fill="#F8BDC5"/>
<g opacity="0.1">
<path opacity="0.1" d="M334.959 228.311C334.959 228.311 333.898 230.359 332.445 232.819C330.224 231.677 328.078 230.406 326.017 229.013L325.575 228.713L325.338 228.548L327.853 225.875L334.959 228.311Z" fill="black"/>
</g>
<path d="M359.547 186.944C359.547 186.944 347.371 211.937 347.834 214.151C348.297 216.364 340.713 234.059 340.713 234.059C338.983 234.844 335.804 233.715 332.807 232.219C330.546 231.059 328.363 229.765 326.269 228.345L325.826 228.044L325.56 227.86L345.546 174.551L327.863 162.062L326.556 161.137L318.65 155.52L342.79 159.723C342.79 159.723 343.63 159.621 348.07 162.014C350.203 163.161 353.165 164.881 357.259 167.467C369.877 175.443 359.547 186.944 359.547 186.944Z" fill="#5E52AD"/>
<g opacity="0.03">
<path opacity="0.03" d="M359.547 186.944C359.547 186.944 347.371 211.937 347.834 214.151C348.297 216.364 340.713 234.059 340.713 234.059C338.983 234.844 335.804 233.715 332.807 232.219C330.546 231.059 328.363 229.765 326.269 228.345L325.826 228.044L325.56 227.86L345.546 174.551L327.863 162.062L326.556 161.137L318.65 155.52L342.79 159.723C342.79 159.723 343.63 159.621 348.07 162.014C350.203 163.161 353.165 164.881 357.259 167.467C369.877 175.443 359.547 186.944 359.547 186.944Z" fill="black"/>
</g>
<path d="M322.557 232.732C322.557 232.732 316.583 231.846 318.655 241.139C318.655 241.139 318.745 252.035 319.575 253.73C320.405 255.425 329.684 257.711 331.288 255.943C332.892 254.176 330.252 248.093 330.252 248.093C330.252 248.093 323.478 252.849 321.637 247.759C319.796 242.67 322.557 232.732 322.557 232.732Z" fill="#5D3E53"/>
<path d="M318.418 230.965C317.766 231.563 317.236 232.272 316.854 233.057C316.379 233.946 316.078 234.911 315.964 235.905C315.904 236.66 315.778 237.411 315.647 238.156C315.074 241.309 317.271 250.651 317.271 250.651L308.541 251.978L305.327 248.66L304.638 241.362C305.496 238.86 305.96 236.248 306.016 233.614C306.016 231.711 307.022 230.011 308.028 228.771C308.71 227.944 309.491 227.198 310.356 226.548C310.356 226.548 320.259 229.415 318.418 230.965Z" fill="#F8BDC5"/>
<g opacity="0.1">
<path opacity="0.1" d="M318.418 230.965C317.766 231.563 317.236 232.272 316.854 233.057C313.278 231.502 309.522 229.541 308.154 228.815L308.048 228.761C308.73 227.934 309.512 227.188 310.377 226.539C310.377 226.539 320.259 229.415 318.418 230.965Z" fill="black"/>
</g>
<path d="M346.677 180.31C346.677 180.31 340.939 190.707 337.258 199.332C334.844 204.998 329.855 218.49 326.696 227.081L326.234 228.35C324.846 232.151 323.92 234.723 323.92 234.723C323.308 234.726 322.699 234.64 322.115 234.466C321.572 234.325 320.963 234.137 320.314 233.904L319.585 233.638C318.861 233.367 318.076 233.052 317.327 232.722C313.676 231.153 309.783 229.11 308.37 228.364L307.837 228.078C310.532 222.878 312.545 217.375 313.827 211.695C315.894 202.407 323.015 188.934 323.015 188.934L323.935 184.508L306.705 182.295C293.725 176.048 300.032 163.733 303.738 158.265C304.37 157.316 305.053 156.4 305.785 155.52L319.57 158.425C319.57 158.425 321.743 159.093 326.571 161.152L328.789 162.12C331.494 163.316 334.824 164.856 338.847 166.832C352.416 173.438 346.677 180.31 346.677 180.31Z" fill="#5E52AD"/>
<path d="M317.186 249.987C317.678 250.785 317.913 251.704 317.863 252.63C317.812 253.557 317.478 254.448 316.903 255.191C316.327 255.935 315.536 256.498 314.629 256.81C313.722 257.121 312.739 257.167 311.805 256.941C308.983 256.268 305.639 255.115 304.633 253.299C302.798 249.982 303.713 236.268 303.713 236.268L306.127 232.839C306.127 232.839 304.865 247.992 307.852 249.304C310.839 250.617 317.156 249.919 317.156 249.919L317.186 249.987Z" fill="#5D3E53"/>
<path d="M319.63 57.6284C318.713 57.8743 317.88 58.3506 317.216 59.0086C316.311 60.0256 316.21 61.4784 315.597 62.6939C314.641 64.631 312.579 65.8175 310.749 67.0524C308.918 68.2873 307.093 70.0258 307.083 72.1857C307.083 75.256 310.603 77.1834 311.75 80.0358C312.841 82.6993 311.75 85.6582 311.141 88.4621C310.887 89.37 310.863 90.3232 311.071 91.2419C311.311 91.9233 311.675 92.558 312.147 93.116C314.365 96.0217 317.121 98.598 318.604 101.906C319.731 104.419 320.043 107.194 320.339 109.92C320.767 113.843 321.194 117.838 320.42 121.712C320.345 121.944 320.345 122.193 320.42 122.424C320.552 122.647 320.76 122.818 321.008 122.909C322.472 123.593 324.064 123.986 325.689 124.063C327.314 124.14 328.939 123.9 330.465 123.357C331.991 122.814 333.388 121.98 334.571 120.904C335.753 119.829 336.698 118.534 337.348 117.097C338.354 114.904 338.741 112.255 340.733 110.831C340.965 110.646 341.245 110.524 341.543 110.477C342.012 110.49 342.467 110.636 342.85 110.899C345.435 112.245 348.568 112.284 351.45 111.732C353.19 111.397 354.97 110.802 356.122 109.494C358.39 106.898 357.128 103.019 357.279 99.6343C357.4 96.9273 358.481 94.07 357.279 91.6196C355.921 88.8205 351.933 87.4161 351.601 84.3555C351.4 82.5249 352.637 80.8639 353.185 79.1011C354.488 74.8734 351.782 70.5634 349.197 66.9265C348.327 65.5698 347.262 64.3388 346.034 63.2702C344.874 62.42 343.594 61.735 342.232 61.2363C338.445 59.7011 334.582 58.9263 330.664 57.8802C326.913 56.8487 323.458 56.3693 319.63 57.6284Z" fill="#85555C"/>
<path d="M338.867 120.807H325.54V100.012C325.936 98.0152 326.168 95.9911 326.234 93.9589C326.234 93.2761 326.234 92.5787 326.234 91.8765C326.108 89.3971 325.575 86.9224 324.177 85.4115C320.5 81.4307 336.121 82.0942 336.121 82.0942C336.6 83.9221 337.222 85.7126 337.982 87.4503C339.113 90.1617 340.619 92.7141 342.458 95.0388C344.076 97.1074 346.149 98.8058 348.528 100.012C357.701 104.439 338.867 120.807 338.867 120.807Z" fill="#F8BDC5"/>
<g opacity="0.1">
<path opacity="0.1" d="M337.967 87.4503C336.614 89.1492 334.804 90.4596 332.733 91.2397C330.662 92.0199 328.41 92.2401 326.218 91.8765C326.093 89.3971 325.56 86.9224 324.162 85.4115C320.485 81.4307 336.106 82.0942 336.106 82.0942C336.585 83.9221 337.207 85.7126 337.967 87.4503V87.4503Z" fill="black"/>
</g>
<path d="M328.296 91.3924C335.02 91.3924 340.471 86.1433 340.471 79.6681C340.471 73.193 335.02 67.9438 328.296 67.9438C321.571 67.9438 316.12 73.193 316.12 79.6681C316.12 86.1433 321.571 91.3924 328.296 91.3924Z" fill="#F8BDC5"/>
<path d="M378.834 99.7943C378.236 102.862 377.853 105.965 377.687 109.083C377.501 113.068 374.554 127.519 373.478 132.677C373.342 133.338 373.039 133.957 372.595 134.478C372.151 134.999 371.58 135.407 370.933 135.664C367.946 136.841 362.514 137.5 358.863 129.214C356.804 124.655 355.134 119.942 353.869 115.122C353.422 113.501 353.086 111.854 352.863 110.192L360.91 105.988C361.667 106.67 362.309 107.463 362.811 108.337C363.922 110.172 365.064 113.117 364.823 117.267L367.337 120.807C367.337 120.807 373.538 102.225 372.366 98.9081C371.195 95.5908 376.043 94.7046 376.043 94.7046C376.043 94.7046 389.596 84.5348 391.206 86.0796C392.815 87.6245 386.413 95.368 378.834 99.7943Z" fill="#F8BDC5"/>
<path d="M312.906 108.642C312.278 110.372 311.557 112.07 310.744 113.727C308.038 119.33 302.737 128.255 294.53 133.418C281.896 141.379 284.652 125.233 284.652 125.233C284.652 125.233 287.745 106.037 288.329 104.221C289.249 101.344 288.786 96.9227 288.786 96.9227C283.963 94.7096 278.451 80.777 280.056 79.668C281.66 78.5591 293.131 91.3923 293.131 91.3923C293.131 91.3923 298.417 93.8137 295.646 97.8089C292.875 101.804 294.037 119.485 294.037 119.485L299.353 112.42C300.535 109.471 302.123 106.689 304.075 104.148C305.081 102.826 305.785 102.027 305.785 102.027L312.906 108.642Z" fill="#F8BDC5"/>
<g opacity="0.1">
<path opacity="0.1" d="M362.816 108.337C361.126 108.937 354.583 111.48 353.859 115.117C353.412 113.497 353.076 111.85 352.853 110.187L360.9 105.983C361.663 106.666 362.31 107.46 362.816 108.337Z" fill="black"/>
</g>
<g opacity="0.1">
<path opacity="0.1" d="M312.906 108.642C312.278 110.372 311.557 112.069 310.744 113.727C310.432 111.538 309.149 105.94 304.075 104.133C305.081 102.811 305.785 102.012 305.785 102.012L312.906 108.642Z" fill="black"/>
</g>
<g opacity="0.1">
<path opacity="0.1" d="M338.867 120.807H325.54V100.012C325.936 98.0153 326.168 95.9912 326.234 93.959C328.975 96.5063 328.296 100.453 328.296 100.453L335.417 115.95L338.867 102.25L337.72 100.482L342.448 95.068C344.066 97.1365 346.139 98.8349 348.518 100.041C357.701 104.439 338.867 120.807 338.867 120.807Z" fill="black"/>
</g>
<g opacity="0.1">
<path opacity="0.1" d="M348.282 163.268C348.282 163.268 337.841 162.469 328.784 162.091L327.873 162.052C326.586 162.004 325.359 161.965 324.157 161.936C315.366 161.733 305.423 158.774 303.733 158.256C304.367 157.31 305.052 156.397 305.785 155.52L319.57 158.425C319.57 158.425 321.743 159.093 326.571 161.152L318.65 155.52L342.79 159.723C342.79 159.723 343.63 159.621 348.07 162.014L348.282 163.268Z" fill="black"/>
</g>
<path d="M338.867 103.112L337.72 101.344L342.82 95.4699C342.82 95.4699 353.336 100.434 356.092 99.3441C356.092 99.3441 362.756 104.671 362.982 107.751C362.982 107.751 353.336 110.846 353.562 115.499C353.789 120.153 348.986 130.095 348.986 130.095L346.974 138.047C345.736 142.866 345.565 147.882 346.471 152.769L348.307 162.614C348.307 162.614 333.833 161.51 324.167 161.288C314.5 161.065 303.492 157.53 303.492 157.53L309.129 146.106C311.162 141.983 312.158 137.457 312.036 132.895L311.533 114.4C311.533 114.4 311.076 105.112 303.487 103.562C303.487 103.562 307.621 95.3779 314.048 96.0413C314.048 96.0413 323.412 92.2785 326.193 94.8209C328.974 97.3634 328.291 101.349 328.291 101.349L335.412 116.846L338.867 103.112Z" fill="#ED677B"/>
<g opacity="0.1">
<path opacity="0.1" d="M319.509 77.2511C321.355 77.2511 322.803 75.3673 324.649 75.4642C325.605 75.5126 326.425 76.0986 327.214 76.6264C330.198 78.6159 333.518 80.0907 337.026 80.9849C338.389 81.3336 339.832 81.5951 341.2 81.2755C342.568 80.9558 343.851 79.9195 344.007 78.5684C344.045 77.9729 343.963 77.3759 343.765 76.8105C342.217 71.6153 338.713 67.1624 333.938 64.321C332.027 63.1927 329.693 62.3307 327.576 63.0377C325.665 63.6721 324.433 65.3961 323.05 66.815C322.008 67.8775 320.824 68.8024 319.529 69.5657C318.524 70.1517 317.015 70.5343 316.437 71.6093C315.345 73.6142 317.06 77.2318 319.509 77.2511Z" fill="black"/>
</g>
<path d="M319.509 76.8107C321.355 76.8107 322.803 74.9269 324.649 75.0237C325.605 75.0722 326.425 75.6581 327.214 76.186C330.198 78.1755 333.518 79.6502 337.026 80.5445C338.389 80.8931 339.832 81.1547 341.2 80.835C342.568 80.5154 343.851 79.4791 344.007 78.1279C344.045 77.5325 343.963 76.9355 343.765 76.37C342.217 71.1749 338.713 66.722 333.938 63.8806C332.027 62.7522 329.693 61.8902 327.576 62.5973C325.665 63.2317 324.433 64.9557 323.05 66.3746C322.008 67.4371 320.824 68.362 319.529 69.1253C318.524 69.7113 317.015 70.0938 316.437 71.1689C315.345 73.1932 317.06 76.7865 319.509 76.8107Z" fill="#85555C"/>
<path opacity="0.05" d="M313.942 127.33C313.942 127.33 325.197 131.311 332.55 128.216L336.226 128.439C336.226 128.439 342.337 132.565 348.799 130.72" fill="black"/>
<path opacity="0.05" d="M367.237 120.696C367.237 120.696 365.401 124.899 366.316 126.226Z" fill="black"/>
<path opacity="0.05" d="M293.956 119.369C293.956 119.369 294.877 123.572 293.956 124.899Z" fill="black"/>
<path d="M484.472 215.153C484.472 215.153 463.43 235.415 475.309 265.479C487.188 295.543 454.951 345.539 454.951 345.539C454.951 345.539 455.298 345.491 455.957 345.384C499.172 338.038 520.642 290.448 496.613 255.091C487.656 241.943 480.323 226.524 484.472 215.153Z" fill="#FBC02D"/>
<path opacity="0.1" d="M484.472 215.492C484.472 215.492 463.43 235.754 475.309 265.818C487.188 295.882 454.951 345.873 454.951 345.873C454.951 345.873 455.298 345.825 455.957 345.718C499.172 338.372 520.642 290.782 496.613 255.425C487.656 242.282 480.323 226.863 484.472 215.492Z" fill="black"/>
<path d="M484.472 215.153C484.472 215.153 472.593 239.987 484.472 260.249C496.351 280.511 486.484 337.37 454.946 345.539" stroke="#535461" stroke-miterlimit="10"/>
<path d="M521.95 297.102C521.95 297.102 497.941 293.422 495.753 314.139C493.565 334.856 449.57 337.728 449.57 337.728L450.395 338.256C486.705 361.21 521.422 352.876 516.186 322.396C514.255 311.069 514.416 299.688 521.95 297.102Z" fill="#FBC02D"/>
<path d="M521.95 297.102C521.95 297.102 503.312 301.039 504.851 317.359C506.39 333.679 477.19 353.239 449.59 337.733" stroke="#535461" stroke-miterlimit="10"/>
<path d="M500.827 338.483C500.827 338.483 481.918 334.841 476.873 329.984C471.829 325.127 449.137 316.633 446.618 322.72C444.098 328.807 412.58 349.428 434.009 353.069C455.439 356.711 484.437 357.912 490.739 355.491C497.04 353.069 500.827 338.483 500.827 338.483Z" fill="#A8A8A8"/>
<path opacity="0.2" d="M434.01 350.798C455.444 354.44 484.437 355.641 490.739 353.22C495.542 351.37 498.876 342.488 500.194 338.353L500.822 338.478C500.822 338.478 497.04 353.045 490.739 355.472C484.437 357.898 455.439 356.687 434.01 353.05C427.824 351.999 426.053 349.53 426.722 346.406C427.245 348.445 429.403 350.014 434.01 350.798Z" fill="black"/>
</g>
<defs>
<linearGradient id="paint0_linear" x1="262.494" y1="361.467" x2="262.494" y2="10.8525" gradientUnits="userSpaceOnUse">
<stop stop-color="#808080" stop-opacity="0.25"/>
<stop offset="0.54" stop-color="#808080" stop-opacity="0.12"/>
<stop offset="1" stop-color="#808080" stop-opacity="0.1"/>
</linearGradient>
<linearGradient id="paint1_linear" x1="88012.2" y1="120468" x2="88012.2" y2="36255.5" gradientUnits="userSpaceOnUse">
<stop stop-color="#808080" stop-opacity="0.25"/>
<stop offset="0.54" stop-color="#808080" stop-opacity="0.12"/>
<stop offset="1" stop-color="#808080" stop-opacity="0.1"/>
</linearGradient>
<clipPath id="clip0">
<rect width="522" height="374" fill="white"/>
</clipPath>
</defs>
</svg>
