<svg width="25" height="21" viewBox="0 0 25 21" fill="none" xmlns="http://www.w3.org/2000/svg">
<path d="M15.0333 0C16.234 0.00801281 17.1799 0.604833 17.7285 1.63849C17.8073 1.78596 17.9011 1.96728 18.014 2.19009L18.797 3.7647C18.8399 3.85145 18.9305 3.90636 19.0545 3.90665L19.3118 3.91337C22.124 4.05397 24.339 6.27757 24.339 8.97918V15.8825C24.339 18.6835 21.9622 20.9553 19.0307 20.9553H5.30956C2.37706 20.9553 0 18.6837 0 15.8825V8.97918C0 6.17715 2.37668 3.90636 5.25135 3.90813L5.34243 3.90436C5.42923 3.8937 5.50558 3.84088 5.54293 3.76546L6.14072 2.55854L6.60992 1.63966C7.16119 0.604137 8.10558 0.00800922 9.30574 0H15.0333ZM15.0269 1.74439H9.31849C8.82284 1.7477 8.48794 1.9591 8.23705 2.43036C8.16379 2.56811 8.07414 2.74204 7.96474 2.95837L7.19331 4.51087C6.88895 5.12551 6.27771 5.5483 5.51695 5.63991L5.30956 5.65079C3.38475 5.65079 1.82543 7.14065 1.82543 8.97918V15.8825C1.82543 17.7203 3.38521 19.2109 5.30956 19.2109H19.0307C20.954 19.2109 22.5136 17.7202 22.5136 15.8825V8.97918C22.5136 7.20675 21.0601 5.7476 19.2404 5.65632L18.8461 5.643C18.1139 5.58098 17.465 5.15316 17.1466 4.51011L16.2965 2.80385L16.1016 2.42967C15.852 1.95935 15.5166 1.7477 15.0269 1.74439ZM12.1749 7.44477L12.4207 7.45101C14.944 7.57662 16.9548 9.58271 16.9505 12.0272C16.9459 14.5417 14.8018 16.592 12.172 16.5949C9.53757 16.5964 7.38734 14.5375 7.38888 12.0246C7.36766 9.52016 9.53255 7.44191 12.1749 7.44477ZM12.1729 9.18921L11.9789 9.19512C10.439 9.29098 9.20177 10.5383 9.21428 12.018C9.21335 13.5751 10.5463 14.8514 12.1704 14.8505C13.7931 14.8487 15.1222 13.5777 15.125 12.0242C15.1278 10.4642 13.801 9.19098 12.1729 9.18921ZM19.1117 7.3086C19.2117 7.40277 19.2959 7.51642 19.3427 7.61225L19.3704 7.6802C19.4376 7.82466 19.4715 7.98173 19.4715 8.1402C19.4715 8.44459 19.3471 8.72609 19.1163 8.96042C18.9168 9.15235 18.6548 9.27038 18.3753 9.29689L18.2545 9.3026L18.1359 9.29689C18.0183 9.28535 17.9022 9.25604 17.7721 9.20601C17.6274 9.14459 17.5022 9.06646 17.3811 8.94889C17.1636 8.72775 17.0376 8.43855 17.0376 8.1402C17.0376 7.98173 17.0715 7.82466 17.1377 7.68238C17.204 7.53822 17.2827 7.41662 17.4248 7.28435C17.5329 7.19437 17.6436 7.12197 17.795 7.05824C18.2439 6.88825 18.7779 6.98982 19.1117 7.3086Z" fill="url(#paint0_linear)"/>
<defs>
<linearGradient id="paint0_linear" x1="14.5" y1="1.5" x2="2.5" y2="17" gradientUnits="userSpaceOnUse">
<stop stop-color="#FBC02D"/>
<stop offset="1" stop-color="#448AFF"/>
</linearGradient>
</defs>
</svg>
