<svg width="25" height="21" viewBox="0 0 25 21" fill="none" xmlns="http://www.w3.org/2000/svg">
<path d="M15.6566 0C16.8573 0.00801281 17.8032 0.604833 18.3518 1.63849C18.4306 1.78596 18.5244 1.96728 18.6373 2.19009L19.4202 3.7647C19.4632 3.85145 19.5538 3.90636 19.6778 3.90665L19.9351 3.91337C22.7473 4.05397 24.9623 6.27757 24.9623 8.97918V15.8825C24.9623 18.6835 22.5855 20.9553 19.654 20.9553H5.93285C3.00035 20.9553 0.623291 18.6837 0.623291 15.8825V8.97918C0.623291 6.17715 2.99997 3.90636 5.87464 3.90813L5.96572 3.90436C6.05252 3.8937 6.12887 3.84088 6.16622 3.76546L6.76402 2.55854L7.23321 1.63966C7.78448 0.604137 8.72887 0.00800922 9.92904 0H15.6566ZM15.6502 1.74439H9.94178C9.44613 1.7477 9.11123 1.9591 8.86034 2.43036C8.78708 2.56811 8.69743 2.74204 8.58803 2.95837L7.81661 4.51087C7.51224 5.12551 6.901 5.5483 6.14024 5.63991L5.93285 5.65079C4.00804 5.65079 2.44872 7.14065 2.44872 8.97918V15.8825C2.44872 17.7203 4.0085 19.2109 5.93285 19.2109H19.654C21.5773 19.2109 23.1369 17.7202 23.1369 15.8825V8.97918C23.1369 7.20675 21.6834 5.7476 19.8636 5.65632L19.4694 5.643C18.7372 5.58098 18.0883 5.15316 17.7699 4.51011L16.9198 2.80385L16.7249 2.42967C16.4753 1.95935 16.1399 1.7477 15.6502 1.74439ZM12.7982 7.44477L13.044 7.45101C15.5672 7.57662 17.5781 9.58271 17.5737 12.0272C17.5692 14.5417 15.4251 16.5921 12.7953 16.5949C10.1609 16.5964 8.01063 14.5375 8.01217 12.0246C7.99095 9.52016 10.1558 7.44191 12.7982 7.44477ZM12.7962 9.18921L12.6022 9.19512C11.0623 9.29098 9.82506 10.5383 9.83757 12.018C9.83664 13.5751 11.1696 14.8514 12.7937 14.8505C14.4164 14.8487 15.7455 13.5777 15.7483 12.0242C15.7511 10.4642 14.4243 9.19098 12.7962 9.18921ZM19.735 7.3086C19.835 7.40277 19.9192 7.51642 19.966 7.61225L19.9936 7.6802C20.0609 7.82466 20.0948 7.98173 20.0948 8.1402C20.0948 8.44459 19.9704 8.7261 19.7396 8.96042C19.5401 9.15235 19.2781 9.27038 18.9985 9.29689L18.8778 9.3026L18.7592 9.29689C18.6416 9.28535 18.5255 9.25604 18.3954 9.20601C18.2507 9.14459 18.1255 9.06645 18.0044 8.94889C17.7868 8.72775 17.6609 8.43855 17.6609 8.1402C17.6609 7.98173 17.6948 7.82466 17.761 7.68238C17.8273 7.53822 17.906 7.41662 18.0481 7.28435C18.1562 7.19437 18.2669 7.12197 18.4183 7.05824C18.8672 6.88825 19.4012 6.98982 19.735 7.3086Z" fill="url(#paint0_linear)"/>
<defs>
<linearGradient id="paint0_linear" x1="12.7928" y1="0" x2="12.7928" y2="20.9553" gradientUnits="userSpaceOnUse">
<stop stop-color="#E368D9"/>
<stop offset="1" stop-color="#711BAD"/>
</linearGradient>
</defs>
</svg>
