<svg width="23" height="21" viewBox="0 0 23 21" fill="none" xmlns="http://www.w3.org/2000/svg">
<path d="M16.076 3.40906L19.6778 7.1094C19.8295 7.26529 19.8295 7.51963 19.6778 7.67552L10.9569 16.6351L7.25139 17.0576C6.75625 17.1151 6.33698 16.6843 6.39288 16.1756L6.80417 12.3686L15.525 3.40906C15.6767 3.25317 15.9243 3.25317 16.076 3.40906ZM22.5448 2.46962L20.5962 0.467669C19.9892 -0.15589 19.003 -0.15589 18.392 0.467669L16.9785 1.91991C16.8267 2.0758 16.8267 2.33014 16.9785 2.48603L20.5802 6.18636C20.7319 6.34225 20.9795 6.34225 21.1313 6.18636L22.5448 4.73413C23.1517 4.10647 23.1517 3.09318 22.5448 2.46962ZM15.3333 14.1983V18.3745H2.55556V5.24692H11.7316C11.8594 5.24692 11.9792 5.19359 12.071 5.10334L13.6682 3.4624C13.9717 3.15062 13.7561 2.62141 13.3288 2.62141H1.91667C0.858507 2.62141 0 3.50342 0 4.59055V19.0309C0 20.118 0.858507 21 1.91667 21H15.9722C17.0304 21 17.8889 20.118 17.8889 19.0309V12.5573C17.8889 12.1184 17.3738 11.901 17.0703 12.2086L15.4731 13.8496C15.3852 13.9439 15.3333 14.067 15.3333 14.1983Z" fill="#181818"/>
</svg>
